<?xml version="1.0" encoding="utf-8"?>
<!-- Generator: Adobe Illustrator 23.0.3, SVG Export Plug-In . SVG Version: 6.00 Build 0)  -->
<svg version="1.1" id="Layer_4" xmlns="http://www.w3.org/2000/svg" xmlns:xlink="http://www.w3.org/1999/xlink" x="0px" y="0px"
	 viewBox="0 0 1491 811" style="enable-background:new 0 0 1491 811;" xml:space="preserve">
<style type="text/css">
	.st0{opacity:0.4;fill:#A4C7E5;enable-background:new    ;}
	.st1{opacity:0.6;fill:#FFFFFF;enable-background:new    ;}
	.st2{opacity:0.5;fill:#D6E4EF;enable-background:new    ;}
</style>
<path class="st0" d="M704.4,221.9l2.6,1.2l3.4,0.1l-0.8-2.3l1.4-0.1l-1.7-1l-0.7-1.3c0,0,0.6,0,1.2,0l0.4,0.2c0-0.1,0.1-0.1,0.1-0.2
	c0.2,0,0.3,0,0.4,0c0.2,0,2.4-0.2,2.4-0.2l0.1-0.2l0.1,0.6l1.9-0.5l-0.2,1.7h1.1l0.4-2.3h1.2v0.7c0,0,1.6-0.1,1.8-0.1
	s1.3-0.6,1.3-0.6l-0.3,1.6l2.4-0.4L722,220l2.3-0.4l0.4,1.1l0.5-0.5l2.5,1.5l2.7-1.8l1-0.2v0.6l1.1,0.4l0.6-0.5l0.9,0.1l0.5,0.8
	l1.8-0.4c0,0,0.5,0.4,0.7,0.9c0.1,0.2,1,0.5,2,0.6l2.8,1.4l-0.7,0.3l-1.5-0.4v0.3l-1.4,0.1l-1.2-0.8c0,0-0.4-0.7-1.2-0.4
	s1.1,1,1.1,1h-2.4l-0.1-0.4L733,223l-1-1.1l-1.1,1.1l-1.6,0.3v-0.8l-1.6-0.7l-2-0.2l-0.7,1.2l1.4,0.7l-2.4,0.8c0,0-1.9-0.7-2-0.8
	s-1.5-0.8-1.5-0.8l-0.9,1.2l0.1,1.4l-1.2-0.5l-2.1,2l-2.5-1.4l-0.6-1.9L710,224l-5.6,2.8c0,0-1.2-0.2-2.8-0.3l0.6-3L704.4,221.9z"/>
<path class="st1" d="M629.9,213.9c2.2,0,6.4-1.9,6.4-1.9s3.7-0.6,3.9-0.5c0.1,0,0.7,1.9,4.5,2.1c3.8,0.3,0.3-1.2-1.3-2.1
	c-1.6-0.9,0.6-1.4,0.6-1.4s0.2-1,2.2-0.7c2,0.2,2.3-1,2.3-1s0.4,0.6,3,1.3c2.5,0.6,4.4-0.4,4.4-0.4l-0.6-0.5l0.4-0.4
	c0,0,1.9,0.1,2,0.1c0.2,0-0.1-0.6-0.1-0.6l-2.5-0.6l0.4-0.9l-1.4-0.2l-0.8-1.6c1.2,0.3,2-0.8,3.3-1.4c1.2-0.6-1.6-1.8-0.2-1.5
	c1.4,0.4,1.4-1.4,2.2-0.7s4.3,0.1,5.5,0.2c1.2,0.2,2-0.7,3.2,0.1s1.4-1,2.8-1.2c1.4-0.1,0.1,1.2,2,1c2-0.2,1.3-0.4,1.1-1.3
	c-0.2-0.9,1.4,0.1,1.7-0.9s1.4,0,1.4-0.7s1.4-0.4,2.9-0.2s2.4-0.7,2.4-0.7l0.6-1.1l1.6,0.8l1.5-0.4l-0.4,1.4c0,0,3.5,0.1,1.5,0.7
	c-2,0.6,0.2,1.6,0.3,1.7c0.1,0.1,3.3,1,3.3,1s2.2-1,2.4-1c0.2,0.1,1,1.2,1,1.2c0-0.4,1.9-0.7,1.9-0.7s0.1,0.7,1.9,1.1
	c1.9,0.4,2.5-1.4,2.5-1.4l4.2-0.5c0,0-2.6,0.6-2.5,1.7c0.1,1.1,2.8,1.5,2.8,1.5l0.3-1.2c0.2,0.4,1.5,0.3,1.5,0.3
	c0.7-0.6,1.9-0.8,1.9-0.8v0.7l2.2,0.2l-0.3,1l0.5,0.1l1.2-0.6h0.5l-1.2,0.5l0.9,0.5l-2.7-0.6l-0.3,0.3l0.6,0.4l-1.1,0.5l-1.7-0.7
	l-0.3,0.6l1.1,0.7c0,0-1.6-0.1-1.7-0.1c-0.2,0.1,1.2,1,1.2,1l-1.9,0.8l0.4,0.8l-1.4,0.2c0,0-0.8-0.6-1.7-0.3c0,0,0.1-1.6-2.1-1.6
	c-2.2,0-0.6,1.1-0.4,1c0.1,0,0.9,0.9,0,0.7s-2.6-1.7-2.6-1.7l-0.8,0.7l0.7,0.4l-1.9-0.6l0.4,1c0,0-1.8-0.4-1.7-0.3
	c0,0.1-0.5,0.5-0.5,0.5l1.5,0.9c0,0-2.5,1.7-1.1,2.7s1.8,0.2,1.8,0.2s0.8,0.9-0.8,1.1l0.1,0.7c0,0-1.9,0.1-2.1,0
	c-0.2-0.1-2-1.5-3.1-0.9c-1.2,0.6,0.1,1,0.1,1l-1.6,0.3l0.1-1.2l-1.8,0.2c0,0-1.2-0.8-0.8-2.3s-2.2-0.2-2.2-0.2l-0.6-0.4l0.2-1.9
	l-2.2-0.1l-0.7-1.2l-1,0.5l-0.2,0.9l-0.5,0.1l-0.9-0.9l-1.8,0.7l-0.8-0.5c0,0-0.7,0.5-0.5,1.3c0,0-0.9,0.6-1.5,0.3l1.2,1
	c0,0-2.5,0.8-3.8,0c-1.4-0.8-0.2-2.2-0.2-2.2l-2.6,2c0,0,1.6,1.6-0.1,2c-1.8,0.4-2.7-0.1-2.7-0.1s-1.1,0.9-0.6,1.2
	c0,0-2-0.6-2.2-0.5c-0.2,0-0.6,1.6-0.6,1.6s-3.4,0.5-3.6,0.5c-0.2,0-2.9,0.1-2.2-1.1c0.8-1.2-1.9,0.1-1.9,0.1l-1.3-1.2l-0.7,0.9
	h-2.2l0.8,1.1c0,0,0.4,1-1,1.4c-1.4,0.5-2.8,0.7-1.9,1.3c0.9,0.6-1.1,0.2-0.2,1c0.9,0.8-1.4,0.7-0.3,1.3c0.8,0.4,1.5,0.5,1.3,0.8
	l0,0c0,0.1-0.1,0.1-0.2,0.2c0.1-0.1,0.1-0.1,0.2-0.2c0.4-0.2,0.7-0.4,0.9-0.6c0.6-0.5,1.7-0.6,2.7-0.6l0.5,0.3c0,0-1,0.4-0.8,0.8
	h-1.6v0.9h-3.1h0.1h-0.1h-0.2c-0.1,0-0.1,0-0.2,0c0.1-0.1,0.3-0.1,0.4-0.2c-0.1,0.1-0.3,0.1-0.4,0.2c-0.6,0.3-1.2,0.5-1.7,0.7
	c-0.1,0-0.2,0.1-0.2,0.1l0.3,0.1c0.2,0.5,0.4,0.9-0.7,0.8c-1.9-0.1-1.4,0.8-2.6,1.1c-0.5,0.2-1.2,0.6-2,1.1l-2.8-2.3h3.3l-2.9-1.4
	l1.3-0.3c-0.5-0.3-0.9-0.5-0.9-0.5l-2-0.3v-0.8l-1.1-0.1c0,0,0.5-0.8-0.7-1.2c-1.3-0.3-2.6,0.7-2.6,0.7l-1.1-0.9
	c0,0-1.4-1.2,1.1-1.6c2.5-0.4,3.3-1.6,3.3-1.6S627.7,213.9,629.9,213.9z"/>
<path class="st1" d="M718.5,212.9c0,0-1.2,0.4-1.1-0.8c0.1-1,2.7-1.4,3.6-1.6c0,0.2-0.1,0.4-0.1,0.4h4.4l-0.2,0.5l-1.6,0.3l0.3,0.2
	l-0.9,0.6l-1.8-0.1c0,0-1.1-0.4-1.3,0.2c-0.2,0.6,1.9,0.3,1.9,0.3l-1.8,0.9l-0.5-0.3l-1.3,0.4l-1.6-0.4l0.1-0.1
	C718,213.9,718.5,212.9,718.5,212.9z"/>
<path class="st2" d="M646.9,218.4c-0.9-0.8,1.1-0.5,0.2-1c-0.9-0.6,0.6-0.8,1.9-1.3c1.4-0.5,1-1.4,1-1.4l-0.8-1.1h2.2l0.7-0.9
	l1.3,1.2c0,0,2.7-1.3,1.9-0.1s2,1.1,2.2,1.1s3.6-0.5,3.6-0.5s0.4-1.6,0.6-1.6c0.2,0,2.2,0.5,2.2,0.5c-0.5-0.3,0.6-1.2,0.6-1.2
	s0.9,0.5,2.7,0.1s0.1-2,0.1-2l2.6-2c0,0-1.2,1.4,0.2,2.2s3.8,0,3.8,0l-1.2-1c0.6,0.2,1.5-0.3,1.5-0.3c-0.2-0.7,0.5-1.3,0.5-1.3
	l0.8,0.5l1.8-0.7l0.9,0.9l0.5-0.1l0.2-0.9l1-0.5l0.7,1.2l2.2,0.1l-0.2,1.9l0.6,0.4c0,0,2.6-1.3,2.2,0.2c-0.4,1.5,0.8,2.3,0.8,2.3
	l1.8-0.2l-0.1,1.2l1.6-0.3c0,0-1.2-0.4-0.1-1c1.2-0.6,3,0.8,3.1,0.9c0.2,0.1,2.1,0,2.1,0l-0.1-0.7c1.5-0.2,0.8-1.1,0.8-1.1
	s-0.4,0.8-1.8-0.2c-1.4-1,1.1-2.7,1.1-2.7l-1.5-0.9c0,0,0.5-0.3,0.5-0.5c0-0.1,1.7,0.3,1.7,0.3l-0.4-1l1.9,0.6l-0.7-0.4l0.8-0.7
	c0,0,1.7,1.5,2.6,1.7c0.9,0.2,0.2-0.8,0-0.7c-0.1,0-1.7-1,0.4-1c2.2,0,2.1,1.6,2.1,1.6c0.9-0.2,1.7,0.3,1.7,0.3l1.4-0.2l-0.4-0.8
	l1.9-0.8c0,0-1.3-0.9-1.2-1c0.2-0.1,1.7,0.1,1.7,0.1l-1.1-0.7l0.3-0.6l1.7,0.7l1.1-0.5l-0.6-0.4l0.3-0.3l2.7,0.6l-0.9-0.5l1.2-0.5
	h0.9l-0.9,1.2l1.4,0.9l-2.4,1.3v0.5c0,0,3.4,0,1.4,1s-2.1,2-2.1,2l1.5,0.6l-1.5,0.9l1.6,0.4c0,0-0.4-0.8,1.2-0.8
	c1.6,0,1.3,1.7,1.3,1.9c0,0.1,1.5,0.8,1.5,0.8l0.3-0.2l0.3-0.2l1.6,0.4l1.3-0.4l0.5,0.3l1.8-0.9c0,0-2.1,0.3-1.9-0.3
	c0.2-0.6,1.3-0.2,1.3-0.2l1.8,0.1l0.9-0.6l-0.3-0.2l1.6-0.3l0.2-0.5h-4.4c0,0,0.1-0.2,0.1-0.4s-0.1-0.4-0.4-0.5l0.8-0.4v-0.4
	c0,0,0,0,0.1,0c0.2,0,0.7-0.1,0.8-0.2c0.1-0.1,1,0.9,1,0.9l0.8-0.9l0.7,1.1v-0.6l1.4-0.2c0,0-0.5,1.8,0,2.3s1-0.5,0.9-0.5
	s-0.1-1.4,1.5-0.6c1.6,0.8-0.3,2-0.3,2c0.9,0.2,0.9,0.9,0.9,0.9l1.3,0.4l0.6-0.7l2.3,0.2c0,0,0.1-1.2,0.3-1.2s1.2,0.7,1.2,0.7v-0.9
	l0.9-0.3l0.5,1.1h1.4v-0.5l0.6-0.1l1.3,1.5l-0.1-0.7l2.9,0.2c0.4,1.8,2.6,2.2,2.6,2.2s-2.2-0.4-1.9,0.6s2.9-0.1,3.3-0.5
	c0.4-0.4,1.3-0.4,1.3-0.4l2-0.4l0.5,1.1h2l-1,0.7l2.9,2.3h-3.3l2.9,1.4l-1.3,0.3l0,0l-1.3-0.6c0,0,0,0-0.1,0
	c-0.2,0.1-1.3,0.3-1.3,0.3l-0.1-0.6l-1.7-0.2l0.7,0.8l-2.2-0.5l-1.1-0.3l0.5,0.3l-1.3,0.7h-3.4v0.9h-1.6c0.2,0.5-0.8,0.8-0.8,0.8
	l0.5,0.3c-1-0.1-1.9-0.3-2-0.6c-0.2-0.5-0.7-0.9-0.7-0.9l-1.8,0.4l-0.5-0.8l-0.9-0.1l-0.6,0.5l-1.1-0.4V220l-1,0.2l-2.7,1.8
	l-2.5-1.5l-0.5,0.5l-0.4-1.1L722,220l0.6-1.1l-2.4,0.4l0.3-1.6c0,0-1.1,0.5-1.3,0.6s-1.8,0.1-1.8,0.1v-0.7h-1.2l-0.4,2.3h-1.1
	l0.2-1.7l-1.9,0.5l-0.1-0.6l-0.1,0.2c0,0-2.2,0.2-2.4,0.2c0,0-0.2,0-0.4,0c0,0.1-0.1,0.1-0.1,0.2l-0.4-0.2l-1.2-0.6l-0.5,0.5
	l-1.3-0.2l0.3-1.1l-0.8-0.5h-1.4l0.5,1.5l-1,0.1c0,0,0.2-1.9-1.3-1.8c-1.5,0.1,0.1,1.4,0.1,1.4l-1.5-0.2c0,0-0.7,1.1-0.9,1.1
	s-0.8-0.6-0.8-0.6s0.4-0.5,0.6-0.6c0.1-0.1-0.1-0.5-0.4-0.5c-0.3,0-3.7,0.2-3.7,0.2s-0.8-0.7,0.5-1.3c1-0.5,1.6-0.4,1.7-0.4h0.1
	c0,0,0,0-0.1,0c-0.4-0.1-3.1-0.6-5.8-0.3c-2.9,0.3-6.5-0.3-6.5-0.3l-5.6,2.8l-3.4,0.3l-0.6-1.9l-2.5-1.4l-2.1,2l-1.2-0.5l0.1,1.4
	l-0.9,1.2c0,0-1.3-0.7-1.5-0.8s-2-0.8-2-0.8l-2.4,0.8l1.4,0.7l-0.7,1.2l-2-0.2l-1.6-0.7v-0.8l-1.6,0.3l-1.1,1.1l-1-1.1l-1.4-0.2
	l-0.1-0.4h-2.4c0,0,1.9,0.6,1.1,1c-0.8,0.3-1.2-0.4-1.2-0.4l-1.2-0.8l-1.4,0.1v0.3l-1.5-0.4l-0.7,0.3l2.8,1.4c-1-0.1-2.1,0-2.7,0.6
	c-0.2,0.2-0.5,0.4-0.9,0.6c0.2-0.3-0.5-0.4-1.3-0.8C645.5,219.1,647.8,219.2,646.9,218.4z"/>
<path class="st0" d="M649.5,217.7l1.5,0.4v-0.3l1.4-0.1l1.2,0.8c0,0,0.4,0.7,1.2,0.4s-1.1-1-1.1-1h2.4l0.1,0.4l1.4,0.2l1,1.1
	l1.1-1.1l1.6-0.3v0.8l1.6,0.7l2,0.2l0.7-1.2l-1.4-0.7l2.4-0.8c0,0,1.9,0.7,2,0.8s1.5,0.8,1.5,0.8l0.9-1.2l-0.1-1.4l1.2,0.5l2.1-2
	l2.5,1.4l0.6,1.9l3.4-0.3l5.6-2.8c0,0,3.6,0.6,6.5,0.3c2.7-0.3,5.4,0.3,5.8,0.3c-0.2,0-0.7-0.1-1.7,0.4c-1.2,0.6-0.5,1.3-0.5,1.3
	s3.5-0.2,3.7-0.2s0.6,0.5,0.4,0.5s-0.6,0.6-0.6,0.6s0.7,0.6,0.8,0.6s0.9-1.1,0.9-1.1l1.5,0.2c0,0-1.6-1.2-0.1-1.4
	c1.5-0.1,1.3,1.8,1.3,1.8l1-0.1l-0.5-1.5h1.4l0.8,0.5l-0.3,1.1l1.3,0.2l0.5-0.5l1.2,0.6c-0.6,0-1.2,0-1.2,0l0.7,1.3l1.7,1l-1.4,0.1
	l0.8,2.3l-3.4-0.1l-2.6-1.2l-2.2,1.5l-0.6,3c-1.1-0.1-2.5-0.1-3.7,0c-2.7,0.3-5.4-0.3-5.8-0.3c0.2,0,0.7,0.1,1.7-0.4
	c1.2-0.6,0.5-1.3,0.5-1.3s-3.5,0.2-3.7,0.2c-0.3,0-0.6-0.5-0.4-0.5s0.6-0.6,0.6-0.6s-0.7-0.6-0.8-0.6S689,224,689,224l-1.5-0.2
	c0,0,1.6,1.2,0.1,1.4c-1.5,0.1-1.3-1.8-1.3-1.8l-1,0.1l0.5,1.5h-1.4l-0.8-0.5l0.3-1.1l-1.3-0.2l-0.5,0.5l-1.6-0.8c-0.3,1-3,1-3,1
	l-0.1-1l-1.9,0.5l0.2-1.7h-1.1l-0.4,2.3H673v-0.7c0,0-1.6,0.1-1.8,0.1s-1.3,0.6-1.3,0.6l0.3-1.6l-2.4,0.4l0.6-1.1l-2.3,0.4l-0.4-1.1
	l-0.5,0.5l-2.5-1.5l-2.7,1.8l-1,0.2v-0.6l-1.1-0.4l-0.6,0.5l-0.9-0.1l-0.5-0.8l-1.8,0.4c0,0-0.5-0.4-0.7-0.9c-0.1-0.2-1-0.5-2-0.6
	l-2.8-1.4L649.5,217.7z"/>
</svg>
