<?xml version="1.0" encoding="utf-8"?>
<!-- Generator: Adobe Illustrator 23.0.2, SVG Export Plug-In . SVG Version: 6.00 Build 0)  -->
<svg version="1.1" id="Layer_1" xmlns="http://www.w3.org/2000/svg" xmlns:xlink="http://www.w3.org/1999/xlink" x="0px" y="0px"
	 viewBox="0 0 750 500" style="enable-background:new 0 0 750 500;" xml:space="preserve">
<style type="text/css">
	.st0{fill:#915A7F;}
	.st1{fill:url(#SVGID_1_);}
	.st2{fill:url(#SVGID_2_);}
</style>
<g id="OBJECTS">
	<g>
		<path class="st0" d="M658.7,351.3c-9.5-10.2-23.4-16.1-37.3-15.7c-13.1,0.4-28.2,5.4-38.1-3.2c-2.8-2.4-4.7-5.6-7.7-7.8
			c-6.4-4.6-15.3-2.8-22.5,0.3c-20.7,8.8-36.8,25.9-57.2,35.3c-15.3,7.1-32.3,9.5-48.7,13.4c-33.1,7.7-64.8,21.3-93.2,40l-54.4,29.6
			l369.1-6.5"/>
	</g>
	<g>
		
			<linearGradient id="SVGID_1_" gradientUnits="userSpaceOnUse" x1="516.58" y1="177.8143" x2="750.21" y2="177.8143" gradientTransform="matrix(1 0 0 -1 0 499)">
			<stop  offset="0" style="stop-color:#E16771"/>
			<stop  offset="1" style="stop-color:#A85A73"/>
		</linearGradient>
		<path class="st1" d="M750.2,236.1c-0.6-0.6-1.2-1.3-1.7-1.9c-5.7-5.9-12.6-12.1-20.8-11.8c-8.3,0.3-15.5,7.1-23.8,6.9
			c-7.6-0.2-14.1-6.3-21.7-6.1c-5.8,0.2-10.8,4-15.3,7.6c-34,26.8-111.5,66.1-150.3,85.2l233.6,103.8V236.1z"/>
	</g>
	<g>
		
			<linearGradient id="SVGID_2_" gradientUnits="userSpaceOnUse" x1="217.4556" y1="217.4463" x2="225.5454" y2="20.862" gradientTransform="matrix(1 0 0 -1 0 499)">
			<stop  offset="0" style="stop-color:#E16771"/>
			<stop  offset="1" style="stop-color:#7A314B"/>
		</linearGradient>
		<path class="st2" d="M84.7,327.9c3-8.3,13.8-10.1,22.6-10.6c3.6-0.2,7.1-0.4,10.7-0.6c2.4-0.1,4.9-0.3,7.2,0.3
			c2.4,0.5,4.5,1.7,6.7,2.8c5.4,2.6,11,4.5,16.7,6.4c8.5,2.9,17.1,5.7,26,5.8c6.7,0,13.4-1.6,19.4-4.6c2.2-1.1,4.3-2.5,6.7-3.1
			c6.5-1.7,13.1,2.2,17.9,6.8s9,10.2,15,13.2c8.3,4.1,18.2,2.4,27.4,3.5c14.4,1.7,28.6,10.4,42.5,6.2c4.2-1.3,8-3.7,12-5.3
			c13.6-5.4,30.5-1,39.8,10.3l-52.4,68.4"/>
	</g>
</g>
</svg>
