<?xml version="1.0" encoding="utf-8"?>
<!-- Generator: Adobe Illustrator 23.0.2, SVG Export Plug-In . SVG Version: 6.00 Build 0)  -->
<svg version="1.1" id="Layer_1" xmlns="http://www.w3.org/2000/svg" xmlns:xlink="http://www.w3.org/1999/xlink" x="0px" y="0px"
	 viewBox="0 0 750 500" style="enable-background:new 0 0 750 500;" xml:space="preserve">
<style type="text/css">
	.st0{fill:url(#SVGID_1_);}
	.st1{fill:url(#SVGID_2_);}
</style>
<g id="OBJECTS">
	<g>
		
			<linearGradient id="SVGID_1_" gradientUnits="userSpaceOnUse" x1="166.2408" y1="261.4223" x2="143.5891" y2="-71.0721" gradientTransform="matrix(1 0 0 -1 0 499)">
			<stop  offset="0" style="stop-color:#8B7198"/>
			<stop  offset="1" style="stop-color:#28203F"/>
		</linearGradient>
		<path class="st0" d="M280.1,383.1c-7.9-4.4-16.9-6.4-25.7-8.4c-12.2-2.7-24.4-5.4-36.6-8.1c-2.4-0.5-4.8-1.1-6.9-2.4
			c-3.1-1.9-5.1-5.3-7.9-7.6c-4.6-3.9-10.6-4.5-16.7-4.8c-0.2-0.4-0.3-0.7-0.4-1c-0.8,0.5-2.1,0.7-3.6,0.6c-0.2-1.4-0.4-2.8-0.6-4.2
			c-2.8,0.8-0.9,3.3-3.9,3.9c-0.4-0.4-0.9-0.7-1.4-1.1c-0.9,0.3-1.7,0.6-2.3,1l0.1,0c-0.1,0-0.1,0-0.1,0c0,0,0,0,0,0l-0.9-0.3
			c0,0,0.1,0.1,0.1,0.1c-2-0.4-3.9-0.9-5.8-1.7c-0.3-0.1-0.5-0.3-0.8-0.4l6.5,1.9c-0.7-1.4-0.8-2.8-0.4-4c0.2-0.6,0.5-1.2,0-1.8
			c-0.5-0.7-2.2-1.4-3.5-1.3c-0.2-1.9-0.4-3.9-0.6-5.8c-1.6,1.1-2.7,2.3-3.5,3.6c-0.3-0.5-0.6-0.9-0.9-1.4c-0.7,0.6-1,1.3-0.9,2
			c0,0.5,0.1,1-0.5,1.3s-2.4,0-2.6-0.5c-0.3,0.1-0.7,0.2-1,0.3c-0.2-1.2-0.5-2.4-0.7-3.6c0-0.2-0.1-0.5-0.5-0.6
			c-0.8-0.4-2.1-0.3-2.8-0.1c0.2-1.4-0.1-2.8-0.7-4.3c-1.4,1.3-2.7,2.6-4.1,3.9c-0.6-0.3-1.2-0.5-1.8-0.7c-0.5-0.9-1-1.7-1.3-2.5
			c-0.4,0-0.9,0-1.4,0c0.1-1.4-0.2-3-1-4.5c-1.1,0.5-2,1.1-2.8,1.7c0.4-2.5,0.8-5.1,1.2-7.6c-1.5,0-2.1,0.7-2.4,1.3
			c-0.9,1.8-1.9,3.6-2.8,5.4c-0.1-1.1-0.1-2.3-0.1-3.5c-0.7,1.4-1.4,2.9-2,4.3c-0.2,0.4-1,0.9-2.1,0.6c0-1.1,0-2.3,0-3.4
			c-1.1,1.2-1.6,2.5-1.6,4c0,0.6,0.1,1.4-0.4,1.9c-0.1,0.1-0.2,0.2-0.4,0.2c-1,0-2,0-3-0.3c0.8-1.7,1-3.5,0.5-5.4
			c-0.7,1.6-1.4,3.2-2,4.8c-2.9-1.4-4.7-4.4-6.6-7.1c-2.6-3.7-6-6.8-9.8-9.1c-0.1-0.8-0.2-1.5-0.3-2.3c-0.4,0.5-0.7,1-0.9,1.6
			c-2.6-1.5-5.5-2.7-8.4-3.5c-0.7-1.3-2.4-2.1-3.6-1.3c-0.6-4.7-1.1-9.4-1.7-14.1c-1.3,3.4-2.2,7-2.7,10.6c-0.4-1-0.8-2-1.2-3
			c-0.5,1.8-0.7,3.7-0.6,5.5c0,0.4,0.1,0.7,0.1,1.1c-1.5,0-3,0.1-4.5,0.1c-0.3-1.8-0.6-3.5-0.8-5.3c-0.1-0.5-0.2-1.1-0.6-1.4
			c-0.9-0.7-2.1,0.3-2.8,1.2c-0.1-3.5-0.6-7-1.5-10.4c-1.3,4.6-2.6,9.1-3.9,13.7c-1.3-2.8-2.3-5.8-3-8.8c-0.4,0.2-0.9,0.4-1.3,0.5
			c-0.1-3.6-0.8-7.2-1.8-10.6c-0.9,1.8-1.8,3.7-2.5,5.6c-0.1-6.5-0.2-12.9-0.2-19.4c-1.5,0.7-1.9,2.6-2.1,4.2
			c-0.6,4.9-1.2,9.8-1.8,14.6c-0.3-2.8-0.5-5.6-0.8-8.5c-0.4,3.8-0.8,7.7-1.2,11.5c0,0.3-0.1,0.5-0.2,0.8c-0.6-0.1-1.3-0.2-1.9-0.3
			c-0.2-2.2-0.3-4.4-0.5-6.6c-0.5,2.1-0.8,4.3-0.9,6.4c-1.1-0.1-2.2-0.1-3.4-0.2c-0.1-1-0.3-1.9-0.4-2.9c-0.1,1-0.2,1.9-0.3,2.9
			c-5.5-0.2-11-0.3-15.5-3.1c-4.3-2.6-7-7.3-11.4-9.6c-4.5-2.4-9.9-1.9-14.8-3c-4.6-1-8.8-3.5-13.1-5.7v138.8L32.5,478l153,5.2
			l132.8-78.6C303.5,403.8,293.1,390.3,280.1,383.1z"/>
	</g>
	<g>
		
			<linearGradient id="SVGID_2_" gradientUnits="userSpaceOnUse" x1="0" y1="79.8117" x2="310.8316" y2="79.8117" gradientTransform="matrix(1 0 0 -1 0 499)">
			<stop  offset="0" style="stop-color:#433D6C"/>
			<stop  offset="1" style="stop-color:#392E54"/>
		</linearGradient>
		<path class="st1" d="M299.3,432.6c-7.8-5.4-17.2-7.9-25.6-12.4c-14.6-7.9-25.7-21.5-39.8-29.7c-0.1-1.2-0.3-2.4-0.4-3.5
			c-0.6,0.8-0.9,1.7-1.1,2.7c-2.5-1.3-5-2.5-7.7-3.4c-0.1-0.4-0.2-0.8-0.3-1.2c-0.6-1.6-2.4-2.8-3.7-1.9c-0.6-5.5-1.1-11-1.7-16.5
			c-1.3,4-2.2,8.2-2.7,12.4c-0.4-1.2-0.8-2.3-1.2-3.5c-0.5,2.1-0.7,4.3-0.6,6.5c0.1,0.6,0.1,1.2,0.1,1.8c-1.5-0.2-3-0.4-4.6-0.5
			c-0.3-2-0.5-4-0.8-6c-0.1-0.6-0.2-1.3-0.6-1.6c-0.9-0.8-2.1,0.3-2.8,1.4c-0.1-4.1-0.6-8.2-1.5-12.2c-1.3,5.4-2.6,10.7-3.9,16.1
			c-1.3-3.3-2.3-6.8-3-10.4c-0.4,0.2-0.9,0.4-1.3,0.6c-0.1-4.2-0.8-8.5-1.8-12.5c-0.9,2.1-1.8,4.3-2.5,6.5
			c-0.1-7.6-0.2-15.1-0.2-22.7c-1.5,0.8-1.9,3-2.1,5c-0.6,5.7-1.2,11.4-1.8,17.1c-0.3-3.3-0.5-6.6-0.8-9.9c-0.4,4.5-0.8,9-1.2,13.5
			c-0.1,1.4-0.8,3.3-2,2.8c-0.2-3.3-0.4-6.6-0.6-9.9c-0.9,4-1.1,8.2-0.9,12.4c0.1,1.9,0.4,3.8-0.1,5.6c-0.1,0.4-0.2,0.8-0.4,1.1
			c-0.9-0.2-1.9-0.3-2.8-0.5c0.4-4.9,0.2-9.8-0.6-14.7c-0.4,4.8-0.7,9.5-1.1,14.3c-0.6-0.1-1.3-0.3-1.9-0.4c-0.4-1.4-1-2.7-1.8-3.9
			c-0.1,1.1-0.2,2.3-0.3,3.4c-2.8-0.7-5.6-1.5-8.4-2.3c-0.4-2.5-0.7-5.1-0.7-7.7c0-2.2,0.1-4.6-1.1-6.4c-0.8,3.8-1.6,7.7-2.3,11.5
			c-1-1.7-2-3.5-2.9-5.2c-0.3,1.1-0.8,2.1-1.4,2.9c-1.6-6.3-2.3-12.9-2.1-19.5c0-0.8,0.1-1.7-0.3-2.5s-1.2-1.2-1.8-0.7
			c-0.4,0.3-0.5,0.8-0.6,1.4c-0.6,3.5-0.6,7.5-2.9,9.8c-0.6-2.6-1.3-5.1-2.1-7.6c-2.2,0.4-0.3,6-2.5,6.3c-0.4,0.1-0.8-0.2-1.2-0.3
			c-1.9-0.6-4,1-4.4,3.2c-0.4-1.9-0.9-3.7-1.6-5.4c-1,1-1.4,2.6-1.9,4s-1.6,2.9-2.9,2.7c-1.2-0.1-2.1-1.4-2.3-2.8s0-2.8,0.1-4.1
			c0.3-3.3-0.1-6.6-1.2-9.7c-0.9,4.1-1.8,8.1-2.7,12.2c-0.1,0.6-0.4,1.3-0.8,1.5c-0.3-0.2-0.7-0.3-1-0.5c-0.1-0.2-0.1-0.4-0.2-0.5
			c-0.5-1.6-0.9-3.2-1.4-4.8c-1.4,0.3-2.6,1.4-3.3,2.8c-1.4-0.8-2.9-1.5-4.3-2.3c-0.4-1.5-0.1-3.4-0.2-5c-0.1-1.9-1-3.7-1.8-5.3
			c-0.1,2.9-0.5,5.8-1.4,8.5c-11.7-6.3-23.9-12.9-37.1-12.6C46.5,341,27.3,371.9,0,376.4v121.7l310-41.6
			C313.1,447.7,307.1,438,299.3,432.6z"/>
	</g>
</g>
</svg>
