<?xml version="1.0" encoding="utf-8"?>
<!-- Generator: Adobe Illustrator 23.0.3, SVG Export Plug-In . SVG Version: 6.00 Build 0)  -->
<svg version="1.1" id="Layer_4" xmlns="http://www.w3.org/2000/svg" xmlns:xlink="http://www.w3.org/1999/xlink" x="0px" y="0px"
	 viewBox="0 0 1491 811" style="enable-background:new 0 0 1491 811;" xml:space="preserve">
<style type="text/css">
	.st0{opacity:0.9;}
	.st1{fill:none;}
	.st2{opacity:0.5;fill:#A4C7E5;enable-background:new    ;}
	.st3{opacity:0.8;fill:#FFFFFF;enable-background:new    ;}
	.st4{fill:none;stroke:#FFFFFF;stroke-width:0.4856;stroke-miterlimit:10;}
	.st5{opacity:0.7;fill:#D6E4EF;enable-background:new    ;}
	.st6{opacity:0.5;fill:#D6E4EF;enable-background:new    ;}
	.st7{opacity:0.6;fill:#FFFFFF;enable-background:new    ;}
	.st8{opacity:0.3;fill:#A4C7E5;enable-background:new    ;}
</style>
<g class="st0">
	<path class="st1" d="M345.7,138.7c0.2-0.1,0.3-0.1,0.5-0.2c0,0.1,0.1,0.2,0.2,0.4L345.7,138.7z"/>
	<polygon class="st1" points="501.8,120 501.1,120.5 500.9,119.8 	"/>
	<path class="st1" d="M551.2,136.2h3.4v-1.9h7.4l2.8-1.6l-1-0.7l2.4,0.6c-3,1.2-8.1,3.4-9.9,4.9c-1.2,1.1-3.7,1.4-5.8,1.2l-1.1-0.6
		C549.4,138,551.6,137.2,551.2,136.2z"/>
	<path class="st2" d="M475.7,138.1l5.6,2.5l7.4,0.2l-1.8-5l3.1-0.3l-3.7-2.1l-1.6-2.7c0,0,1.3,0,2.5,0l0.9,0.5
		c0-0.2,0.1-0.3,0.2-0.4c0.4,0,0.7,0,0.8,0c0.4,0,5.2-0.5,5.2-0.5l0.3-0.4l0.1,1.2l4.1-1l-0.4,3.7h2.4l0.8-4.9h2.6l-0.1,1.5
		c0,0,3.4-0.2,3.8-0.3s2.8-1.2,2.8-1.2l-0.7,3.6l5.1-0.9l-1.4,2.3l4.9-0.8l0.8,2.5l1.1-1.1l5.4,3.2l5.8-3.9l2.1-0.3v1.4l2.3,0.8
		l1.4-1.1l2,0.2l1.1,1.7l3.8-0.8c0,0,1.1,0.9,1.6,1.9c0.3,0.5,2.2,1,4.4,1.2l6,3.1l-1.5,0.6l-3.3-0.9v0.6l-3,0.2l-2.5-1.7
		c0,0-0.9-1.5-2.6-0.8c-1.7,0.7,2.3,2.1,2.3,2.1l-5.2-0.1l-0.2-0.9l-3.1-0.5l-2.1-2.4l-2.4,2.4l-3.4,0.6l-0.1-1.7l-3.4-1.4l-4.3-0.3
		l-1.5,2.6l3,1.5l-5.2,1.7c0,0-4.1-1.5-4.4-1.7c-0.3-0.2-3.2-1.7-3.2-1.7l-2,2.6l0.3,3l-2.6-1l-4.5,4.4l-5.3-3l-1.2-4l-7.4,0.6
		l-12,6c0,0-2.7-0.5-6.2-0.7l1.4-6.4L475.7,138.1z"/>
	<path class="st3" d="M314.6,120.7c4.8,0.1,13.9-4.1,13.9-4.1s8.1-1.3,8.4-1.2s1.5,4.1,9.8,4.6c8.2,0.6,0.7-2.5-2.8-4.5
		c-3.5-1.9,1.3-3,1.3-3s0.5-2.1,4.8-1.6s4.9-2.1,4.9-2.1s0.9,1.4,6.4,2.8c5.5,1.4,9.5-0.8,9.5-0.8l-1.3-1l0.8-0.9c0,0,4,0.2,4.4,0.2
		c0.4,0.1-0.3-1.3-0.3-1.3l-5.5-1.2l0.8-2l-2.9-0.4l-1.7-3.5c2.7,0.7,4.4-1.8,7.1-3.1c2.7-1.2-3.5-4-0.5-3.2c2.9,0.8,2.9-3,4.7-1.5
		c1.7,1.5,9.2,0.2,11.9,0.5c2.7,0.4,4.3-1.5,7,0.3s2.9-2.2,6-2.5s0.1,2.5,4.4,2.1s2.8-0.9,2.4-2.8s3.1,0.2,3.7-1.9
		c0.7-2.1,2.9,0.1,2.9-1.5s2.9-0.8,6.3-0.5c3.3,0.4,5.2-1.5,5.2-1.5l1.3-2.4l3.5,1.8l3.3-0.8l-0.9,3.1c0,0,7.5,0.2,3.2,1.5
		s0.4,3.4,0.7,3.6c0.3,0.2,7.1,2.2,7.1,2.2s4.7-2.2,5.1-2.1c0.4,0.2,2.1,2.7,2.1,2.7c0-0.8,4-1.5,4.1-1.5s0.2,1.6,4.2,2.4
		s5.4-3.1,5.4-3.1l9.1-1c0,0-5.5,1.3-5.3,3.7c0.2,2.4,6.1,3.2,6.1,3.2l0.7-2.6c0.5,0.9,3.3,0.7,3.3,0.7c1.5-1.4,4-1.7,4-1.7v1.5
		l4.8,0.3l-0.7,2.2l1.1,0.2l2.5-1.2h1.2l-2.5,1l2,1.1l-5.8-1.3l-0.6,0.7l1.3,0.8l-2.3,1.1l-3.7-1.4l-0.5,1.3l2.3,1.4
		c0,0-3.4-0.3-3.8-0.2s2.5,2.1,2.5,2.1l-4.1,1.7l0.9,1.7l-3,0.5c0,0-1.8-1.2-3.7-0.7c0,0,0.2-3.4-4.5-3.4s-1.2,2.3-0.9,2.2
		c0.3-0.1,2,1.9-0.1,1.6c-2-0.3-5.7-3.6-5.7-3.6l-1.7,1.5l1.5,0.9l-4.1-1.2l1,2.1c0,0-3.8-0.9-3.8-0.6c0,0.3-1,1-1,1l3.2,2
		c0,0-5.5,3.7-2.4,5.9c3.1,2.1,3.9,0.4,3.9,0.4s1.7,1.9-1.6,2.4l0.2,1.5c0,0-4.1,0.2-4.5,0s-4.3-3.2-6.8-1.9s0.2,2.2,0.2,2.2
		l-3.5,0.7l0.2-2.6l-3.8,0.3c0,0-2.6-1.8-1.7-5s-4.7-0.4-4.7-0.4l-1.3-0.9l0.5-4l-4.7-0.3l-1.6-2.6l-2.2,1.2l-0.5,1.9l-1.1,0.3
		l-2-1.9l-4,1.6l-1.8-1.1c0,0-1.5,1.2-1,2.8c0,0-1.9,1.2-3.3,0.8l2.6,2.2c0,0-5.3,1.7-8.3,0s-0.4-4.8-0.4-4.8l-5.6,4.3
		c0,0,3.6,3.4-0.3,4.4s-5.8-0.2-5.9-0.2s-2.3,2-1.3,2.6c0,0-4.2-1.2-4.7-1.2s-1.4,3.5-1.4,3.5s-7.4,1.1-7.9,1.1
		c-0.5-0.1-6.4,0.2-4.7-2.4c1.7-2.6-4.1,0.1-4.1,0.1l-2.9-2.6l-1.5,1.9h-4.7l1.8,2.3c0,0,0.8,2.1-2.1,3.1s-6,1.6-4.1,2.7
		c1.9,1.2-2.3,0.5-0.4,2.3s-3.1,1.6-0.5,2.9c1.8,0.9,3.2,1.1,2.8,1.8l0,0c-0.1,0.1-0.2,0.3-0.3,0.4c0.2-0.2,0.3-0.3,0.3-0.4
		c0.8-0.5,1.5-0.9,2-1.3c1.3-1.1,3.7-1.4,5.8-1.2l1.1,0.6c0,0-2.2,0.8-1.8,1.8h-3.4v1.9H351c0.1,0,0.1,0,0.2,0c-0.1,0-0.1,0-0.2,0
		h-0.4c-0.1,0-0.3,0-0.4-0.1c0.3-0.1,0.6-0.3,0.9-0.4c-0.3,0.1-0.6,0.3-0.9,0.4c-1.3,0.6-2.6,1.1-3.7,1.6c-0.2,0.1-0.3,0.1-0.5,0.2
		l0.7,0.2c0.5,1.1,0.8,1.9-1.4,1.8c-4-0.3-3.1,1.7-5.5,2.4c-1.1,0.3-2.7,1.4-4.2,2.3l-6.2-5h7.2l-6.2-3l2.7-0.7
		c-1-0.5-1.9-1.1-1.9-1.1l-4.4-0.6l-0.1-1.8L324,133c0,0,1.1-1.8-1.6-2.5s-5.5,1.5-5.5,1.5l-2.4-1.9c0,0-3-2.5,2.3-3.4
		s7.2-3.4,7.2-3.4S309.7,120.7,314.6,120.7z"/>
	<path class="st3" d="M506.1,118.6c0,0-2.6,0.9-2.4-1.8c0.2-2.2,5.8-3.1,7.9-3.4c0.1,0.5-0.1,0.9-0.1,0.9h9.6l-0.4,1l-3.5,0.6
		l0.7,0.5l-2,1.3l-3.9-0.3c0,0-2.5-0.8-2.9,0.4s4.1,0.6,4.1,0.6l-3.9,2l-1.2-0.6l-2.8,0.8l-3.5-0.8l0.3-0.2
		C505.1,120.7,506.1,118.6,506.1,118.6z"/>
	<path class="st4" d="M463,124.1c0.1,0,0.1,0,0.1,0H463z"/>
	<path class="st5" d="M351.3,130.5c-1.9-1.8,2.3-1.1,0.4-2.3s1.2-1.8,4.1-2.7c2.9-1,2.1-3.1,2.1-3.1l-1.8-2.3h4.7l1.5-1.9l2.9,2.6
		c0,0,5.7-2.8,4.1-0.1c-1.7,2.6,4.2,2.3,4.7,2.4c0.5,0.1,7.9-1.1,7.9-1.1s0.9-3.4,1.4-3.5c0.5,0,4.7,1.2,4.7,1.2
		c-1-0.6,1.3-2.6,1.3-2.6c0.1,0,2,1.1,5.9,0.2c3.9-1,0.3-4.4,0.3-4.4l5.6-4.3c0,0-2.6,3.1,0.4,4.8s8.3,0,8.3,0l-2.6-2.2
		c1.4,0.4,3.3-0.8,3.3-0.8c-0.5-1.6,1-2.8,1-2.8l1.8,1.1l4-1.6l2,1.9l1.1-0.3l0.5-1.9l2.2-1.2l1.6,2.6l4.7,0.3l-0.5,4l1.3,0.9
		c0,0,5.6-2.8,4.7,0.4s1.7,5,1.7,5l3.8-0.3l-0.2,2.6l3.5-0.7c0,0-2.7-0.9-0.2-2.2s6.4,1.7,6.8,1.9s4.5,0,4.5,0l-0.2-1.5
		c3.3-0.5,1.6-2.4,1.6-2.4s-0.9,1.7-3.9-0.4c-3.1-2.1,2.4-5.9,2.4-5.9l-3.2-2c0,0,1.1-0.7,1-1c0-0.3,3.8,0.6,3.8,0.6l-1-2.1l4.1,1.2
		l-1.5-0.9l1.7-1.5c0,0,3.7,3.3,5.7,3.6s0.4-1.7,0.1-1.6c-0.3,0.1-3.8-2.2,0.9-2.2c4.7,0,4.5,3.4,4.5,3.4c1.9-0.5,3.7,0.7,3.7,0.7
		l3-0.5l-0.9-1.7l4.1-1.7c0,0-2.9-2-2.5-2.1s3.8,0.2,3.8,0.2l-2.3-1.4l0.5-1.3l3.7,1.4l2.3-1.1l-1.3-0.8l0.6-0.7l5.8,1.3l-2-1.1
		l2.5-1h1.9l-1.9,2.6l3.1,2l-5.1,2.8v1.1c0,0,7.4,0.1,3,2.1c-4.4,2.1-4.6,4.4-4.6,4.4l3.2,1.2l-3.2,1.9l3.5,0.8c0,0-0.9-1.7,2.5-1.7
		s2.7,3.7,2.8,4c0.1,0.3,3.3,1.7,3.3,1.7l0.7-0.5l0.6-0.5l3.5,0.8l2.8-0.8l1.2,0.6l3.9-2c0,0-4.5,0.6-4.1-0.6
		c0.4-1.2,2.9-0.4,2.9-0.4l3.9,0.3l2-1.3l-0.7-0.5l3.5-0.6l0.4-1h-9.6c0,0,0.2-0.4,0.1-0.9c-0.1-0.4-0.3-0.8-1-1.1l1.7-0.9v-0.8
		c0,0,0.1,0,0.2,0c0.4,0,1.5-0.1,1.7-0.3c0.3-0.2,2.1,1.9,2.1,1.9l1.7-1.9l1.6,2.5v-1.3l3-0.5c0,0-1.1,3.8,0,4.9
		c1.1,1,2.2-1.1,1.9-1.1c-0.3-0.1-0.2-3.1,3.3-1.3s-0.7,4.2-0.7,4.2c2,0.3,1.9,1.9,1.9,1.9l2.8,0.8l1.3-1.6l5,0.3
		c0,0,0.2-2.6,0.6-2.5c0.4,0.1,2.6,1.5,2.6,1.5v-1.9l1.9-0.7l1.1,2.5l3,0.1v-1.1l1.2-0.3l2.7,3.2l-0.2-1.6l6.3,0.4
		c0.9,3.9,5.7,4.7,5.7,4.7s-4.8-0.8-4.2,1.3c0.6,2.2,6.3-0.2,7.2-1c0.9-0.9,2.9-0.9,2.9-0.9l4.4-0.9l1,2.3h4.4l-2.2,1.6l6.2,5h-7.2
		l6.2,3l-2.7,0.7h-0.1l-2.8-1.3h-0.1c-0.4,0.2-2.9,0.6-2.9,0.6l-0.1-1.4l-3.7-0.4l1.6,1.7l-4.8-1.2l-2.4-0.6l1,0.7l-2.8,1.6h-7.4
		v1.9h-3.4c0.4,1-1.8,1.8-1.8,1.8l1.1,0.6c-2.2-0.2-4.1-0.7-4.4-1.2c-0.5-1-1.6-1.9-1.6-1.9l-3.8,0.8l-1.1-1.7l-2-0.2l-1.4,1.1
		l-2.3-0.8v-1.4l-2.1,0.3l-5.8,3.9l-5.4-3.2l-1.1,1.1l-0.8-2.5l-4.9,0.8l1.4-2.3l-5.1,0.9l0.7-3.6c0,0-2.4,1.1-2.8,1.2
		c-0.4,0.1-3.8,0.3-3.8,0.3l0.1-1.5h-2.6l-0.8,4.9h-2.4l0.4-3.7l-4.1,1l-0.1-1.2l-0.3,0.4c0,0-4.8,0.5-5.2,0.5c-0.1,0-0.4,0-0.8,0
		c-0.1,0.1-0.2,0.3-0.2,0.4l-0.9-0.5l-2.6-1.4l-1.1,1l-2.8-0.5l0.7-2.4l-1.7-1h-3l1,3.3l-2.1,0.2c0,0,0.5-4.1-2.8-3.8
		s0.2,2.9,0.2,2.9l-3.2-0.5c0,0-1.6,2.4-1.9,2.4s-1.8-1.3-1.8-1.3s0.9-1.1,1.2-1.3c0.3-0.1-0.3-1.1-0.9-1.1s-8.1,0.4-8.1,0.4
		s-1.7-1.5,1-2.8c2.2-1,3.4-0.9,3.8-0.9c0.1,0,0.1,0,0.1,0s0,0-0.1,0c-0.8-0.2-6.6-1.3-12.5-0.7c-6.3,0.6-14.1-0.7-14.1-0.7l-12,6
		l-7.4,0.6l-1.2-4l-5.3-3l-4.5,4.4l-2.6-1l0.3,3l-2,2.6c0,0-2.9-1.5-3.2-1.7s-4.4-1.7-4.4-1.7l-5.2,1.7l3,1.5l-1.5,2.6l-4.3-0.3
		l-3.4-1.4l-0.1-1.7l-3.4,0.6l-2.4,2.4l-2.1-2.4l-3.1-0.5l-0.2-0.9l-5.2-0.1c0,0,4,1.3,2.3,2.1c-1.7,0.7-2.6-0.8-2.6-0.8l-2.5-1.7
		l-3,0.2v0.6l-3.3-0.9l-1.5,0.6l6,3.1c-2.2-0.2-4.6,0.1-5.8,1.2c-0.5,0.4-1.2,0.9-2,1.3c0.4-0.7-1-0.9-2.8-1.8
		C348.2,132,353.2,132.3,351.3,130.5z"/>
	<path class="st2" d="M356.9,128.9l3.3,0.9v-0.6l3-0.2l2.5,1.7c0,0,0.9,1.5,2.6,0.8s-2.3-2.1-2.3-2.1l5.2,0.1l0.2,0.9l3.1,0.5
		l2.1,2.4l2.4-2.4l3.4-0.6l0.1,1.7l3.4,1.4l4.3,0.3l1.5-2.6l-3-1.5l5.2-1.7c0,0,4.1,1.5,4.4,1.7s3.2,1.7,3.2,1.7l2-2.6l-0.3-3l2.6,1
		l4.5-4.4l5.3,3l1.2,4l7.4-0.6l12-6c0,0,7.8,1.4,14.1,0.7c5.8-0.6,11.6,0.6,12.5,0.7c-0.4-0.1-1.6-0.1-3.8,0.9c-2.7,1.2-1,2.8-1,2.8
		s7.5-0.4,8.1-0.4s1.2,1,0.9,1.1c-0.3,0.1-1.2,1.3-1.2,1.3s1.5,1.3,1.8,1.3s1.9-2.4,1.9-2.4l3.2,0.5c0,0-3.5-2.6-0.2-2.9
		c3.3-0.3,2.8,3.8,2.8,3.8l2.1-0.2l-1-3.3h3l1.7,1l-0.7,2.4l2.8,0.5l1.1-1l2.6,1.4c-1.2,0-2.5,0-2.5,0l1.6,2.7l3.7,2.1l-3.1,0.3
		l1.8,5l-7.4-0.2l-5.6-2.5l-4.8,3.3l-1.4,6.4c-2.5-0.2-5.3-0.3-8,0c-5.8,0.6-11.6-0.6-12.5-0.7c0.4,0.1,1.6,0.1,3.8-0.9
		c2.7-1.2,1-2.8,1-2.8s-7.5,0.4-8.1,0.4s-1.2-1-0.9-1.1c0.3-0.1,1.2-1.3,1.2-1.3s-1.5-1.3-1.8-1.3s-1.9,2.4-1.9,2.4l-3.2-0.5
		c0,0,3.5,2.6,0.2,2.9c-3.3,0.3-2.8-3.8-2.8-3.8l-2.1,0.2l1,3.3h-3l-1.7-1l0.7-2.4l-2.8-0.5l-1.1,1l-3.5-1.8
		c-0.6,2.2-6.4,2.2-6.4,2.2l-0.2-2.1l-4.1,1l0.4-3.7H411l-0.8,4.9h-2.6l0.1-1.5c0,0-3.4,0.2-3.8,0.3s-2.8,1.2-2.8,1.2l0.7-3.6
		l-5.1,0.9l1.4-2.3l-4.9,0.8l-0.8-2.5l-1.1,1.1l-5.4-3.2l-5.8,3.9l-2.1,0.3v-1.4l-2.3-0.8l-1.4,1.1l-2-0.2l-1.1-1.7l-3.8,0.8
		c0,0-1.1-0.9-1.6-1.9c-0.3-0.5-2.2-1-4.4-1.2l-6-3.1L356.9,128.9z"/>
	<path class="st4" d="M449,147.1c-0.1,0-0.1,0-0.1,0S448.9,147.1,449,147.1z"/>
	<path class="st6" d="M531.6,157.6l4.1,1.9l5.2-0.7l4.3-0.6l1.9,1.4l-6.5,1.3l-3.3,1l-4.3-2c-1.8,1.8-5.6,1.3-5.6,1.3l1.3-2.7
		c-1,1.3-5.5,1.5-5.5,1.5c-0.2,0-0.4-0.1-0.5-0.1l1.1-1.5L531.6,157.6z"/>
	<path class="st6" d="M557.2,157.6l5,1.2l2.4,2.3l3.5-1.3l0.5,1.4c0,0,2.1,0.9,2.3,0.8c0.2-0.1,2.3-1,2.3-1l-2.3-1.1l0.6-1.4l3.5,1
		c0,0,9.3-1.8,12.9-0.4c2.2,0.8,7.6,0.1,11.6-0.6l3.2,0.4c-3.3,3.2-10.5,4.9-13.2,5.4c1.7-0.6,2.4-2.4,2.4-2.4s-1.5,2.1-5.5,1.3
		s-7.2,0.5-7.2,0.5v4.2c0,0-3.5-3.7-6.2-3.4c-1.5,0.2-2.7,1.1-3.6,1.9c-0.6-0.6-1.2-1.1-1.2-1.1l-0.6-1.4H565l-2.1-0.5v-1.7
		l-0.6-1.2l-1.7,1.3l-3.4-2.4l-4.3-0.3l-2-0.9L557.2,157.6z"/>
	<path class="st7" d="M450.7,154.7c4.4,2.5,8.2,0.1,15-0.2s10.4,1.6,10.4,1.6c3.2-1.7,7.7-1.9,7.7-1.9c-2.3,0.8,0,2.2,0,2.2
		c6.3-1.3,15.6-0.5,15.6-0.5l-2.8-2.3l4.9,1l1-2.6l2.6,1.7l1.5-0.2l1-1.3l1.5,1.2l1.3-0.2l1,1.2l3.2,0.6l2.4-0.7l4.1,0.6l1,1.8
		c1.5,0,1.1-2.2,1.1-2.2c3.9-0.4,10.5,1.9,10.5,1.9s3.7-4.6,5.9-3.2c2.2,1.5,9-5.6,13.3-2.4c4.3,3.3,6.3,3.5,7.9,3.1
		c1.6-0.4-1.5-4-1.5-4c5.4,2.1,10.2-0.5,14.5-1.6s0.7,4.6,0.2,6s5,3.7,5,3.7c1.5-3.2,10.9-2.6,10.9-2.6c1.2,0,9.2-6.4,9.2-6.4
		c0.5,1.3-1.5,5.5-1.5,5.5c2.8,0.4,11.1-1.2,11.1-1.2c-0.2,2.3-10.2,5-10.2,5l1.2,0.1c-4,0.7-9.4,1.4-11.6,0.6
		c-3.7-1.4-12.9,0.4-12.9,0.4l-3.5-1l-0.6,1.4l2.3,1.1c0,0-2.1,0.9-2.3,1s-2.3-0.8-2.3-0.8l-0.5-1.4l-3.5,1.3l-2.4-2.3l-5-1.2
		l-6.3,0.7l2,0.9l3.3,1.5l-8.8-0.8l-0.3-0.2l-1.9-1.4l-4.3,0.6l-5.2,0.7l-4.1-1.9l-7.7,0.8l-1.1,1.5c-3-0.4-4.2,0.9-4.2,0.9
		c-1.1,1.1,1.7,3,1.7,3c-2.7,1.3-12.3-2.6-12.3-2.6l0.7,2.6l-5.1-0.9l-2.9-3.3l-6.6,0.1l0.6,2.7l-1.5-0.1v-2.6l-2.9-1.1l-0.6,1.5
		l-1.5-1.4l-3.1,0.4l-0.6,1.1l-6.6-0.9l-3.8,1.3l-2-1.2l2.7-1.3l-5.6-1.2l-3.5-1.1l-2.2,1.3l-4,0.3l-4,0.7l-2.3,1.1
		c0,0,0.5-0.6-2.7-2.7c-3.2-2.1-11.3-1.4-11.3-1.4S446.3,152.3,450.7,154.7z"/>
	<path class="st8" d="M560.6,161.9l1.7-1.3l0.6,1.2v1.7l2.1,0.5h2.6l0.6,1.4c0,0,0.6,0.5,1.2,1.1c-0.7,0.7-1.1,1.3-1.3,1.5l-1.2,1.2
		l2.7,0.8l-2.6,0.9l-3.9-3.1l-3.1,0.1l2.3,1.3h-3.4l-2.7-1.1l-3.7,1.1c0,0,0.4-1.6,0.4-2s-4.1-1.3-4.1-1.3l3.9-2l-7.1-2.9
		c-0.6,1.3-5.4,1.9-5.4,1.9c1.3,0.3,2.9,3.8,2.9,3.8l-2-1.1l-1,1.5l-2-0.3l0.1-2.6l-1.6-1l0.9-1.2l-0.3-0.2l3.3-1l6.5-1.3l0.3,0.2
		l8.8,0.8l-3.3-1.5l4.3,0.3L560.6,161.9z"/>
</g>
</svg>
