<?xml version="1.0" encoding="utf-8"?>
<!-- Generator: Adobe Illustrator 23.0.6, SVG Export Plug-In . SVG Version: 6.00 Build 0)  -->
<svg version="1.1" id="Layer_1" xmlns="http://www.w3.org/2000/svg" xmlns:xlink="http://www.w3.org/1999/xlink" x="0px" y="0px"
	 viewBox="0 0 580 1080" style="enable-background:new 0 0 580 1080;" xml:space="preserve">
<style type="text/css">
	.st0{fill:#963342;}
	.st1{fill:#B13D45;}
	.st2{fill:url(#SVGID_1_);}
	.st3{fill:url(#SVGID_2_);}
	.st4{fill:url(#SVGID_3_);}
	.st5{fill:url(#SVGID_4_);}
	.st6{fill:url(#SVGID_5_);}
	.st7{fill:url(#SVGID_6_);}
	.st8{fill:url(#SVGID_7_);}
	.st9{fill:url(#SVGID_8_);}
	.st10{fill:url(#SVGID_9_);}
	.st11{fill:#A6394E;}
	.st12{fill:#752740;}
	.st13{fill:#AE3C50;}
	.st14{fill:#8F253E;}
	.st15{fill:#741A37;}
	.st16{fill:#691B39;}
	.st17{fill:#621937;}
	.st18{fill:#7B263D;}
	.st19{fill:#73213C;}
	.st20{fill:#5C1435;}
	.st21{fill:#7A1E3A;}
	.st22{fill:#77253F;}
	.st23{fill:#440D27;}
	.st24{fill:#730F2F;}
	.st25{fill:#5A0F2F;}
	.st26{fill:#5C193B;}
	.st27{fill:#440C2C;}
	.st28{fill:#480625;}
	.st29{fill:#561738;}
	.st30{fill:#571836;}
	.st31{fill:#501331;}
	.st32{fill:#380F2B;}
	.st33{fill:#8A102D;}
	.st34{fill:#4A0A2A;}
	.st35{fill:#3D0A2A;}
	.st36{fill:#4A0C28;}
	.st37{fill:#841F3B;}
	.st38{fill:#5A1235;}
	.st39{fill:#430A2A;}
	.st40{fill:#531933;}
	.st41{fill:#A12A40;}
	.st42{fill:#A32F43;}
	.st43{fill:#C23D45;}
	.st44{fill:#AD3041;}
	.st45{fill:#DF9F87;}
	.st46{fill:#881A35;}
	.st47{fill:#A1293C;}
	.st48{fill:#B73845;}
	.st49{fill:#C7394D;}
	.st50{fill:#C84C4D;}
	.st51{fill:#AB313F;}
	.st52{fill:#D24B52;}
	.st53{fill:none;}
	.st54{fill:#982D41;}
	.st55{fill:#AC2B3E;}
	.st56{fill:#E55551;}
	.st57{fill:#FB7B67;}
	.st58{fill:#79243D;}
	.st59{fill:#6E1B34;}
	.st60{fill:#4F1232;}
	.st61{fill:#470C2C;}
	.st62{fill:#561433;}
	.st63{fill:#681933;}
	.st64{fill:#551234;}
	.st65{fill:#70213B;}
	.st66{fill:#6C1E35;}
	.st67{fill:#80263C;}
	.st68{fill:#651D39;}
	.st69{fill:#72243B;}
	.st70{fill:#AD3848;}
	.st71{fill:#7E243C;}
	.st72{fill:#631532;}
	.st73{fill:#5A1937;}
	.st74{fill:#571331;}
	.st75{fill:#9B3141;}
	.st76{fill:#B83C4B;}
	.st77{fill:#7E2037;}
	.st78{fill:#5A1935;}
	.st79{fill:#DB4E5B;}
	.st80{fill:#85243C;}
	.st81{fill:#C8484F;}
	.st82{fill:#CE4853;}
	.st83{fill:#8D273F;}
	.st84{fill:#CE4752;}
	.st85{fill:#9E2F42;}
	.st86{fill:#D24E58;}
	.st87{fill:#AA3549;}
	.st88{fill:#7D223B;}
	.st89{fill:#AF3149;}
	.st90{fill:#C43E49;}
	.st91{fill:#A73B4C;}
	.st92{fill:#CE4354;}
	.st93{fill:#722038;}
	.st94{fill:#D94D55;}
	.st95{fill:#78273C;}
	.st96{fill:#300621;}
	.st97{fill:#421230;}
	.st98{fill:#491333;}
	.st99{fill:#370725;}
	.st100{fill:#500D30;}
	.st101{fill:#46092A;}
	.st102{fill:#550928;}
	.st103{fill:#340C2A;}
	.st104{fill:#471031;}
	.st105{fill:#2F0122;}
	.st106{fill:#5B122D;}
	.st107{fill:#360A2C;}
	.st108{fill:#330825;}
	.st109{fill:#400525;}
	.st110{fill:#3D0F2F;}
	.st111{fill:#460F30;}
	.st112{fill:#521030;}
	.st113{fill:#440C2B;}
	.st114{fill:#601032;}
	.st115{fill:#5C0F2C;}
	.st116{fill:#630A2B;}
	.st117{fill:#550D2C;}
	.st118{fill:#661030;}
	.st119{fill:#7B0F30;}
	.st120{fill:#580729;}
	.st121{fill:#630628;}
	.st122{fill:#660F2F;}
	.st123{fill:#83102F;}
	.st124{fill:#490528;}
	.st125{fill:#790C29;}
	.st126{fill:#F72D3F;}
	.st127{fill:#3D0320;}
	.st128{fill:#860324;}
	.st129{fill:#9E0F30;}
	.st130{fill:#B51D31;}
	.st131{fill:#A40F29;}
	.st132{fill:#370D2F;}
	.st133{fill:#E12E3D;}
	.st134{fill:#85132D;}
	.st135{fill:#810C2E;}
	.st136{fill:#821B32;}
	.st137{fill:#F72A3F;}
	.st138{fill:#D42436;}
	.st139{fill:#59082A;}
	.st140{fill:#6F0F2C;}
	.st141{fill:#841230;}
	.st142{fill:#770F2C;}
	.st143{fill:#481031;}
	.st144{fill:#4A0F2C;}
	.st145{fill:#6A0F2D;}
	.st146{fill:#6F0F2A;}
	.st147{fill:#6C0F2F;}
	.st148{fill:#710D2C;}
	.st149{fill:#710A2A;}
	.st150{fill:#69042A;}
	.st151{fill:#72092A;}
	.st152{fill:#78102A;}
	.st153{fill:#3D0D2D;}
	.st154{fill:#BF273B;}
	.st155{fill:#D9213B;}
	.st156{fill:#F02133;}
	.st157{fill:#811D32;}
	.st158{fill:url(#SVGID_10_);}
	.st159{fill:url(#SVGID_11_);}
	.st160{fill:url(#SVGID_12_);}
	.st161{fill:url(#SVGID_13_);}
	.st162{fill:url(#SVGID_14_);}
</style>
<g>
	<g>
		<polygon class="st0" points="70.2,898.4 0,839.5 0,1056.6 184.4,1004.5 206.1,965.9 92.8,965.9 		"/>
		<polygon class="st1" points="168.2,687.6 82.7,611.6 174.5,464.7 542.5,471.9 541.1,468.2 523.4,454.1 494.7,451.3 365.1,425 
			71.1,425 0,434.1 0,794.3 133.7,714.4 		"/>
		
			<linearGradient id="SVGID_1_" gradientUnits="userSpaceOnUse" x1="-52.3822" y1="277.4" x2="497.2037" y2="277.4" gradientTransform="matrix(1 0 0 -1 0 1080)">
			<stop  offset="0" style="stop-color:#963342"/>
			<stop  offset="0.997" style="stop-color:#691D31"/>
		</linearGradient>
		<polygon class="st2" points="468.1,639.3 413.8,687.6 335.4,826.1 265.7,855 161.4,898.4 60.7,771.1 133.7,714.4 0,794.3 0,839.5 
			70.2,898.4 92.8,965.9 206.1,965.9 215,949.9 281.9,910.6 383.9,850.5 450.7,726.9 470.4,672.9 		"/>
		
			<linearGradient id="SVGID_2_" gradientUnits="userSpaceOnUse" x1="-156.5269" y1="398.5" x2="620.3665" y2="398.5" gradientTransform="matrix(1 0 0 -1 0 1080)">
			<stop  offset="0" style="stop-color:#54182A"/>
			<stop  offset="0.997" style="stop-color:#691D31"/>
		</linearGradient>
		<path class="st3" d="M542.5,471.9l-368-7.3l-91.8,147l85.5,76l-34.5,26.8l-73,56.7l100.7,127.3L265.7,855l69.7-28.9l78.4-138.5
			l54.3-48.3l-0.3-4.8l36.2-76.6l21.4,19.4l3-4.7l14.8-32.5l1.2-63.1L542.5,471.9z M495.1,498.2l-33.4,67.1l-93.8,68.1l-66.5,128.7
			l-63.3-2.7l-13.5-0.6l-33,20.6l33.5-64.8l9.6-18.5L256,589.3L144.3,569l47.2-80l303.6-16.2V498.2z"/>
		
			<linearGradient id="SVGID_3_" gradientUnits="userSpaceOnUse" x1="179.8116" y1="384.6211" x2="380.8677" y2="595.4616" gradientTransform="matrix(1 0 0 -1 0 1080)">
			<stop  offset="0" style="stop-color:#B13D45"/>
			<stop  offset="0.997" style="stop-color:#B34345"/>
		</linearGradient>
		<polygon class="st4" points="191.5,489 144.3,569 256,589.3 234.5,696.1 225,714.7 191.5,779.5 224.5,758.9 238,759.5 
			301.3,762.1 367.8,633.4 461.7,565.3 495.1,498.2 495.1,472.9 		"/>
	</g>
	<g>
		
			<linearGradient id="SVGID_4_" gradientUnits="userSpaceOnUse" x1="316.6" y1="567.4" x2="544.4" y2="567.4" gradientTransform="matrix(1 0 0 -1 0 1080)">
			<stop  offset="0" style="stop-color:#FFBD94"/>
			<stop  offset="1" style="stop-color:#F59173"/>
		</linearGradient>
		<polygon class="st5" points="541.1,468.2 523.4,454.1 495.1,451.4 428,454.3 413.8,451.3 347.2,508.2 355.7,482.4 324.7,506.9 
			316.6,541.5 337.6,571.4 386.5,500.6 407.2,518 458.4,488.9 499,527.8 540,480.2 527.7,573.9 543.2,539.9 544.4,476.8 		"/>
		
			<linearGradient id="SVGID_5_" gradientUnits="userSpaceOnUse" x1="34.6" y1="591" x2="130.7" y2="591" gradientTransform="matrix(1 0 0 -1 0 1080)">
			<stop  offset="0" style="stop-color:#F36F74"/>
			<stop  offset="1" style="stop-color:#F59B94"/>
		</linearGradient>
		<path class="st6" d="M130.1,493.6l-3.2-26.3h-0.7l-36.4,10.5l-17.2-25.6c0,0-11.1,21.9-29.6,39.5c-2.6,2.5-5.5,4.5-8.4,6.1
			l19.5,14.4l15.2-10.6h15.4l25.3,24.2l20.7-26.6L130.1,493.6z"/>
		
			<linearGradient id="SVGID_6_" gradientUnits="userSpaceOnUse" x1="234.5" y1="597.4" x2="413.8" y2="597.4" gradientTransform="matrix(1 0 0 -1 0 1080)">
			<stop  offset="0" style="stop-color:#FF8C84"/>
			<stop  offset="1" style="stop-color:#FFAA93"/>
		</linearGradient>
		<polygon class="st7" points="413.8,451.3 364.8,440.9 249.8,460.4 248.7,460.5 256,483.3 234.5,504.2 251.7,524.3 292.8,523.4 
			310.6,518 324.7,506.9 355.7,482.4 347.2,508.2 		"/>
		
			<linearGradient id="SVGID_7_" gradientUnits="userSpaceOnUse" x1="127" y1="597.1" x2="256" y2="597.1" gradientTransform="matrix(1 0 0 -1 0 1080)">
			<stop  offset="0" style="stop-color:#F36F74"/>
			<stop  offset="1" style="stop-color:#EA656B"/>
		</linearGradient>
		<polygon class="st8" points="248.7,460.5 127,467.3 130.1,493.6 233.4,505.3 234.5,504.2 256,483.3 		"/>
		
			<linearGradient id="SVGID_8_" gradientUnits="userSpaceOnUse" x1="0" y1="615.3898" x2="495.1" y2="615.3898" gradientTransform="matrix(1 0 0 -1 0 1080)">
			<stop  offset="0" style="stop-color:#ED686D"/>
			<stop  offset="1" style="stop-color:#F79693"/>
		</linearGradient>
		<path class="st9" d="M494.7,451.3L365.1,425h-294L0,434.1V504c8.2,0.6,22.5,0.4,34.7-6.2c3-1.6,5.8-3.6,8.4-6.1
			c18.5-17.6,29.6-39.5,29.6-39.5l17.2,25.6l36.4-10.5h0.7l121.7-6.8l1.1-0.1l115-19.5l49,10.4l14.2,3l67.1-3H494.7z"/>
	</g>
</g>
<g>
	<linearGradient id="SVGID_9_" gradientUnits="userSpaceOnUse" x1="382.2566" y1="462.5623" x2="86.5866" y2="166.9271">
		<stop  offset="0" style="stop-color:#24021A"/>
		<stop  offset="0.3262" style="stop-color:#2D021D"/>
		<stop  offset="1" style="stop-color:#3D0222"/>
	</linearGradient>
	<path class="st10" d="M414.8,287.4l-63.9-6.4l-22.4-9.8l-11.3-0.4l-0.7-0.4l0.9-27.3C328.5,242,337,240,337,240
		c11.4,1,27.4-6.7,27.4-6.7c7.8-0.1,17.1-8.3,17.1-8.3s3.5,0.1,5.6,0.2c1.9,0.1,26.3-17.6,26.3-17.6s-6.6-2-29.1,5.5
		c-2,2.3-2,2.2-0.1,0c-0.5,0.2-0.9,0.3-1.4,0.5l-12.9-0.1l-3.2-1.4l-0.5,1.4l-14.4-0.1l0.1,0.1H345l-0.3-0.1l9.1-11.1
		c0,0-6,2.7-14.6,2.3c-7.3-0.4-18.4-1.4-21.6-1.7c0,0,0,0,0,0c-0.5-0.1-0.8-0.1-0.8-0.1s-0.2,0-0.6-0.2c0,0,0,0,0,0
		c-4.3-1.8-48.8-26.1-48.8-26.1c-0.3-0.2-0.7-0.5-1-0.7c0,0,0,0.1,0.1,0.1c-5.2-3.6-10.1-7.2-14.8-11c2.6,8.1,2.6,8.2,0,0.1
		c-0.2-0.2-0.4-0.3-0.6-0.5l-0.1,0.1c-0.4-0.3-0.8-0.6-1.2-1c0,0-0.7-0.6-0.8-1.5c-2.4,0.5-2.3,0.4,0.1-0.2c0-0.5,0.2-1.1,0.8-1.7
		c0.3-0.3,0.7-0.7,1.3-1l-7.2-1.6c0,0,0-0.1,0-0.4l0.2,0c0,0,0,0,0,0l3.8,0.5l1-2.7l-3.4-0.1c0,0,0,0,0,0l-0.2-0.1
		c0.5-0.3,1.1-0.6,1.9-0.8l-5.7-0.8l0.2-5.9l1.7,0.1l0.1-3.1l-4.1-0.1l-3.1-0.1v3l1.6,0.1l-0.1,5.6l-7.7-0.7l-0.5,2.3l-6-0.2
		l5.8,0.9v0.1c0,0,1.8,0.8,1.6,1.9h-5.5c0,0,1.2,2.1,2,4.5c2.2,1,2,1,0.1,0.1c0.4,1.3,0.8,2.7,0.8,3.9l-0.1,0c0,0.5-0.1,1-0.2,1.4
		c-0.1,0.3-0.7,0.9-1.6,1.6c-0.2-1-0.5-2.1-1-3c0,0,0,0,0,0c-0.5-0.7-1-1.1-1.8-1.3c0,0-45.5,28.9-69,33.4c-23.4,4.4-30,2-33.7-2
		l7.1,11.4l-28.8,0.1L74,198.6c-0.1-0.1-0.2-0.1-0.3-0.2l-0.6-0.2l-10.6-0.6c0,0,1.1,0.8,2.9,2c-1.8-1.2-2.9-2-2.9-1.9
		c33.4,26,70.5,34.8,93.7,37.7l-0.9,29.3l-2.3,0.4l-0.2-0.1l-0.5,0.1l-2.3,0.7l-31.8,9.3l-19.9,0.9l-27.9,1.3l-1.6,2.5l-3.2,2.7
		l0.9,4.2l13.8,1l1.5,3l10.5,0.7l2.3,2.8l14,0.9l-0.1,3l3,0.1l-0.1,2.6l4,0.1l-1.8,56.5L67.6,361l0.1,24l18.5-1.5l1.2,14.8
		c-4.8,3.3-5.6,8.7-5.7,11.4c0,0.4,0,0.8,0,1.1c0,0.4,0,0.6,0,0.6c-10.4,5.5-9.3,20.4-9.3,20.4l-3,4.2l18.6-1.2l0.2-0.1l14.1-0.9
		l0,0l42.6-2.7h0.5l16.5-1c0,0,0,0,0,0c0,0,0,0,0,0l9.8-0.6l0,0l9.7-0.6l17.4-1.1l0.7-0.1l51.4-1.7l12.8-0.4l35,0.7l0.3,0.4
		l12.8,4.5l27.7,6l8,0.2l0-1.7l2.2,2.3l2.6,0.1l3.7,2l29.5,5.9l0.6,0.5l8.8,2.1l7.5,0.5l0.5-13.6l-0.9-1c1.5-0.7,2.6-2,2.6-3.5
		c0.1-2.4-2.3-4.4-5.3-4.5c-1.4,0-2.8,0.4-3.8,1.1L373.9,404l-2.7-10.2l23.9-1.7l-3.8-29.5l-35.2-2.7l1.6-52.2l4.5,0.1l0.1-4.6
		l3,0.1l0.1-2.7l14.3,0.4l0.1-3.2l13.3,0.4l0.1-2.6l15.4,0.5l0.2-5.5l6.1-3.3C410.8,287.9,410.8,287.9,414.8,287.4z M141.2,355.6
		l-16.6,1.2l1.7-55.4l4.1,0.1l0.1-2.6l1,0l0.1-2.5L143,297L141.2,355.6z M166.9,236.5c6.3,0.4,10.6,0.4,11.9,0.3c0.1,0,0.2,0,0.3,0
		l-0.8,25.3l-9,1.1c0,0,0,0,0,0l-3.3,0.3L166.9,236.5z M210.4,352.2l-22.8,0l-35.4,2.6l1.2-38.7l14.2-5.9l22.9-2.7l21,9.6
		L210.4,352.2z M221.7,256.8l-32.6,3.8l0.7-21.2c0.3-0.1,1.1-0.4,2.2-0.7c0.1,0,0.2-0.1,0.3-0.1c10.6,4,21.7,2.8,29.9,0.7
		L221.7,256.8z M234.3,238.6c0.3,0,0.6,0,0.9,0l-0.1,3.3l0.7,0l-0.1,2.4l4.9,0.2l-0.4,13.6c-1.8-0.2-3.6-0.5-5.1-0.7l0,0
		c-0.3-0.1-0.9-0.2-1.3-0.2L234.3,238.6z M241,352.2l-12.9,0l1.5-47.3l9.6,0.3l-0.1,3.4l0.3,0l-0.2,6.2l1.7,0.1l-0.1,1.9l1.2,0
		L241,352.2z M296.8,243.1c1.8,0.2,3.6,0.3,5.4,0.3c0.5,0.1,0.9,0.2,1.3,0.2c1.1,0,2.2,0,3.3,0l-0.7,21.7c-0.2,0-0.4,0-0.6-0.1
		l0.6,0.3l0,0.2l-0.7-0.4c-0.8-0.1-1.9-0.3-3.1-0.4l-0.2-0.1c-0.4,0-0.8-0.1-1.2-0.1c-1.4-0.2-3-0.3-4.8-0.5L296.8,243.1z
		 M253.9,244.9l1.2,0l0.1-2.4l2.4,0.1l0.1-4.5c10.3-0.8,17.7-2,17.7-2c0.1,0.1,0.2,0.1,0.3,0.2l0.1-0.1c2.8,2.1,6.1,3.7,9.9,4.8
		l-0.7,22.1c-0.3,0-0.6-0.1-0.9-0.1c-0.5,0-0.9-0.1-1.3-0.1l-0.2,0.1c-2.7-0.4-26.5-3-29.2-3.3L253.9,244.9z M318.4,358.5l-4.3,0.1
		h0l-0.3,10.8l-18.5-0.6l-6.9-7.9l-10.1-8.4c0.8-0.6,1.2-1.5,1.3-2.4c0.1-2-1.9-3.8-4.5-3.8c-2.5-0.1-4.6,1.5-4.7,3.6
		c0,0.9,0.3,1.7,0.9,2.3l-14,0l1.1-35l4.9,0.2l0.1-1.9l2.1,0.1l0.2-6.2c14.2-1,29.3-2.5,42.9-3.9c2.4,1.7,8,5.6,11.2,7.9
		L318.4,358.5z M344.8,359.1l-13.3-1l-1.5,0.1c0.9-0.6,1.5-1.6,1.5-2.6c0-1.1-0.6-2.2-1.6-2.9l0.6-19.3l0.9-27.6l5.9-3.5
		c1.4-0.2,2.8-0.3,4-0.5l0,0.9l2.3,0.1l-0.1,4.6l2.8,0.1L344.8,359.1z"/>
	<g>
		<g>
			<g>
				<g id="Stairs_8_">
					<polygon class="st11" points="387.5,446.4 356,440.1 383.2,440.9 					"/>
					<polygon class="st12" points="383.2,440.9 381.2,439 352.3,438.1 356,440.1 					"/>
					<polygon class="st13" points="381.2,439 374.3,434.6 346.5,434.6 349.7,438 					"/>
					
						<rect x="298.4" y="361.4" transform="matrix(3.127962e-02 -0.9995 0.9995 3.127962e-02 -80.0436 665.1506)" class="st14" width="9.4" height="25"/>
					
						<rect x="309.6" y="368.7" transform="matrix(3.127962e-02 -0.9995 0.9995 3.127962e-02 -77.3128 684.7365)" class="st15" width="9.9" height="27.1"/>
					
						<rect x="318.7" y="378.7" transform="matrix(3.127962e-02 -0.9995 0.9995 3.127962e-02 -77.4336 701.0583)" class="st16" width="8.5" height="23.5"/>
					<polygon class="st17" points="336.5,393.8 341,400.9 315.3,400.1 315.5,393.2 					"/>
					<polygon class="st18" points="346.5,399.4 346.5,408 321,407.2 321.3,398.6 					"/>
					<polygon class="st19" points="352,406.9 352.3,413.7 328.9,412.9 329.1,406.4 					"/>
					<polygon class="st20" points="356.3,412.2 358.1,421.7 333.9,420.9 332.1,411.9 					"/>
					
						<rect x="348.6" y="413" transform="matrix(3.127962e-02 -0.9995 0.9995 3.127962e-02 -82.969 764.7075)" class="st21" width="8.9" height="24.3"/>
					<polygon class="st22" points="372.9,429.2 372.7,435 347.3,434.2 347.5,428.1 					"/>
				</g>
				<path class="st23" d="M68.8,279.9c0,0,41.2,11.4,91.3,2c0.7-0.1,1.4-0.3,2.1-0.4l0,0c13.6-2.7,27.9-6.9,42.1-13.4l9.8,0.3
					c0,0,21.6,9.2,58.9,15.9c35.1,6.4,84,10.6,141.9,3.1l-6.1,3.3l-0.2,5.5l-15.4-0.5l-0.1,2.6l-13.3-0.4l-0.1,3.2l-26.3-0.8
					c0,0-6.2,0.8-16.1,2l-7.7,4.6l0.3-3.7c-2.3,0.3-4.7,0.5-7.2,0.8l-0.7,11c-0.5-0.4-10.1-7.2-13.4-9.5c-13.7,1.4-28.8,2.9-43,3.9
					l-22.6-0.7l-3.9-0.1l0.1-3.4l-11.2-0.3l-14.2,13.3l-23.4-10.7l-22.9,2.7l-17.2,7.2l-5.3-20.3l-25.4-1.1l-25-1.7l-2.3-2.8
					l-10.5-0.7l-1.5-3l-13.8-1l-0.9-4.2L68.8,279.9z"/>
				<g id="Lower_towers_8_">
					<g>
						<polygon class="st24" points="329.7,360.6 331.9,289.8 328.4,289.7 320.5,289.5 318.3,360.2 						"/>
						
							<rect x="293.7" y="323.3" transform="matrix(3.127962e-02 -0.9995 0.9995 3.127962e-02 -6.1413 643.8582)" class="st25" width="70.8" height="3.5"/>
					</g>
					<g>
						
							<rect x="191.9" y="316.6" transform="matrix(3.127962e-02 -0.9995 0.9995 3.127962e-02 -101.9669 535.6262)" class="st26" width="66.9" height="7.6"/>
					</g>
					<g>
						<polygon class="st24" points="355.8,367.8 357.7,307.7 354.3,307.6 346.3,307.3 344.5,367.5 						"/>
						
							<rect x="325" y="335.9" transform="matrix(3.127962e-02 -0.9995 0.9995 3.127962e-02 6.4441 681.9904)" class="st25" width="60.2" height="3.5"/>
						
							<rect x="350.7" y="296" transform="matrix(3.127962e-02 -0.9995 0.9995 3.127962e-02 36.7309 648.5718)" class="st27" width="4.5" height="18.7"/>
						<polygon class="st28" points="362.4,303.3 365.3,303.4 365.7,291.4 341.7,290.7 341.3,302.7 343.7,302.7 						"/>
					</g>
					<g>
						
							<rect x="235.6" y="332.6" transform="matrix(3.127962e-02 -0.9995 0.9995 3.127962e-02 -88.7428 579.8837)" class="st29" width="38.3" height="6.2"/>
						
							<rect x="250.8" y="304.4" transform="matrix(3.127962e-02 -0.9995 0.9995 3.127962e-02 -71.233 557.8517)" class="st27" width="2.8" height="22.5"/>
						
							<rect x="248.8" y="298.3" transform="matrix(3.127962e-02 -0.9995 0.9995 3.127962e-02 -66.7575 554.1002)" class="st30" width="7.4" height="26.3"/>
					</g>
					<g>
						<polygon class="st24" points="252.3,354.8 254.7,277 251.2,276.9 243.3,276.6 240.9,354.4 						"/>
						
							<rect x="212.8" y="314" transform="matrix(3.127962e-02 -0.9995 0.9995 3.127962e-02 -71.7198 557.5243)" class="st25" width="77.9" height="3.5"/>
					</g>
					<g>
						<polygon class="st24" points="221.7,353.8 223.5,292.3 220.2,292.2 212.2,292 210.3,353.5 						"/>
						
							<rect x="190.1" y="321.2" transform="matrix(3.127962e-02 -0.9995 0.9995 3.127962e-02 -108.7367 533.647)" class="st25" width="61.6" height="3.5"/>
						<polygon class="st31" points="226,287.5 223.5,292.3 212.2,292 210.2,287 						"/>
						<polygon class="st32" points="223.5,292.3 228.5,291.4 233.5,287.7 234.3,266.4 230.5,266.3 229.8,287.6 226,287.5 						"/>
						
							<rect x="202.7" y="268.2" transform="matrix(3.127962e-02 -0.9995 0.9995 3.127962e-02 -70.5146 466.0221)" class="st33" width="5" height="2.3"/>
						
							<rect x="206.4" y="266.9" transform="matrix(3.127962e-02 -0.9995 0.9995 3.127962e-02 -67.0437 469.9499)" class="st33" width="5" height="5.3"/>
						<polygon class="st34" points="218.7,268.6 218.7,268.1 218.8,266.1 230.5,266.5 230.3,274.7 229.8,287.6 205.8,286.9 
							206,276.3 218.4,276.7 						"/>
						<polygon class="st35" points="206.4,267 206.5,265.7 217.3,266.1 217.2,268 217,274.3 206.2,273.9 206.3,272 211.5,272.2 
							211.7,267.2 						"/>
						<polygon class="st36" points="217,274.3 217.2,268 217.3,266.1 218.8,266.1 218.7,268.1 218.7,268.6 218.4,276.7 206,276.3 
							206.2,273.9 						"/>
					</g>
					<g>
						
							<rect x="112.7" y="325.3" transform="matrix(3.127962e-02 -0.9995 0.9995 3.127962e-02 -187.6066 463.0265)" class="st37" width="64.8" height="6"/>
						
							<rect x="118" y="325.8" transform="matrix(3.127962e-02 -0.9995 0.9995 3.127962e-02 -182.5347 468.3751)" class="st38" width="64.8" height="5.2"/>
					</g>
					<g>
						
							<rect x="85.3" y="324.4" transform="matrix(3.127962e-02 -0.9995 0.9995 3.127962e-02 -213.2198 434.7601)" class="st37" width="64.8" height="6"/>
						
							<rect x="89.9" y="324.2" transform="matrix(3.127962e-02 -0.9995 0.9995 3.127962e-02 -208.8898 439.4583)" class="st38" width="64.8" height="6.5"/>
						
							<rect x="119.7" y="290.4" transform="matrix(3.127962e-02 -0.9995 0.9995 3.127962e-02 -182.5203 411.4621)" class="st39" width="2.7" height="19"/>
						
							<rect x="118.3" y="285.4" transform="matrix(3.127962e-02 -0.9995 0.9995 3.127962e-02 -180.4047 407.5732)" class="st23" width="3.5" height="23"/>
					</g>
				</g>
				<g id="Bottom_8_">
					<polygon class="st40" points="395.1,392.2 371.2,393.9 374.7,407.1 357.1,388.2 					"/>
					<path class="st41" d="M357.1,388.2c0.3-0.1,38,4,38,4l-3.8-29.5l-59.8-4.6L357.1,388.2z"/>
					<polygon class="st42" points="402.4,449.1 394.9,448.6 395.8,434.9 402.9,435.5 					"/>
					<path class="st43" d="M394.9,448.6l-8.8-2.1L372.7,435l0.2-5.7l-7.4-0.2l-0.9-7.4l-6.6-0.2l-1.5-8.9l-4.6,0.2l-0.4-5.3
						l-4.8-0.2l-0.3-7.5l-6.3-0.2c-1.9-1.9-3.7-3.9-5.6-5.8c0-2.1-0.1-4.3-0.1-6.4c-2.2-0.1-4.4-0.1-6.5-0.2l0.3-8.8l-14.7-0.5
						l0.6-19.2l15.7,0.5l66,75.7L394.9,448.6z"/>
					<polygon class="st44" points="402.9,435.5 331.5,358.1 314.1,358.7 329.8,359.2 395.8,434.9 					"/>
					
						<ellipse transform="matrix(3.127962e-02 -0.9995 0.9995 3.127962e-02 -43.7722 816.3546)" class="st45" cx="399.3" cy="430.8" rx="4.3" ry="5.4"/>
					
						<ellipse transform="matrix(3.127962e-02 -0.9995 0.9995 3.127962e-02 -38.4305 671.0193)" class="st45" cx="327" cy="355.3" rx="3.7" ry="4.6"/>
					<polygon class="st46" points="347.7,430.4 347.5,437.4 339.5,437.2 339.8,428.9 347.7,429.1 					"/>
					<polygon class="st47" points="299,426.7 260.3,377.8 277.5,378.3 					"/>
					<polygon class="st48" points="339.8,428.9 314,406.9 285.5,362.3 271.4,352.3 278.1,352.5 288.4,361.1 347.7,429.1 					"/>
					<polygon class="st49" points="314,406.9 271.4,352.3 285.5,362.3 					"/>
					<polygon class="st50" points="339.5,437.2 311.8,431.2 305,407.6 314,406.9 339.8,428.9 					"/>
					<polygon class="st51" points="311.8,431.2 299,426.7 269.8,365.9 305,407.6 					"/>
					<polygon class="st52" points="305,407.6 314,406.9 271.4,352.3 269.8,365.9 					"/>
					
						<ellipse transform="matrix(3.127962e-02 -0.9995 0.9995 3.127962e-02 -91.3235 755.2007)" class="st45" cx="343.9" cy="424.7" rx="4.3" ry="5.4"/>
					
						<ellipse transform="matrix(3.127962e-02 -0.9995 0.9995 3.127962e-02 -83.4708 614.0497)" class="st45" cx="275" cy="350.1" rx="3.7" ry="4.6"/>
					<polygon class="st53" points="208,386.7 204.2,388.4 204,387.6 					"/>
					<polygon class="st53" points="127.7,375.8 128.4,378.1 127.8,378.2 					"/>
					<path class="st54" d="M145.4,431.1h-0.5c0.1-0.1,0.2-0.2,0.4-0.3C145.3,430.9,145.3,431,145.4,431.1z"/>
					<polygon class="st55" points="271.4,352.3 187.5,352.2 206.3,373.6 260.3,377.8 277.5,378.3 					"/>
					<polygon class="st56" points="187.5,352.2 67.7,385 206.3,373.6 					"/>
					<polygon class="st57" points="67.7,385 67.6,361 187.5,352.2 					"/>
					<g>
						<polygon class="st58" points="260.4,375 263.7,425.6 302.5,426.4 						"/>
						<polygon class="st59" points="224.5,400.5 226.3,385.8 228.5,385.4 226.3,385.8 227.5,375.4 240.5,393.3 						"/>
						<path class="st60" d="M242.2,395.4l-2.6,3.6c-0.9-1-1.5-1.7-1.5-1.7l-0.3,4.1l-0.1,0.2l-13.1-1.1l0,0l16-7.2L242.2,395.4z"/>
						<polygon class="st61" points="227.8,371.6 260.4,375 261.6,393.6 242.4,395.7 242.2,395.4 240.5,393.3 227.5,375.4 
							224.5,371.3 						"/>
						<path class="st62" d="M240.2,416.3c1.4-0.6,2.8-1.9,3.8-4.7c1.6-4.6-2.1-9.9-4.4-12.6l2.6-3.6l0.2,0.3l19.2-2.1l0.9,13.2
							l-12.4,10.3L240.2,416.3z"/>
						<polygon class="st63" points="263.7,425.4 263.7,425.6 250.9,426 250,417.1 						"/>
						<polygon class="st64" points="262.5,406.8 263.7,425.4 250,417.1 						"/>
						<polygon class="st65" points="236.9,416 240.2,416.3 250,417.1 250.9,426 221.4,427 221,414.7 						"/>
						<path class="st66" d="M243.9,411.6c-1,2.8-2.4,4.1-3.8,4.7l-3.2-0.3l0.9-14.6l1.8-2.5C241.8,401.7,245.5,407.1,243.9,411.6z"
							/>
						<path class="st60" d="M239.5,399l-1.8,2.5l0.3-4.1C238,397.3,238.8,397.9,239.5,399z"/>
						<polygon class="st30" points="199.5,373.1 199.2,371.6 214.4,370.2 224.5,371.3 227.5,375.4 226.3,385.8 204.5,389.7 						
							"/>
						<polygon class="st67" points="156.8,392.5 144.8,384.4 132.8,394.3 128.4,378.1 179.8,373.4 170.8,390.6 						"/>
						<polygon class="st68" points="181.5,392.6 180.2,392.9 174.4,390.9 182,373.2 199.2,371.6 199.5,373.1 202,381 181.4,391.4 
													"/>
						<polygon class="st69" points="181.4,391.4 202,381 204,387.6 181.5,392.6 						"/>
						<polygon class="st70" points="156.4,396.3 158,397.4 156.4,396.3 156.4,396.3 170.7,390.9 169.4,393.4 180.2,392.9 
							181.5,392.6 182,398.4 174.5,409.6 157.7,413.3 						"/>
						<polygon class="st71" points="144.8,384.4 156.8,392.5 170.8,390.6 170.7,390.9 156.4,396.3 156.4,396.3 145.8,388.8 
							129.3,402 127.8,378.2 128.4,378.1 132.8,394.3 						"/>
						<polygon class="st72" points="216.8,412.4 210.2,397 205.5,410.6 204.5,389.7 226.3,385.8 224.5,400.5 221.4,401.9 
							224.5,400.5 224.5,400.5 237.7,401.6 237.9,401.4 237.4,407.2 						"/>
						<polygon class="st73" points="216.8,412.4 237.4,407.2 236.9,416 221,414.7 221,414.8 216.2,412.7 						"/>
						<polygon class="st74" points="182,398.4 181.5,392.6 204,387.6 204.2,388.4 182.2,398.3 						"/>
						<polygon class="st75" points="185.5,419.5 181.4,428.9 171.5,429.5 						"/>
						<polygon class="st76" points="185.5,419.5 174.5,409.8 174.5,409.6 177,409.1 174.5,409.6 182,398.4 182.3,400.7 182,398.4 
							182.2,398.3 204.2,388.4 204.5,389.7 205.5,410.6 						"/>
						<polygon class="st77" points="210.2,397 216.8,412.4 208.8,408.9 						"/>
						<polygon class="st78" points="210.2,397 208.8,408.9 216.8,412.4 216.8,412.4 216.2,412.7 209.5,416.7 205.5,410.6 						"/>
						<polygon class="st79" points="185.5,419.5 205.5,410.6 200,417.8 198.8,427.8 198.8,427.8 181.4,428.9 						"/>
						<polygon class="st80" points="200,417.8 205.5,410.6 209.5,416.7 216.2,412.7 221,414.8 221.4,427 199.5,427.7 198.8,427.8 
							198.8,427.8 						"/>
						<path class="st81" d="M81.7,410.8c0-0.3,0-0.7,0-1.1l9-2L81.7,410.8z"/>
						<path class="st82" d="M165.3,423.6c0,0-0.7,0.1-1.9,0.3c2.7-6.9,8.2-11.9,11.2-14.3l-0.1,0.2l11.1,9.7l-13.9,10l-9.8,0.6
							c0.2-2.2,0.8-4.2,1.5-6.1C164.5,423.7,165.3,423.6,165.3,423.6z"/>
						<path class="st83" d="M87.3,396.6l-1.2-14.5l21.7-2l-9.3,7.8C98.4,387.9,91.8,393,87.3,396.6z"/>
						<path class="st84" d="M92.6,424.3c0.1,0.1,0.2,0.2,0.2,0.2l17.6-1.4l0.1,2l-8.2,8.7l-14.1,0.9l-1.7-5.3
							C86.6,429.4,90.4,426.2,92.6,424.3z"/>
						<path class="st85" d="M72.4,431.8c0,0-1.1-14.9,9.3-20.4c0,0,0-0.2,0-0.6l9-3.1l-9,2c0.1-2.7,0.9-8.1,5.7-11.4l-0.1-1.7
							c4.6-3.6,11.1-8.6,11.1-8.8l9.3-7.8l20.2-1.8l1.4,23.9l-17.5-4.6l-1.7,11.2c-1.8,0.2-4.1,0.4-7.2,0.6
							c-2.1-4.7-6.3-13.8-6.3-13.8l1.1,13l-11,0.9l4,1.9c-6.2,3.5,0.5,11.7,1.7,13.1c-2.2,1.9-6.1,5.1-6.1,5.1l-0.7-1.4L73.8,431
							l12.5-1.5l1.7,5.3L69.4,436L72.4,431.8z"/>
						<path class="st86" d="M110.5,427l-0.1-1.9l0.1-0.1l12.9-0.5c0,0,0.8,5.3,1.3,7.9l-22.5,1.4l8.2-8.7L110.5,427z"/>
						<path class="st87" d="M110,409.7l0.5,13.4l0.1,2l0.1-0.1l12.9-0.5c0,0,0.8,5.3,1.3,7.9l20-1.3c0.1-0.1,0.2-0.2,0.4-0.3
							c-5.4-9.7,6.6-21,11.9-25.3l-0.7-9.2l-10.5-7.5l-16.7,13.3l-17.5-4.6l-1.7,11.2L110,409.7z M130.5,415.9l-5.6-4.9l8.1,3.9
							l-8.2,9.6L130.5,415.9z"/>
						<polygon class="st88" points="133,414.9 124.8,424.5 130.5,415.9 124.8,411 						"/>
						<path class="st89" d="M103,409.2c-1.5,0.1-3.1,0.2-5,0.3h-0.1l-0.1-1.1l-1.1-13C96.7,395.4,100.8,404.5,103,409.2z"/>
						<path class="st90" d="M90.8,411.2c1.4-0.8,3.6-1.4,6.7-1.6c0.1,0,0.2,0,0.3,0h0.1c1.8-0.1,3.5-0.2,5-0.3
							c3-0.2,5.4-0.4,7.2-0.6l-0.2,1.1l0.5,13.4l-17.6,1.4c0,0-0.1-0.1-0.2-0.2C91.4,422.9,84.8,414.7,90.8,411.2z"/>
						<path class="st68" d="M97.6,409.6c-3.1,0.2-5.2,0.8-6.7,1.6l-4-1.9l10.9-0.9l0.1,1.1C97.8,409.6,97.7,409.6,97.6,409.6z"/>
						<path class="st91" d="M135.8,417.6l9.1-11.5l6.1,2l-2.3,5.9c-1.6,2-2.9,4.2-3.8,6.5L135.8,417.6z"/>
						<path class="st92" d="M144.8,420.5c0.9-2.3,2.2-4.5,3.8-6.5c2.8-3.6,6.2-6.7,8.4-8.5l0.6,7.8l16.9-3.7l-0.1,0.1
							c-3,2.4-8.5,7.3-11.2,14.3c-4.1,0.8-13.7,3-18.2,6.9C143.3,427.4,143.5,423.9,144.8,420.5z"/>
						<polygon class="st93" points="169.4,393.4 170.7,390.9 170.8,390.6 179.8,373.4 182,373.2 174.4,390.9 180.2,392.9 						"/>
						<path class="st94" d="M163.4,424c-0.8,1.9-1.3,4-1.5,6.1l-16.5,1c-0.1-0.1-0.1-0.2-0.2-0.3C149.7,426.9,159.3,424.7,163.4,424
							z"/>
						<polygon class="st95" points="85.8,428 86.6,429.4 74.1,430.9 						"/>
					</g>
				</g>
				<g>
					<path class="st96" d="M303.5,243.5c-10.4-0.2-21-2-27.8-7.3l2.4-2.5C284.2,239.5,296.1,242.3,303.5,243.5z"/>
					<path class="st96" d="M224.2,237.5c1.1,0.2,2.3,0.3,3.4,0.4c-8.4,2.8-22.4,5.8-35.6,0.7C196.5,237.3,207.5,235.2,224.2,237.5z"
						/>
				</g>
				<g id="Upper_towers_8_">
					<g>
						
							<rect x="244.3" y="233.7" transform="matrix(3.127962e-02 -0.9995 0.9995 3.127962e-02 -5.5316 481.1553)" class="st97" width="2.4" height="19.4"/>
						
							<rect x="243.4" y="228" transform="matrix(3.127962e-02 -0.9995 0.9995 3.127962e-02 -0.3948 478.0744)" class="st98" width="6" height="22.5"/>
					</g>
					<g>
						
							<rect x="273.5" y="241.7" transform="matrix(3.127962e-02 -0.9995 0.9995 3.127962e-02 42.907 530.7221)" class="st99" width="43.5" height="3.1"/>
						
							<rect x="267.9" y="239" transform="matrix(3.127962e-02 -0.9995 0.9995 3.127962e-02 37.6831 525.0257)" class="st100" width="43.5" height="8.1"/>
					</g>
					<g>
						
							<rect x="227.1" y="233.2" transform="matrix(3.127962e-02 -0.9995 0.9995 3.127962e-02 9.5585 479.9489)" class="st99" width="50.5" height="3.7"/>
						
							<rect x="220.4" y="230" transform="matrix(3.127962e-02 -0.9995 0.9995 3.127962e-02 3.3215 473.0414)" class="st100" width="50.5" height="9.6"/>
					</g>
					<g>
						
							<rect x="297.2" y="252.2" transform="matrix(3.127962e-02 -0.9995 0.9995 3.127962e-02 52.2143 561.2329)" class="st101" width="36.9" height="2.9"/>
						
							<rect x="291.9" y="249.8" transform="matrix(3.127962e-02 -0.9995 0.9995 3.127962e-02 47.2146 555.8597)" class="st102" width="36.9" height="7.6"/>
						
							<rect x="312.1" y="225.9" transform="matrix(3.127962e-02 -0.9995 0.9995 3.127962e-02 70.6453 539.9379)" class="st103" width="3.5" height="15.3"/>
						
							<rect x="311.4" y="219.5" transform="matrix(3.127962e-02 -0.9995 0.9995 3.127962e-02 76.1299 535.9007)" class="st104" width="6.2" height="18.4"/>
					</g>
					<g>
						
							<rect x="210.9" y="234.7" transform="matrix(3.127962e-02 -0.9995 0.9995 3.127962e-02 -14.2397 461.4673)" class="st105" width="40.1" height="6.7"/>
						
							<rect x="204.9" y="235.3" transform="matrix(3.127962e-02 -0.9995 0.9995 3.127962e-02 -19.9094 455.4017)" class="st106" width="40.1" height="5.3"/>
						<polygon class="st107" points="236.9,205 237.4,203.7 240.8,205.1 240.4,218.8 217.7,218.1 218,204.4 						"/>
						<polygon class="st35" points="233.3,203.6 233.4,201.5 237.4,203.7 237,216.3 217.8,215.7 218.2,203.1 						"/>
						
							<rect x="220.8" y="198.5" transform="matrix(3.127962e-02 -0.9995 0.9995 3.127962e-02 12.5794 425.1346)" class="st108" width="9.7" height="15.1"/>
						<polygon class="st108" points="226.4,207 226.5,202.2 221.3,199.5 221.2,203.5 						"/>
						
							<rect x="216.5" y="198.7" transform="matrix(3.127962e-02 -0.9995 0.9995 3.127962e-02 10.4471 413.3946)" class="st109" width="4" height="5.3"/>
						<polygon class="st110" points="215.8,203.3 219.7,206.8 226.4,207 221.2,203.5 						"/>
					</g>
					<g>
						
							<rect x="171.9" y="244.5" transform="matrix(3.127962e-02 -0.9995 0.9995 3.127962e-02 -64.9729 426.3516)" class="st111" width="31.2" height="4.3"/>
						
							<rect x="166.5" y="243.4" transform="matrix(3.127962e-02 -0.9995 0.9995 3.127962e-02 -70.0816 420.8452)" class="st112" width="31.2" height="6.4"/>
					</g>
					<g>
						
							<rect x="148.7" y="247.3" transform="matrix(3.127962e-02 -0.9995 0.9995 3.127962e-02 -90.1695 405.9422)" class="st113" width="31.2" height="4.3"/>
						
							<rect x="143.4" y="246.1" transform="matrix(3.127962e-02 -0.9995 0.9995 3.127962e-02 -95.0816 400.4449)" class="st114" width="31.2" height="6.4"/>
					</g>
				</g>
				<g>
					<path class="st115" d="M342.5,285.8l-36.9-20.4c1.2,0.1,1.9,0.2,1.9,0.2l9.7,5.2l11.3,0.4l1.6,0.7c0.5,0.3,1,0.6,1.6,0.9
						L342.5,285.8z"/>
					<path class="st116" d="M284.1,263.1c6.7,0.7,12.6,1.3,16.8,1.8l5.1,8L284.1,263.1z"/>
					<path class="st53" d="M330.1,271.9l1.4,0.6l0.2,0.3C331.1,272.4,330.6,272.1,330.1,271.9z"/>
					<path class="st117" d="M286.5,286.5c-4.7-0.7-9.2-1.4-13.5-2.2c-0.2,0-0.4-0.1-0.7-0.1c5.4-0.8,12.4-2.2,12.4-2.2
						C284.3,282.9,285.5,285,286.5,286.5z"/>
					<path class="st117" d="M320.8,285.7c0,0,2.2,2.5,2.9,4.7c-2.4-0.2-4.7-0.3-7-0.5C318.3,288.7,320.6,286.6,320.8,285.7z"/>
					<path class="st118" d="M331.7,272.7l-0.2-0.3l19.6,8.5l23.8,2.4c-7.8,0.5-21,1.4-21.2,1.4C353.4,284.7,340.5,277.6,331.7,272.7
						z"/>
					<path class="st119" d="M282.8,263c0.4,0,0.8,0.1,1.3,0.1l21.9,9.8l-5.1-8c0.4,0,0.8,0.1,1.2,0.1l26.1,21.6L282.8,263z"/>
					<path class="st116" d="M272.5,261.9c0.5,0.1,1,0.1,1.5,0.2c13.9,11.1,34.9,21.3,34.9,21.3C291.9,279.6,279.1,268.7,272.5,261.9
						z"/>
					<path class="st120" d="M261.7,260.7c0.2,0,0.4,0,0.6,0.1c6.9,5.9,19.4,17.1,19.4,17.1C274,273.2,265.5,264.6,261.7,260.7z"/>
					<path class="st121" d="M244.8,258.7c0.4,0.1,0.9,0.1,1.3,0.2c10.1,8.3,24.3,17.1,24.3,17.1
						C259.1,271.9,249.9,263.9,244.8,258.7z"/>
					<path class="st122" d="M233.7,257.2c0.4,0.1,0.9,0.1,1.3,0.2l7.3,11.8C236.8,264.4,234.5,260,233.7,257.2z"/>
					<path class="st123" d="M208,263.9c1.2-0.5,2.2-0.8,2.6-1.5c0.6-0.9,4.8-3.3,8.3-5.2l8.4-1c1.3,0.3,3.5,0.6,6.3,1
						c0.9,2.7,3.1,7.1,8.6,12l-7.3-11.8c2.8,0.4,6.1,0.8,9.8,1.3c5.1,5.2,14.2,13.2,25.6,17.3c0,0-14.2-8.8-24.3-17.1
						c4.8,0.6,10.1,1.2,15.5,1.8c3.8,4,12.4,12.5,20,17.2c0,0-12.6-11.2-19.4-17.1c3.4,0.4,6.8,0.8,10.2,1.1
						c6.6,6.8,19.4,17.8,36.4,21.5c0,0-21-10.2-34.9-21.3c3,0.3,6,0.6,8.8,1l45.4,23.6l-26.1-21.6c1.4,0.1,2.6,0.3,3.5,0.4
						l36.9,20.4l-10.7-13.1c8.8,4.9,21.7,12,21.9,12c0.2,0,13.5-0.9,21.2-1.4l40.1,4c-33.8,4.4-64.5,4.8-91.2,3.1
						c-0.7-2.2-2.9-4.7-2.9-4.7c-0.2,0.8-2.5,2.9-4.1,4.2c-10.8-0.9-20.9-2-30.2-3.4c-1-1.5-2.2-3.6-1.7-4.5c0,0-6.9,1.4-12.4,2.2
						c0,0-55.3-15.9-59.6-18.8C211,264.4,209.5,263.9,208,263.9z"/>
					<path class="st124" d="M208,263.9c1.4,0.1,3,0.5,4.7,1.6c4.3,2.8,59.6,18.8,59.6,18.8c-36.8-6.8-58.2-15.8-58.2-15.8l-9.8-0.3
						c-0.1,0-0.2,0.1-0.3,0.1C204.8,265.6,206.5,264.6,208,263.9z"/>
					<path class="st125" d="M156.8,278.5c-0.2,2.3,3.4,3.4,3.4,3.4c-2.5,0.5-4.9,0.9-7.3,1.2C154,279.8,156.8,278.5,156.8,278.5z"/>
					<path class="st125" d="M133,281.5c0,1.1,1,2.6,1.9,3.6c-2.7,0.2-5.4,0.3-8,0.4C128.5,282.8,133,281.5,133,281.5z"/>
					<path class="st126" d="M68.8,279.9l1.6-2.5l27.9-1.3l13.3,1.7c-2,0.8-2.7,2-2.7,2l20.5,0.1c5.6-3.8,15.5-5.5,15.5-5.5l-7,4.2
						L151,279l14.2-7.1c-0.3-3.2,2.2-6.6,4.1-8.7l10.6-1.3c-17.7,9-18.8,16.3-18.8,16.3c3-6.7,12.5-8,12.5-8l-1.1,5.3
						c1.6-4.7,5.4-6.8,14.5-8.6c6.3-1.3,12.2-5.3,15.2-7.7l4.8-0.6l-3.9,3.3l6-0.3c0,0,0-1.9-0.1-3.3l10-1.2
						c-3.5,1.9-7.7,4.2-8.3,5.2c-0.4,0.6-1.4,1-2.6,1.5c-2.3-0.1-4.2,0.7-5.4,1.2c-1.8,0.8-30.4,13.8-40.4,16.3
						c-0.7,0.1-1.4,0.3-2.1,0.4c0,0-3.6-1.1-3.4-3.4c0,0-2.8,1.3-3.9,4.6c-6.2,0.9-12.2,1.6-17.9,2c-0.9-1-2-2.4-1.9-3.6
						c0,0-4.5,1.3-6.1,4C93.1,286.6,68.8,279.9,68.8,279.9z"/>
					<path class="st127" d="M208,263.9c-1.5,0.7-3.3,1.7-4,4.3c-14.1,6.4-28.3,10.6-41.8,13.3c10-2.6,38.7-15.6,40.4-16.3
						C203.8,264.6,205.8,263.8,208,263.9z"/>
					<path class="st128" d="M203,262l3.9-3.3l2-0.2c0,1.4,0.1,3.3,0.1,3.3L203,262z"/>
					<path class="st129" d="M165.3,271.9l-14.2,7.1l-13.1-0.4l7-4.2c0,0-9.9,1.7-15.5,5.5l-20.5-0.1c0,0,0.7-1.1,2.7-2l-13.3-1.7
						l19.8-0.9l31.8-9.3l-3,6.1l6-6.8l7.4-0.9l-7.8,7.1l16-8.1l0.8-0.1C167.5,265.3,165,268.7,165.3,271.9z"/>
					<polygon class="st130" points="152.5,271.3 160.4,264.2 168.5,263.2 					"/>
					<polygon class="st130" points="152.8,265.1 147,271.9 150,265.9 152.3,265.2 					"/>
					<polygon class="st131" points="183,261.5 184.8,261.3 181.8,263.9 					"/>
					<path class="st131" d="M190.5,260.6l4.1-0.5c-3.2,2-7.8,4.8-7.8,4.8L190.5,260.6z"/>
					<path class="st129" d="M161.2,278.1c0,0,1.1-7.3,18.8-16.3l2.9-0.4l-1.1,2.4l3-2.6l5.7-0.7l-3.7,4.3c0,0,4.6-2.8,7.8-4.8
						l7.6-0.9c-3,2.3-8.8,6.4-15.2,7.7c-9.1,1.8-12.9,3.8-14.5,8.6l1.1-5.3C173.7,270.1,164.2,271.4,161.2,278.1z"/>
				</g>
				<g>
					<path class="st132" d="M225.5,165.5c1.5,2.2,1.3,6.5,1.3,6.5l-41.9,28.7l-54.6,9.7l-1.4-2.3C200.3,190.6,221,171,225.5,165.5z"
						/>
					<path class="st133" d="M154.8,197.7c23.5-4.5,69-33.4,69-33.4c0.8,0.2,1.3,0.6,1.8,1.3c-4.6,5.5-25.3,25.1-96.6,42.8l-7.9-12.7
						C124.8,199.7,131.4,202.1,154.8,197.7z"/>
					<polygon class="st53" points="366.7,212.1 369.9,213.5 366.2,213.5 					"/>
					<path class="st53" d="M412.9,207.9c0.3-0.2,0.4-0.3,0.4-0.3S413.2,207.7,412.9,207.9z"/>
					<path class="st134" d="M369.9,213.5l12.9,0.1c0.5-0.2,0.9-0.3,1.4-0.5c-2,2.3-4.4,5-4.4,5L369.9,213.5z"/>
					<polygon class="st135" points="351.8,213.4 366.2,213.5 362.6,223.3 					"/>
					<path class="st136" d="M239.5,144.2l4.1,0.1l-0.1,3.1l-1.7-0.1l-0.2,5.9l5.7,0.8c-0.8,0.2-1.4,0.5-1.9,0.8l-6.8-0.2
						L239.5,144.2z"/>
					<path class="st137" d="M238.5,157.4l-4.3,0.3l1.7,6.8c0,0-7.9,19.7-17.1,25.3l0,0c-4.8-3.1-8.9-6.6-11.1-10.4
						c3.1-1.6,6-3.1,8.5-4.5c7.1-3.9,11.7-6.9,12-7.9c0.1-0.4,0.2-0.9,0.2-1.4l5.1-1.2c0,0-3.7-1.8-5.9-2.8c-0.8-2.4-2-4.5-2-4.5
						h5.5c0.2-1.1-1.6-1.9-1.6-1.9V155l9.1,1.3L238.5,157.4z"/>
					<polygon class="st138" points="229.7,154.4 230.2,152.1 237.9,152.8 238,147.2 236.4,147.1 236.4,144.1 239.5,144.2 
						238.8,154.7 					"/>
					<path class="st53" d="M228.5,165.6c0-1.2-0.4-2.6-0.8-3.9c2.2,1,5.9,2.8,5.9,2.8L228.5,165.6z"/>
					<path class="st139" d="M204.8,181c1.4-2.1,2.1-3.5,2.1-3.5c0.2,0.6,0.6,1.3,0.9,1.9c2.2,3.8,6.3,7.3,11.1,10.4l-2.8,3.7
						c-5.2-3.4-8.3-5.6-8.3-5.6s-13.9,14.2-30.2,22.6C190.5,201.8,200.5,187.5,204.8,181z"/>
					<path class="st140" d="M250,203.8l-6.2,5.3c-11.3-5.3-21.2-11.3-27.8-15.5l2.8-3.7C231.8,198.2,250,203.8,250,203.8z"/>
					<path class="st141" d="M307.7,217.9l0.4,7.6c-0.2,0-0.3,0-0.3,0l-8-4.5v-5L307.7,217.9z"/>
					<path class="st142" d="M250,203.8l-6.2,5.3c12.7,6,27.2,11,40.3,11.6l1.6,1.7h0.5l0.2-4.9c-8.5-3.8-11.1-6.8-11.1-6.8
						c4.6,3.2,12.9,5.8,12.9,5.8l-0.2,6l7.6,0.4l-0.6-7.4l-25.4-12.7l-10.2-12l16.1,13.2l-20.7-26.3l22,25.1l4.5,0.4
						c-15.3-15.4-30.7-36.4-30.7-36.4l0.4-2.2c-0.4-0.3-0.8-0.6-1.2-1c0,0-0.7-0.6-0.8-1.5c-3,0.6-8.2,2.3-11.4,6.9
						c-4.5,6.6-13.2,22.5-13.2,22.5s10.2-23.2,15.9-27.2c3.9-2.7,7.4-3.6,9.4-3.9c0.4-0.4,0.8-0.8,1.5-1.2l-7.2-1.6c0,0,0-0.1,0-0.4
						l-5.6-0.8l-0.1,1l-4.3,0.3l1.7,6.8c0,0-7.9,19.7-17.1,25.3l0,0C231.8,198.2,250,203.8,250,203.8z M241.5,178.6l0.2-5.3
						c3.9,11.4,18.4,27.3,18.4,27.3C246.7,187.3,241.5,178.6,241.5,178.6z M251.4,197.8l-13.1-14.7c-5.4-2.1-5.4-3.2-5.4-3.2
						l1.7-4.3c-1.1,3.9,5.2,6.6,5.2,6.6L251.4,197.8z"/>
					<polygon class="st53" points="223.7,154.2 229.7,154.4 229.5,155.1 					"/>
					<path class="st53" d="M245.5,154.9l3.5,0.1l-1,2.7l-3.8-0.5C244.3,156.6,244.4,155.6,245.5,154.9z"/>
					<path class="st143" d="M238.8,154.7l6.8,0.2c-1.1,0.8-1.3,1.7-1.3,2.3l-5.6-0.8L238.8,154.7z"/>
					<polygon class="st143" points="238.7,156.4 229.5,155.1 229.7,154.4 238.8,154.7 					"/>
					<path class="st144" d="M237.8,168.8c-4.5,6.6-13.2,22.5-13.2,22.5s10.2-23.2,15.9-27.2c3.9-2.7,7.4-3.6,9.4-3.9
						c-0.6,0.6-0.8,1.2-0.8,1.7C246.2,162.6,240.9,164.3,237.8,168.8z"/>
					<path class="st145" d="M316.2,202.6c0.4,0.2,0.6,0.2,0.6,0.2s0.3,0,0.8,0.1c10.7,8.3,37.6,15.7,37.6,15.7
						C329.5,215.2,319.7,206.9,316.2,202.6z"/>
					<polygon class="st146" points="348.9,219.4 339.5,221.2 332.1,224.8 337.7,218 					"/>
					<path class="st147" d="M269.7,202.7l-10.2-12l16.1,13.2l-20.7-26.3l22,25.1l4.5,0.4c-15.3-15.4-30.7-36.4-30.7-36.4l0.4-2.2
						c0.2,0.2,0.4,0.3,0.6,0.5c2.6,8.1,21.3,26.7,30.3,36c9.7,10,27.3,16.3,27.3,16.3l-0.3,8.3c-0.4,0-0.7,0-0.9-0.1l-0.4-7.6
						l-7.9-2v5l-0.3-0.1l-2.5,2.1l-1.2-0.1l-0.6-7.4L269.7,202.7z"/>
					<path class="st148" d="M291,203.1c-12.8-10.2-20.5-20.6-24.6-27.3c0.3,0.2,0.7,0.5,1,0.7c0,0,0.1,0,0.1,0.1
						C276.1,188.2,291,203.1,291,203.1z"/>
					<path class="st149" d="M290.5,195.1c6.6,9.8,20.3,17.2,20.1,17.1C295.9,207.1,290.5,195.1,290.5,195.1z"/>
					<path class="st150" d="M275.3,210.7c4.6,3.2,12.9,5.8,12.9,5.8l-0.2,6l-1.8-0.2l0.2-4.9C277.9,213.7,275.3,210.7,275.3,210.7z"
						/>
					<path class="st151" d="M241.8,173.4c3.9,11.4,18.4,27.3,18.4,27.3c-13.5-13.4-18.5-22.1-18.5-22.1L241.8,173.4z"/>
					<path class="st152" d="M233,180l1.7-4.3c-1.1,3.9,5.2,6.6,5.2,6.6l11.5,15.6l-13.1-14.7C233,181,233,180,233,180z"/>
					<path class="st53" d="M149.5,220.4c-0.2-0.3-1.9-2.2-2.1-4.1l-4.5,4.9l-1.6-3.7L137,221"/>
					<path class="st153" d="M157.4,201.9c2.2-0.8,4.5-1.7,6.9-2.6c-3.4,2.8-8.2,6.5-12,7.8C152.2,207.2,154.7,204.8,157.4,201.9z"/>
					<path class="st53" d="M143,206.5c1-0.3,1.9-0.5,2.9-0.8c-2.4,1.8-5.2,3.6-7.5,4.3C138.5,210,140.8,208.6,143,206.5z"/>
					<path class="st154" d="M179.2,196c0,0,1.5-1.9,2.7-4.1c1.6-0.7,3.2-1.5,4.8-2.2C184.3,192.1,181,195.2,179.2,196z"/>
					<path class="st155" d="M157.5,211.8c-12.1-0.4-9-2-11.9-1s-36.4,13.8-71.9-12.2l25.7,8.6l41.8-0.1c0.6-0.2,1.2-0.3,1.9-0.5
						c-2.2,2.1-4.6,3.5-4.6,3.5c2.3-0.7,5.1-2.6,7.5-4.3c3.6-1,7.4-2.3,11.3-3.8c-2.6,2.9-5.1,5.3-5.1,5.3c3.8-1.4,8.6-5,12-7.8
						c5.8-2.3,11.8-4.8,17.7-7.5c-1.3,2.2-2.7,4.1-2.7,4.1c1.8-0.8,5.1-3.8,7.5-6.3c3.1-1.4,6.2-2.9,9.2-4.3
						C192,190.4,175.2,211.1,157.5,211.8z"/>
					<path class="st156" d="M73.1,198.3l0.6,0.2c35.4,26,69,13.2,71.9,12.2c3-1-0.2,0.6,11.9,1c17.7-0.7,34.6-21.4,38.5-26.4
						c3-1.5,6-2.9,8.8-4.3c-4.2,6.5-14.2,20.8-27.2,29.5c-3.1,1.6-6.4,3-9.6,4.1c-34,8.8-45.3,6.4-63.1,3.6
						c-17.8-2.8-42.4-20.5-42.4-20.5L73.1,198.3z"/>
					<polygon class="st53" points="348.9,219.4 339.5,221.2 332.1,224.8 337.7,218 					"/>
					<path class="st53" d="M317.5,202.9c3.8,3,9.8,5.9,15.8,8.3C328.4,209.7,322.5,207.1,317.5,202.9z"/>
					<path class="st53" d="M310.6,212.1c-14.7-5-20.1-17.1-20.1-17.1C297.1,204.9,310.9,212.2,310.6,212.1z"/>
					<path class="st157" d="M317.5,202.9c3,0.3,14.3,1.3,21.7,1.7c8.6,0.4,14.6-2.3,14.6-2.3l-9.1,11.1c0,0-5-0.3-11.4-2.2
						C327.3,208.7,321.4,205.9,317.5,202.9z"/>
					<path class="st141" d="M251.7,164.9c2.6,8.1,21.3,26.7,30.3,36c9.7,10,27.3,16.3,27.3,16.3l-0.3,8.3c1.6,0.1,4.6,0.2,8.5,0.4
						l2.1-3.9c0,0,5.2,2.6,8.3,4.1c15.1,0.2,35.6-0.4,49.5-3.8c21.9-5.3,33.3-12.9,35.6-14.4c0.3-0.2,0.4-0.3,0.4-0.3
						s-6.6-2-29.1,5.5c-2,2.3-4.4,5-4.4,5l-9.9-4.5h-3.6l-3.6,9.8l-10.7-9.9H345c0,0-5-0.3-11.4-2.2c10.7,4.3,21.7,7.4,21.7,7.4
						c-25.6-3.3-35.4-11.7-38.9-16c-3.8-1.6-26.7-11.5-48.7-26c8.6,11.6,23.5,26.6,23.5,26.6c-12.8-10.2-20.5-20.6-24.6-27.3
						C261.4,172.4,256.4,168.7,251.7,164.9z M332.1,224.8l5.6-6.8l11.2,1.4l-9.4,1.8L332.1,224.8z M290.5,195.1
						c6.6,9.8,20.3,17.2,20.1,17.1C295.9,207.1,290.5,195.1,290.5,195.1z"/>
				</g>
			</g>
			
				<linearGradient id="SVGID_10_" gradientUnits="userSpaceOnUse" x1="6899.1665" y1="397.2372" x2="6723.5083" y2="221.5789" gradientTransform="matrix(-0.9995 -3.127895e-02 -3.127895e-02 0.9995 7055.3472 106.6581)">
				<stop  offset="0" style="stop-color:#24021A"/>
				<stop  offset="0.3262" style="stop-color:#2D021D"/>
				<stop  offset="1" style="stop-color:#3D0222"/>
			</linearGradient>
			<path class="st158" d="M104.8,218.1c17.8,2.8,29.1,5.2,63.1-3.6c20.1-6.5,39.8-26.6,39.8-26.6s42.4,31.2,76.4,32.8l1.6,1.7
				l11.2,0.6l2.5-2.1l8.3,4.6c0,0,45,2.9,69.6-3.1c21.9-5.3,33.3-12.9,35.6-14.4c-3.1,2.3-23.9,17.3-25.8,17.2
				c-2.1-0.1-5.6-0.2-5.6-0.2s-9.3,8.2-17.1,8.3c0,0-16,7.7-27.4,6.7c0,0-16.6,4-33.5,3.7c-7.5-1.3-19.3-4.1-25.4-9.8l-2.4,2.5
				c-0.1-0.1-0.2-0.1-0.3-0.2c0,0-26,4.2-47.8,1.9c-1.1-0.1-2.3-0.3-3.4-0.4c-16.6-2.3-27.6-0.2-32.2,1.1c-1.6,0.4-2.4,0.8-2.4,0.8
				s-4.8-3.1-10.8-2.8s-65.5,0.6-116.3-39C62.5,197.6,87.1,215.3,104.8,218.1z"/>
		</g>
		
			<linearGradient id="SVGID_11_" gradientUnits="userSpaceOnUse" x1="6728.7495" y1="331.8902" x2="6723.5371" y2="326.6784" gradientTransform="matrix(-0.9995 -3.127895e-02 -3.127895e-02 0.9995 7055.3472 106.6581)">
			<stop  offset="0" style="stop-color:#24021A"/>
			<stop  offset="0.3262" style="stop-color:#2D021D"/>
			<stop  offset="1" style="stop-color:#3D0222"/>
		</linearGradient>
		<path class="st159" d="M327.8,226.1c-3.9,0-7.4-0.1-10.3-0.2l2.1-3.9C319.6,222,324.8,224.6,327.8,226.1z"/>
	</g>
</g>
<g>
	
		<linearGradient id="SVGID_12_" gradientUnits="userSpaceOnUse" x1="7062.7373" y1="350.4999" x2="6831.2373" y2="119" gradientTransform="matrix(-1 0 0 1 7005.5371 0)">
		<stop  offset="0" style="stop-color:#24021A"/>
		<stop  offset="0.3262" style="stop-color:#2D021D"/>
		<stop  offset="1" style="stop-color:#3D0222"/>
	</linearGradient>
	<path class="st160" d="M154.1,323.7l37.7,14.4l-66.6-43.3l11-3.5l-28.5-54.2c19.4,5.5,45.3-5.5,45.3-5.5
		c-30.8-3-50.2-64.7-50.2-64.7c5.3,1,14.5-7.5,14.5-7.5C76.9,134.1,56,0.7,56,0.7c-0.1,0.6-0.2,1.2-0.4,1.8
		c-0.1,0.3-0.1,0.6-0.2,0.9l0,0l0,0c-2,38.7-10,121.7-42.7,145.3l13.8,1.9l0,0l0,0c0,0-10.3,34.5-26.5,53.7v18.3l1.5,0.6l0,0l0,0
		l-1.5,3v19.2l10.3,1.7l0,0l0,0c0,0-3.6,10.5-10.3,22.6v40.5c5.7,1.2,11.3,1.3,15.7-0.9l0,0l0,0L4.6,332.4l13.4-3.1l0,0l0,0
		l-5.3,18.1l30-17.3l0,0l0,0l-2.5,32.7l6.9-1.7l0,0l0,0L45,452.7l0.4-0.1l10.5-2.6l-1.1-49.2l3,3.4l6.8-14.4l8.8,10.5l4.2-33.3
		l6.5-6L83,345.1l7.6,0.5c6.1,15.9,28.9,21.4,28.9,21.4L102,334.1l52.9-3L154.1,323.7z"/>
	<linearGradient id="SVGID_13_" gradientUnits="userSpaceOnUse" x1="-6.0856" y1="431.0482" x2="52.1044" y2="330.2603">
		<stop  offset="0" style="stop-color:#371426"/>
		<stop  offset="0.1942" style="stop-color:#37192D"/>
		<stop  offset="0.4759" style="stop-color:#372640"/>
		<stop  offset="0.8093" style="stop-color:#373B60"/>
		<stop  offset="1" style="stop-color:#374A75"/>
	</linearGradient>
	<path class="st161" d="M47.2,361.1l-6.9,1.7l0,0l0,0l2.5-32.7l-30,17.3l0,0l0,0l5.3-18.1l-13.4,3.1l0,0l0,0l11.1-23.1
		c-4.4,2.2-10,2.1-15.7,0.9V371c20.6-11.4,33.2-27,33.2-27c-2.7,28.9-18.6,44.8-18.6,44.8l6.5,2.5l-2.7,12.9l23.2-18.4l0.1,0.1
		L35.4,455l9.6-2.3l0,0l0,0L47.2,361.1z"/>
	<linearGradient id="SVGID_14_" gradientUnits="userSpaceOnUse" x1="-22.1264" y1="191.4253" x2="78.6725" y2="16.8363">
		<stop  offset="0" style="stop-color:#371426"/>
		<stop  offset="0.1942" style="stop-color:#37192D"/>
		<stop  offset="0.4759" style="stop-color:#372640"/>
		<stop  offset="0.8093" style="stop-color:#373B60"/>
		<stop  offset="1" style="stop-color:#374A75"/>
	</linearGradient>
	<path class="st162" d="M26.5,150.6l-13.8-1.9l0,0l0,0C45.4,125.1,53.4,42.1,55.4,3.4C38.6,83.3,15.2,124,0,143.3v21.6
		c3.7,0.2,6.1-0.5,6.1-0.5c-0.2,3.1-2.6,8.1-6.1,13.8v26C16.2,185.1,26.5,150.6,26.5,150.6z"/>
</g>
</svg>
