<?xml version="1.0" encoding="utf-8"?>
<!-- Generator: Adobe Illustrator 23.0.2, SVG Export Plug-In . SVG Version: 6.00 Build 0)  -->
<svg version="1.1" id="layer_1" xmlns="http://www.w3.org/2000/svg" xmlns:xlink="http://www.w3.org/1999/xlink" x="0px" y="0px"
	 viewBox="0 0 1000 500" style="enable-background:new 0 0 1000 500;" xml:space="preserve">
<style type="text/css">
	.st0{clip-path:url(#SVGID_2_);fill:#AEFCB8;}
	.st1{clip-path:url(#SVGID_4_);fill:#C4FFC3;}
	.st2{clip-path:url(#SVGID_6_);fill:url(#SVGID_7_);}
	.st3{clip-path:url(#SVGID_9_);fill:url(#SVGID_10_);}
	.st4{clip-path:url(#SVGID_12_);fill:url(#SVGID_13_);}
	.st5{clip-path:url(#SVGID_15_);fill:url(#SVGID_16_);}
	.st6{clip-path:url(#SVGID_18_);fill:url(#SVGID_19_);}
	.st7{clip-path:url(#SVGID_21_);fill:url(#SVGID_22_);}
	.st8{clip-path:url(#SVGID_24_);fill:url(#SVGID_25_);}
	.st9{clip-path:url(#SVGID_27_);fill:url(#SVGID_28_);}
	.st10{opacity:0.39;clip-path:url(#SVGID_30_);}
	.st11{fill:#FFFFFF;}
	.st12{opacity:0.18;clip-path:url(#SVGID_32_);}
	.st13{opacity:0.22;clip-path:url(#SVGID_34_);fill:#FFFFFF;enable-background:new    ;}
	.st14{opacity:0.11;clip-path:url(#SVGID_36_);fill:#FFFFFF;enable-background:new    ;}
	.st15{opacity:0.29;clip-path:url(#SVGID_38_);fill:#FFFFFF;enable-background:new    ;}
	.st16{opacity:0.38;clip-path:url(#SVGID_40_);fill:#FFFFFF;enable-background:new    ;}
	.st17{clip-path:url(#SVGID_42_);fill:url(#SVGID_43_);}
</style>
<g>
	<g>
		<defs>
			<rect id="SVGID_1_" width="1000" height="500"/>
		</defs>
		<clipPath id="SVGID_2_">
			<use xlink:href="#SVGID_1_"  style="overflow:visible;"/>
		</clipPath>
		<rect x="-12.6" y="-8.7" class="st0" width="1022.1" height="311"/>
	</g>
	<g>
		<defs>
			<rect id="SVGID_3_" width="1000" height="500"/>
		</defs>
		<clipPath id="SVGID_4_">
			<use xlink:href="#SVGID_3_"  style="overflow:visible;"/>
		</clipPath>
		<path class="st1" d="M323.2,228.7l1.5-59.4l3.2-24l9.1,13.2l3.2,41l12.3,0.5l5.2-36.8l6.8,1.4l1.7,40.4l11.1,2.1l2.6-16.5
			l12.7-0.8l5.6,3.2l-2,24.3l0.4,26.8l-34.1-1.4l-4.8-23.8l-20.3,20.4l-17.8,3.5L323.2,228.7L323.2,228.7z M472.6,140.6l6.5,64.2
			l3.6,42.2l10.9-5.1l2.4-13l11.3-8.3l3.1,16.4l5.9-19.9l-5.7-45.6l-4-29.1l-17.3,28.4l-6-53.5L479.4,87l-10.9,2l4.2,49.6
			L472.6,140.6L472.6,140.6z M561.4,139.9l11.6,74.2l11.3-2.9L589,230l4.5-3.7l-1.3-19.6l4.2-0.8L586,139.3l-6.8,8.3l-13.5-43.7
			l2.6,35.1L561.4,139.9L561.4,139.9z M683.2,162.1l6.9,50.5l6.3,11.4l8.9-3.1l-2.9-21.2l6-0.3l-5.7-34.7l-6.3-16.5l-3.4,19
			l-5.1-0.8l-5.6-23.7L683.2,162.1L683.2,162.1z M271.9,146.7l-8.3,67.3l5.8,0.1l2.7-8.4l1.5,12.1l4.2-14.9l4-31.7l-7.3,1.6
			l1.9-36.1l-3.7,0.9L271.9,146.7L271.9,146.7z M167,102.3l-0.7,13.7l-5,40.2l-2.6,31l15.4-41.2l5.1-0.3l1.5-58l-6.9,1.9L167,102.3
			L167,102.3z"/>
	</g>
	<g>
		<defs>
			<rect id="SVGID_5_" width="1000" height="500"/>
		</defs>
		<clipPath id="SVGID_6_">
			<use xlink:href="#SVGID_5_"  style="overflow:visible;"/>
		</clipPath>
		
			<linearGradient id="SVGID_7_" gradientUnits="userSpaceOnUse" x1="503.2" y1="197.2766" x2="503.2" y2="292.2773" gradientTransform="matrix(1 0 0 -1 0 499)">
			<stop  offset="0" style="stop-color:#C5FAC7"/>
			<stop  offset="0.2201" style="stop-color:#B5F3BC"/>
			<stop  offset="0.7198" style="stop-color:#97E6A8"/>
			<stop  offset="1" style="stop-color:#8BE1A0"/>
		</linearGradient>
		<path class="st2" d="M1020.2,270.8c-1-3.5-0.7-7.1-0.7-10.8c0-11.9-0.2-24.2-0.1-36.3c0-4.3,1-16.3-0.9-20.2c-2.1-4.1-0.5-3.6-8-4
			c-11.5-0.6-22.9,1.7-34.3,1.2c-12.5-0.5-25,0.1-37.1,4.3c-8.2,2.8-16.5,4.8-24.5,8.3c-27.3,11.9-53.5,18.8-83.1,23.2
			c-23,3.4-46.9,8.4-70.2,8.2c-18.3-0.1-33.9,2-52.1,6.3c-9.1,2.1-21.3,6.7-30.5,3.9c-6.5-2-8.8-4.5-16.2-4.7
			c-34.2-0.7-76.3,6-106.4,23.1c-13,7.3-25.2,12.3-41.1,11.3c-13.5-0.9-26.9-1.6-40.4-2.1c-27.2-1.1-54-8.7-81.1-10.9
			c-9.6-0.8-17.2-3.4-25.5-7.9c-26.8-14.3-62.5-8.5-91.5-7.5c-13.2,0.5-31.7,2.1-44-4.1c-16.8-8.5-34.7-15.6-53-21
			c-19-5.7-37.9-3-57.6-3c-9.5,0-26,4.5-34-1.5c-4.6-3.5-3-7-10.7-8.6c-9.2-1.9-14-4.9-22.7-8.8c-14.1-6.3-33-5.6-48.1-5.7
			c-5.8,0-14.8-1.5-20.2,0.8v65.9c9.5,0,21.5,3.9,31,4.7c22,1.9,43.3,6.7,64.8,11.4c21.4,4.6,41.3,6,63.2,7.8
			c22.1,1.8,44.1,6.1,66.2,7.4c18.8,1.1,38.2-0.5,57.1-0.6c16.6-0.1,32.6,0.4,49.2,0.8c9.9,0.3,19.8-0.8,29.7-0.9
			c13.2,0,25.3,2.7,38.3,3.9c38.3,3.6,78.6,2.1,117.1,0.6c37.7-1.5,75.5-0.2,113.2,0.1c22.7,0.2,45.3-1.5,68-1.5
			c20,0,39.2,1,59.1-1.5c46.5-5.8,90.4-21.1,137.8-16.7C927.7,289.9,973.6,271.1,1020.2,270.8z"/>
	</g>
	<g>
		<defs>
			<rect id="SVGID_8_" width="1000" height="500"/>
		</defs>
		<clipPath id="SVGID_9_">
			<use xlink:href="#SVGID_8_"  style="overflow:visible;"/>
		</clipPath>
		
			<linearGradient id="SVGID_10_" gradientUnits="userSpaceOnUse" x1="19.3" y1="197.2766" x2="19.3" y2="292.2772" gradientTransform="matrix(1 0 0 -1 0 499)">
			<stop  offset="0" style="stop-color:#C5FAC7"/>
			<stop  offset="0.2201" style="stop-color:#B5F3BC"/>
			<stop  offset="0.7198" style="stop-color:#97E6A8"/>
			<stop  offset="1" style="stop-color:#8BE1A0"/>
		</linearGradient>
		<polygon class="st3" points="35.4,136.2 28.9,139.9 34.9,105.1 44.8,43.6 48.3,17.1 51.2,2.3 49.6,-28 47.1,-41.3 37.9,-41.3 
			29.1,-15.7 23.1,11.7 11.9,67 -6.1,175.6 -8.4,199.6 -9.9,211.3 -10.3,213.4 -10.3,213.5 -10.5,213.9 -12.6,219.1 -5.5,235 
			2.7,234.6 17,229.5 20.5,197.8 24.6,167.2 25.4,161.9 28.8,157 39.5,140.8 		"/>
	</g>
	<g>
		<defs>
			<rect id="SVGID_11_" width="1000" height="500"/>
		</defs>
		<clipPath id="SVGID_12_">
			<use xlink:href="#SVGID_11_"  style="overflow:visible;"/>
		</clipPath>
		
			<linearGradient id="SVGID_13_" gradientUnits="userSpaceOnUse" x1="207" y1="197.2768" x2="207" y2="292.2774" gradientTransform="matrix(1 0 0 -1 0 499)">
			<stop  offset="0" style="stop-color:#C5FAC7"/>
			<stop  offset="0.2201" style="stop-color:#B5F3BC"/>
			<stop  offset="0.7198" style="stop-color:#97E6A8"/>
			<stop  offset="1" style="stop-color:#8BE1A0"/>
		</linearGradient>
		<path class="st4" d="M359.3-16.6l-1.5-0.2l-9.2,23.2l-10.3,22l-12.5,24.9l2-16.1l4.9-32.9l-2-31.2h-1.9L320-0.6l-5.6,29.9
			l-0.4,2.8l-5.8-14.8l2.8-9.9l3.9-15.5l1.1-13.1l-1.7-0.5l-8.9,24.8l-0.7,2.1L294-26.4l-1.5,1.1l5.5,40.2l1.7,5l-4.3,11.8
			l-12.1,27.4l-0.5,1.1l1.7-11.6l4.1-34.4l0.6-14.3l-1-14h-1.6l-6.8,24.2l-6.2,28.4L264,94.8l-13.5,56.4l-8.5,27l-2.6-0.3l-8.8,6.4
			L234,159l10.1-70.6l7.7-5.2l4.2-4.3l1.8-5.8l-2.1-2.7l-5.7,0.8l-4,2.7l3.2-23l3.7-29.4l-0.7-31.7h-14.9l-10.4,26L221.3,43
			l-8.2,53.1l-8.1,54.7l3.7-78.3l0.4-4l2.1-30l0.2-25.6L222-4.5l6.4-11.7l2.7-11.2l-11.2,8.1L210.5-6l-0.2-2.1L207-20.8l-6-0.8
			l-6,25.9l0.4,11.1l-11.7,17L164.6,60l-6.6,7.6l0.2-2.7l1.6-31.8l1-19.9l0.7-23.2l-3.4-9.6l-2.5-1.8l-1-0.4l-2.3-1l-4.7,2.5
			l-0.1,0.5l-0.8,0.7l-1.6,2.3l-2.7,8.5L138.2,12l-1.8,16.2l-11.1-9.9l-6.2-5.8l0.1-43.6l-9.2,1.2l-3.4,9.9l-2.9,11.8l-1,4
			L90.9-19.5L88.3-18l12.9,19l-3.4,14l-6.7,53.4l-5.3-20.3l-4.6-19.3l0.1-2.9L81,13.6l0.4-7.9l-1-1.6l-0.1-1.4L80.6-21l-6.1-1.7
			L70,3.3l0.4,4.1l1,10.6l0.3,6l-0.9,31L65,115.4l-3.1,29l-5.2,30.7l-2,27.5l0.4,30.5l7.5,1l0.7-23.9l2.9-25.1l4.6-44.1l1-11
			l1.5-15.9l2.8-26.3l1.5-11l2.5-19.7l6,19.2L89,88.2l-11.5,95.2l-4.2,32.3l-1.4,16.1l-1.7,16.1h16.5l1.6-13.3l3.1-14.9l4.5-28.4
			l7.4-47.4l6.2-6.3l7-13.2l-4.4-2.7l-6.3,4.6l6.2-49.9l5.9-56.7L118,19l0,0l17.9,16.8l-1,25l-8.1,122.1l-3.3,33.5l-0.4,5.1l-5.7-10
			l-3.9,1.7l9,21.1l-2.5,14.1h0.3l8.1,11l13.9-11l1.7-22.2l1,0.1l4.7-5.2l0.7-8l-4.7-3.1h-0.2l2.5-20l5.9-62.5l3.4-48.6l9.1-8.7
			L186,47.5l10-12.8l0.1,2.7l0.4,12.5l-1.1,10.3l-3.9,53l-3.8,49.2l-2.2-3.6l-10.1-14.9l-5.3,2.2l7.7,16.3l9,10.9l-3.5,46.3l-0.3,5
			l-7-10.4l-7.2,4.2l13.2,23l-0.2,2l0.3,12.4l7.4,2l2.2-0.9l7.3,11.4l19.1-6l2.6-5.1l5.8-0.9l13.6-34.9l18.8-56.9l16-56.8l3.7-21
			l4.7-8l7.2-14.3l11.3-28.1l1.8-5.4l7.5,18.9l-4.6,40.5l-4.4,43.4l-2.7,10.4l-3.6,23.7l-3.6,48.3l-2.9,34.8l-3.3-11.2l-5.4-15.2
			l-3.7,0.5l3.2,15.4l6.3,14.6l2.7,0.5l-0.2,3.4l1.3,11.1l2.6,6.2h4.4l0.6-0.6l9-1.7l3.4-9l-0.3-10.3l3.6-1.2l4.7-9.1l-1.2-8.6
			l-2.3-0.6l-5.4,6.8l-1.2,6.5l-3-1.7l0.3-2.3l1.1-9.5l2.8-14.8l7.3-61.1l3.5-42.7l5.4-4.3l5.4-7.2l4.7-13.5l-2.4-1l-9.7,9.9
			l-2.4,3.3l2.7-31.2l4-6.4l6.9-10.4l12.9-26.4l9-22.8L359.3-16.6L359.3-16.6z M233.3,206.4l-6.7,23.7l-1.7,6.6v-0.1l2.1-23.2
			l1.7-14.3l8-7.2l2-3.3L233.3,206.4L233.3,206.4z"/>
	</g>
	<g>
		<defs>
			<rect id="SVGID_14_" width="1000" height="500"/>
		</defs>
		<clipPath id="SVGID_15_">
			<use xlink:href="#SVGID_14_"  style="overflow:visible;"/>
		</clipPath>
		
			<linearGradient id="SVGID_16_" gradientUnits="userSpaceOnUse" x1="350.55" y1="197.2766" x2="350.55" y2="292.2772" gradientTransform="matrix(1 0 0 -1 0 499)">
			<stop  offset="0" style="stop-color:#C5FAC7"/>
			<stop  offset="0.2201" style="stop-color:#B5F3BC"/>
			<stop  offset="0.7198" style="stop-color:#97E6A8"/>
			<stop  offset="1" style="stop-color:#8BE1A0"/>
		</linearGradient>
		<polygon class="st5" points="378.3,244.8 371,260.6 370.5,262.1 370.3,260.6 370.1,259.3 368.7,246.2 366.9,230.2 367,230 
			366.2,225.9 364.5,216.2 357,216.2 354.8,220.2 351.9,216 348.4,198.7 347.8,198 345.6,195.5 344.1,195.7 340.7,204.1 
			338.3,217.3 332.7,239.4 327.2,254.8 323.9,265 320.9,270.7 325.5,277.8 327.9,280.1 339.1,281.1 364.3,279.5 366.6,281.1 
			375.8,266.3 380.2,245.9 		"/>
	</g>
	<g>
		<defs>
			<rect id="SVGID_17_" width="1000" height="500"/>
		</defs>
		<clipPath id="SVGID_18_">
			<use xlink:href="#SVGID_17_"  style="overflow:visible;"/>
		</clipPath>
		
			<linearGradient id="SVGID_19_" gradientUnits="userSpaceOnUse" x1="941.9" y1="197.2766" x2="941.9" y2="292.2772" gradientTransform="matrix(1 0 0 -1 0 499)">
			<stop  offset="0" style="stop-color:#C5FAC7"/>
			<stop  offset="0.2201" style="stop-color:#B5F3BC"/>
			<stop  offset="0.7198" style="stop-color:#97E6A8"/>
			<stop  offset="1" style="stop-color:#8BE1A0"/>
		</linearGradient>
		<polygon class="st6" points="1002.7,188.1 999.3,178.1 997.8,171.9 997.1,166.6 994.1,141 987.6,114.4 980.2,90.3 985.7,74.9 
			988.2,44.6 987.6,13.3 986.1,-8 986.7,-29.7 980.5,-30.5 980.4,-30.6 979.6,-10.9 979.4,8.4 977.2,40.8 975.8,68.9 974.8,77.8 
			969.5,67 950.8,17.9 940.7,-10.1 935,-21.5 932.7,-36.7 917.5,-32.5 918.4,-21 923,-8.3 932.1,13 932.3,13.6 927.6,9 902.2,-15.1 
			897.2,-35.5 890.7,-36.9 878.8,-32.2 884.5,-5 894,19.5 900.6,42 897.6,40.1 881.1,31.2 878.9,36.3 894.5,48.6 905.5,54.7 
			912.7,68.6 928.3,89.1 935.3,97.8 938.7,108.8 945.4,133.4 953.9,159.5 964.1,190.6 969,206.8 973.5,223.1 982.7,229.1 
			989.9,220.9 978.5,164.2 969.4,138.2 963.4,110.6 954.7,92.8 951.8,87.2 948.4,82.6 936.1,65.7 923.8,47.6 915.7,24.6 906.5,-3.8 
			922.6,12.7 937.1,30.3 938.1,31.9 949.9,63.2 960.5,84.6 969.2,107.8 981.2,157.7 986.1,184.5 988.8,190.1 988.9,191.3 
			993.9,209.8 1005,206.9 		"/>
	</g>
	<g>
		<defs>
			<rect id="SVGID_20_" width="1000" height="500"/>
		</defs>
		<clipPath id="SVGID_21_">
			<use xlink:href="#SVGID_20_"  style="overflow:visible;"/>
		</clipPath>
		
			<linearGradient id="SVGID_22_" gradientUnits="userSpaceOnUse" x1="927.1999" y1="197.2766" x2="927.1999" y2="292.2773" gradientTransform="matrix(1 0 0 -1 0 499)">
			<stop  offset="0" style="stop-color:#C5FAC7"/>
			<stop  offset="0.2201" style="stop-color:#B5F3BC"/>
			<stop  offset="0.7198" style="stop-color:#97E6A8"/>
			<stop  offset="1" style="stop-color:#8BE1A0"/>
		</linearGradient>
		<path class="st7" d="M951.3,172.1l-14.4,27.6l-2.7,9.2l-1.4-5.5l-9.1-23.3l-7-22.1l-0.2-0.9l-6.9-25.5l-0.3-0.6l-2.7-7h-3.1
			l-1.5,7.9l-0.4,3h-0.1l6.5,43.2l3.5,24.7L912,214l-0.9,10.5l9.4,3.8l6.7,1.6l0.9,0.4l0.8,0.4v-0.1l1.9,0.2v1.1l5.1,1.4l3-7.5
			l1.1-3.7l3.8-18.7l9.1-30.2L951.3,172.1L951.3,172.1z M922.3,200.4l-0.1-1v-0.3l0.5,1.5L922.3,200.4L922.3,200.4z"/>
	</g>
	<g>
		<defs>
			<rect id="SVGID_23_" width="1000" height="500"/>
		</defs>
		<clipPath id="SVGID_24_">
			<use xlink:href="#SVGID_23_"  style="overflow:visible;"/>
		</clipPath>
		
			<linearGradient id="SVGID_25_" gradientUnits="userSpaceOnUse" x1="646" y1="197.2766" x2="646" y2="292.2773" gradientTransform="matrix(1 0 0 -1 0 499)">
			<stop  offset="0" style="stop-color:#C5FAC7"/>
			<stop  offset="0.2201" style="stop-color:#B5F3BC"/>
			<stop  offset="0.7198" style="stop-color:#97E6A8"/>
			<stop  offset="1" style="stop-color:#8BE1A0"/>
		</linearGradient>
		<path class="st8" d="M906.5,215.8l-1.6-4.5l-7.5-30.7l-13-48.6l-14.2-60.1l-12-52.6l0.9-2.4L866-5.2l5-22.8l1.9-21.7l-4.1-0.5
			l-5,20.2l-5.2,22.6l-4.2,14.6l-9.5-24.3l-2.3-4.9l-0.4-2.2l-0.4-2.9l-0.5-2.1l-1.5-5.2l-5.8-4.8l-0.4-0.3h-11.3L817.6-24l0.7,2.3
			l-0.7,10.9l3.3,24.9l11.5,52l12.7,51.9l5.9,27l-5.2-21.3l-17.4-54.4l-14.9-53.4L803-16.8l-4.9-10.9l-3.4-4l-1.9-1.8l-6.2-0.8
			l-3.6,15l3.8,28.6l7.4,34l-13.4-8.7l-28-21.8l-4.4-3.5l-4.6-13.5l-10.8-28l-6-3.5l-5,0.7l-4.1,10.1l2.4,5.6l-0.1,4.1L705.4-33
			l-4.3,1.8l1.2,4.9l-0.9,18l0,0l-7.8-9l-1.8,1.1l10,22.6l1.1,23.7l-1,36.6l-6-22.7L689,14.4l-7.1-24.9l-3.5,0.9l7.3,49.4l14.6,54.6
			l2.6,8.7l-2.4-4.3l-17.8-37.1L670.5,33v-0.9L670.9,3L664-22l-2,0.5l-0.1,23.7l0.1,6.9L653-14l-5.5,2.3L659,28.7l2.2,5.3l0.2,51.2
			l-1.2,44.9l-8.6-41.9l-6.3-62.9l-8-57.1l-11,3l8.4,49.2l5.1,61.9l11,61.6l7.1,58.3l2.6,28.3l0.1,11l0.7,12.4l-7.6-22l-9.1-26.9
			l-16-56l-0.1-0.7l-4.8-52.1l-4.9-32.7l-7.1-30.9l-4.7-34l-6.1-30.4l-14.1,3.1l-1.3-0.9l-11.7,9v0.3l-1.4,7L572.5-1l1.4,14.3
			L556.6,6l-11.4-5.8l-0.8-4.3l-3.6-14.7L528-17.1h-0.1l0.3,6.6l-14.4-10.7l-3.4,2.6l14.3,16.2L513.1,7.7L499.9,18l-16.4,11.3
			l5.2-11.6l6.4-13.3l5.8-10.8l1.4-1.8l0.3-2l-2.5-2.1l-11.5,14l-11.2,24.4l-22.6,45.6l-7.2,13.1l1-59.2l-7.2-35.5L439.7-22
			l-6.2,0.8l-0.8,7.5h-0.1L420.3,4l1.8,15.6l-1.6,24.9l-0.8,11l-10.1-24.7L397.5-3l-10.7-17.8l-1.3,1.4L387.6-8l2.7,14.4L401.9,40
			l16.3,39.7l-0.1,24.6l1,27.7l-1.1,28.5l-0.5,38l-7.3-5.5l-1.8,1.4l7.7,16.1l1.2,2.2l-0.1,5.8l0.4,31.5l-7.1-17.1l-1.7,0.5
			l5.3,28.6l5.4,13.3l0.5,1.1l-0.6,2.5l2.4,12.7l7.6,3.7l12.3-2.5l8.8-8.6l2.1-0.9l3.7-6.3l7-10.8l7.1-13.6l4.2-25.5h-1.3l-9.5,18.2
			l1.1-8.4l3.7-26.2l-0.3-23.6l-1.2,0.2L466,198l-1.9,13.8l-5.2,24.1l-5.7,23.2l-1.8,6.5l-2.2,4.1l1.5-17.1l0.7-32.5l-3.3-66.4
			l-0.8-49.7l11.1-21.3l16.8-35.1l1.6-3.5l5-1.9L507.7,22l20.2-21.9l2.1,1.5l1.5,7.4v0.9l-0.7,29.6L530,99.3l5,58l1,46l-2.3-2.3
			l-1.6-0.5l-12.4-70.1l-5.5,0.7l10.3,76.5l6.7,37.2l3.1,11.2l1.4,9.5l0.3,1.5l1.1,14l2,1.7l4.3,3.6l10-1.1l0.8,1.9l3.5,0.5l4-11.4
			l2.2-14.7l0.5-31.2l-1.3-0.3l-5.6,29.8l-1.6,6.4l0.1-2l-0.9-14.4l-3.9-28.5l-3.3-59l-2.6-59.4L547,43l-0.8-31.1v-0.7l4.4,2.2
			l23.2,10.1l1.6,0.7l0.9,5.4l9.2,57l5.9,38l-1.4-1l-2.7,2.7l5.5,7.3l10.7,68.6l4.6,32.9l4.2,23.6l-5.6-10l-12.5-14.9l-2.8,2.2
			l9.4,17.2l11.6,14.5l1.4,0.4l11.7,7.7l5.8,1.5l24.6-5.1l6.9-5.9l2.5,6.6l8.8,1.1l2-19.4l3.1-0.9l4.1-14.8l0.3-16.2l-4.8-0.6
			l-2.8,14.2l-0.9,12.1L675,247l-1.7-29.9l-2.8-63l1-63.1l-0.9-36.6l6,12.3l20.1,36.9l10.3,16.8l3,5.2l28.3,76l12.7,29.5l1.8,5.6
			l-4.4-5.4l-10-8l-1.4,1.4l7,10l9.8,8.7l1.2,0.3l5.7,13.6l6.3-3.7l-8.9-24.6l-9.7-24.6l-20.3-52.6l-6-17.9l-0.6-3.1l-0.5-0.5
			l-12-38.9l1.3-3l2.5-57.4l-0.4-8.8l4.8,7L731,51.7l4.7,6.4l4.7,20.3l-6.1-0.6l-3.3,4.3l5.2,7.9l6.5,3l1.1,0.1l9.7,39.7l7.1,31.5
			l4.3,22.8l7.8,58.7l8.6,5.2l13.2-5.3l1.2-0.3l5.9-1.2l7.1-12.5l-3.4-6.7l1.1-25.1h-3.3l-2.9,16.4l-2.7-5.7l-8.7-26.5l-14.5-50.8
			l-10.8-53.5l-10.9-53.1l44.8,30.1l2.9,9.9l18.1,54.2l3.9,15.3L811,131l-1.9,1.4l7.8,11l8.3,4.9l7.6,28l13,34.6l-3-3.5L832,194.6
			l-11.1-11.4l-1.8,1.1l6.2,13.3l10.3,13.7l19.1,20.8l2.1,5.9l13.8,7.9l8.3-9.7l8.4-1.3l9.7-4.5L906.5,215.8L906.5,215.8z M724.5,26
			L710.6,6.1l-2.4-19.9l15,16.7l1.6,5.2l2.3,14.8l2.7,11L724.5,26L724.5,26z"/>
	</g>
	<g>
		<defs>
			<rect id="SVGID_26_" width="1000" height="500"/>
		</defs>
		<clipPath id="SVGID_27_">
			<use xlink:href="#SVGID_26_"  style="overflow:visible;"/>
		</clipPath>
		
			<linearGradient id="SVGID_28_" gradientUnits="userSpaceOnUse" x1="47.7" y1="197.2765" x2="47.7" y2="292.2772" gradientTransform="matrix(1 0 0 -1 0 499)">
			<stop  offset="0" style="stop-color:#C5FAC7"/>
			<stop  offset="0.2201" style="stop-color:#B5F3BC"/>
			<stop  offset="0.7198" style="stop-color:#97E6A8"/>
			<stop  offset="1" style="stop-color:#8BE1A0"/>
		</linearGradient>
		<polygon class="st9" points="51.1,201.4 44.2,193.9 41.7,195.2 43.4,205.3 49.6,214.3 53.7,212.6 		"/>
	</g>
	<g>
		<defs>
			<rect id="SVGID_29_" width="1000" height="500"/>
		</defs>
		<clipPath id="SVGID_30_">
			<use xlink:href="#SVGID_29_"  style="overflow:visible;"/>
		</clipPath>
		<g class="st10">
			<path class="st11" d="M828.5,179.7c-21.2-8-39.5,3.4-46.5,23.7c4.8-28.5-30-61.1-58.2-45c-5.5,3.1-36.4,38.2-13.8,38.9
				c-11.4,0.2-23.2,13.5-19.1,24.7c0.5,1.3,1.2,2.4,2,3.2c-5.2,0.3-10.5,3.2-12.3,7c2-33.1-45.1-48-69.3-28.6
				c-11.7,9.3-15,41-1.7,51.1c-11.5-8.5-32.4,2.6-31.1,11.1c-6.7-8.8-19.9-5.1-24.8,3.4c1.5-12.9-1.9-26.6-16.1-30.9
				c-6.4-1.9-14.3-2.7-14.5,5.6c-4.2-20.2-26.2-32.6-43.8-19.6c-13.7,10.1-18.4,27.3-20.5,43.2c-3.3-11.2-12.8-21.7-25.3-21.6
				c-10.3,0.1-17.3,8.7-22.6,16.4c4.7-8.3,4.2-33.1-1.1-40.8c-7.6-11-24.5-7.5-28.4,4.6c0.9-17.3-9.5-38.4-30.6-35.8
				c-11.6,1.4-19.7,22.7-13,29.8c-10.3-4.8-23.4-2.8-30.3,6.8c-2.7,3.8-7.5,9.4-3.4,13.1c-0.1,0.9-0.4,1.3-0.6,1.7
				c-1.2-10.3-19.5-21.1-23.2-13.6c2.5-15.1,0-32.7-13.7-41.8c-14.5-9.7-37.2-6.9-52.3-1.1c-15.6,6-25.2,17.6-30.6,33.1
				c-1.4,4-7.2,16.9,0.2,18.6c3.5,12.4,8.3,25.8,12.5,38.6c12.8,39,57.1,64.9,95.9,70.5c40.8,5.9,80.9,8.8,122.1,7.9
				c71.5-1.7,142.9,1.4,214.2-4.3c52.1-4.2,103.5-7.8,151-31.4c22.4-11.1,36.4-32.4,49.9-51.5C845.1,244.9,866.3,194,828.5,179.7z"
				/>
		</g>
	</g>
	<g>
		<defs>
			<rect id="SVGID_31_" width="1000" height="500"/>
		</defs>
		<clipPath id="SVGID_32_">
			<use xlink:href="#SVGID_31_"  style="overflow:visible;"/>
		</clipPath>
		<g class="st12">
			<path class="st11" d="M112.6,256.1c-3.5-3.9-1.8-10.5-0.9-15.5c3.3-19.4,13.1-32.7,31.6-40c36.5-14.4,75.4,6.6,73.5,48.6
				c4.6-3.8,7.8-8.5,14.6-8.4c9.4,0.2,11.8,11.4,12.2,18.9c2.8-6.2,11.8,7.6,13.7,10.7c3.8-15.6,37-16.3,45.3-6
				c-4.4-2.9,0-9.3,3-12.2c7.5-7.2,23.3-7.3,32.4-5.4c18.5,3.9,28.6,20,37.5,35c2.9-13.2,36.6-13.5,37.5,0.7c0.3-0.6,0.7-1.4,0.9-2
				c4.4,3,9.6,5.4,15,6c0.3-14.8,28.6-7.9,33.3,2.3c1.4,0.7,0.7-0.5,1.4-0.7c3.8-10,8.8-16.7,19.5-19.5s26.8,2.4,29.7,14.3
				c9.9-13.2,28.3-13.3,34.3,3.5c3.8-2.7,10.3-1.3,13.1,2.3c2.1-9.9,22.7-15.5,28.3-5.9c4.7-20.3,28.9-17.6,43.6-11.2
				c-8-21.2,23.9-51.3,42.1-57.4c23.5-7.9,52.3,13.4,43,39.4c2.1-8.9,25.1-19.2,25-6.8c10-12.4,4.5-29.8,22-38
				c5-2.3,32-6.3,30.2,5.1c-1.7-15.6,13.6-22.6,26.4-14.2c7.9,5.2,25,20.4,25.1,31.7c13.5-26.9,63-16.6,69,10.4
				c4.4,19.6-2.8,44.9-4.8,64.6c-10.1-4-32.7,4.4-43.7,5.4c-36.9,3.6-74.2,6.2-110.9,10.7c-89,10.8-179.3,6.8-268.8,8.6
				c-94.9,1.9-189.9,9.8-284.9,10.6c-27.8,0.2-55-6.1-82.8-6.8c-13.6-0.4-27.4,0.8-40.9-1.6c-4.7-0.8-9.3-3-14-3.1
				c13.3-12.7,24-29.5,31.1-46.4C98.3,276,114.4,264.8,112.6,256.1z"/>
		</g>
	</g>
	<g>
		<defs>
			<rect id="SVGID_33_" width="1000" height="500"/>
		</defs>
		<clipPath id="SVGID_34_">
			<use xlink:href="#SVGID_33_"  style="overflow:visible;"/>
		</clipPath>
		<polygon class="st13" points="487.8,-17.6 1009.5,522.3 909.6,522.3 476,-9.3 		"/>
	</g>
	<g>
		<defs>
			<rect id="SVGID_35_" width="1000" height="500"/>
		</defs>
		<clipPath id="SVGID_36_">
			<use xlink:href="#SVGID_35_"  style="overflow:visible;"/>
		</clipPath>
		<polygon class="st14" points="334.6,-22 421.1,517.9 321.1,517.9 316.2,-13.7 		"/>
	</g>
	<g>
		<defs>
			<rect id="SVGID_37_" width="1000" height="500"/>
		</defs>
		<clipPath id="SVGID_38_">
			<use xlink:href="#SVGID_37_"  style="overflow:visible;"/>
		</clipPath>
		<polygon class="st15" points="388.8,-22 585.8,517.9 485.8,517.9 372,-13.7 		"/>
	</g>
	<g>
		<defs>
			<rect id="SVGID_39_" width="1000" height="500"/>
		</defs>
		<clipPath id="SVGID_40_">
			<use xlink:href="#SVGID_39_"  style="overflow:visible;"/>
		</clipPath>
		<polygon class="st16" points="465.5,-22 815.1,517.9 715.1,517.9 451.1,-13.7 		"/>
	</g>
	<g>
		<defs>
			<rect id="SVGID_41_" width="1000" height="500"/>
		</defs>
		<clipPath id="SVGID_42_">
			<use xlink:href="#SVGID_41_"  style="overflow:visible;"/>
		</clipPath>
		
			<linearGradient id="SVGID_43_" gradientUnits="userSpaceOnUse" x1="497.45" y1="264.6829" x2="497.45" y2="-24.4903" gradientTransform="matrix(1 0 0 -1 0 499)">
			<stop  offset="0" style="stop-color:#D5FA88"/>
			<stop  offset="4.609351e-02" style="stop-color:#CDF78A"/>
			<stop  offset="0.1194" style="stop-color:#B6EE8E"/>
			<stop  offset="0.2107" style="stop-color:#90E095"/>
			<stop  offset="0.3155" style="stop-color:#5CCD9F"/>
			<stop  offset="0.3954" style="stop-color:#30BCA8"/>
			<stop  offset="0.5132" style="stop-color:#2EB2A1"/>
			<stop  offset="0.7141" style="stop-color:#2A9790"/>
			<stop  offset="0.9723" style="stop-color:#226B73"/>
			<stop  offset="1" style="stop-color:#216670"/>
		</linearGradient>
		<rect x="-14.6" y="295.2" class="st17" width="1024.1" height="216.9"/>
	</g>
</g>
</svg>
