<?xml version="1.0" encoding="utf-8"?>
<!-- Generator: Adobe Illustrator 23.0.2, SVG Export Plug-In . SVG Version: 6.00 Build 0)  -->
<svg version="1.1" id="layer_1" xmlns="http://www.w3.org/2000/svg" xmlns:xlink="http://www.w3.org/1999/xlink" x="0px" y="0px"
	 viewBox="0 0 1000 500" style="enable-background:new 0 0 1000 500;" xml:space="preserve">
<style type="text/css">
	.st0{clip-path:url(#SVGID_2_);fill:#F1F6E0;}
	.st1{clip-path:url(#SVGID_4_);fill:#F1F6E0;}
	.st2{clip-path:url(#SVGID_6_);fill:#F1F6E0;}
	.st3{clip-path:url(#SVGID_8_);fill:#112A37;}
	.st4{clip-path:url(#SVGID_10_);fill:#112A37;}
	.st5{clip-path:url(#SVGID_12_);fill:#112A37;}
	.st6{clip-path:url(#SVGID_14_);fill:#112A37;}
	.st7{clip-path:url(#SVGID_16_);fill:#112A37;}
	.st8{clip-path:url(#SVGID_18_);fill:#112A37;}
	.st9{clip-path:url(#SVGID_20_);fill:#112A37;}
	.st10{clip-path:url(#SVGID_22_);fill:#112A37;}
	.st11{clip-path:url(#SVGID_24_);fill:#112A37;}
	.st12{clip-path:url(#SVGID_26_);fill:#112A37;}
</style>
<g>
	<g>
		<g>
			<defs>
				<rect id="SVGID_1_" width="1000" height="500"/>
			</defs>
			<clipPath id="SVGID_2_">
				<use xlink:href="#SVGID_1_"  style="overflow:visible;"/>
			</clipPath>
			<polygon class="st0" points="-14.6,313.3 -6.2,309.7 6.6,304.9 30.9,294.3 48.2,276.6 61.6,256.8 62.8,256.4 78.8,231.9 
				83.8,217.1 86.7,205.2 90.1,196 94.4,182.1 94.6,181.6 111.4,171 136.1,156.6 181.3,132 197.5,112.4 216.1,92.8 245.1,49.7 
				247.2,45.5 285.2,27.8 305.7,11 317.9,-4.2 315.8,-8 310.6,-9.1 307.6,-7.7 296.1,3.9 278.6,17 261.5,25.9 254.8,28.9 
				258.1,21.6 267.4,-3.8 265,-6.1 259,-7.7 253.6,-7.5 233.9,37 221.3,54.9 214,62.2 214,62.1 210.7,51.7 209,30.6 208.5,10.8 
				208.9,-8.6 208.1,-8.8 207.1,-11.9 206,-12.2 202,3.2 201.4,28.1 203.4,51.6 205,64.4 205.1,72.6 195.1,86.7 179.1,103.7 
				162.8,118.1 145.3,130.8 120.2,140.1 107.7,145.4 127.3,100.7 148.1,44.3 155.6,17.2 157.3,4.9 159.2,-4.3 156.4,-9.9 
				138.3,-9.9 128,-11.6 123.9,-12.2 124.1,-12.9 119.1,-14.3 118.8,-13.2 117.7,-10.1 117.8,-10 97.1,47.4 90.4,67.8 84.7,64.8 
				71.8,58 57.4,36.6 43.8,14.4 31.8,-9 30.6,-11.8 20.5,-16 15.5,-13.2 15.8,-10.5 15.8,-10.4 27.6,20.7 41.3,50 60.6,74.7 
				82.1,93 77.1,107.8 51.5,166.5 25.2,218.4 3.2,238.8 -15.7,257.8 -19.9,279.6 -19.5,313.9 -17,313.7 			"/>
		</g>
		<g>
			<defs>
				<rect id="SVGID_3_" width="1000" height="500"/>
			</defs>
			<clipPath id="SVGID_4_">
				<use xlink:href="#SVGID_3_"  style="overflow:visible;"/>
			</clipPath>
			<path class="st1" d="M-37,312.7c-2.8,18.3-2.1,37.4,4,54.9c1.1,3.1,2.3,6.2,3.7,9.2c-3,8.4-5.6,17.2-7.8,25.9
				c-3.2-3.4-6.5-6.6-10-9.7c0.8,3.1,1.5,6.3,1.9,9.6c0.4,3,1.5,5.2,0.8,8.2c-2.6-7.7-5.5-15.3-8.7-22.8c-3.8-3.1-7.8-5.9-12.1-8.3
				c-18.7-10.8-42.6,1.3-63.5,6.7c4.6,7.5,9.6,15.6,16.5,21.1c14.4-1,29-0.5,43.3,1.6c-10.7,0.5-22.4,2.7-33.3,5.2
				c3.9,2.3,7.8,4.4,11.8,6.5c10.9,5.8,21.9,11.6,32.8,17.4c2.5,1.3,5,2.6,7.5,4l0,0c5.9,0.1,11.8,0.5,17.6,1.2
				c-0.5,1-1,2.1-1.4,3.2c-1.7,0.6-3.3,1.2-4.9,1.9c1.2,0.7,2.4,1.4,3.7,2.1c-4.5,16.9,1.3,38.5,12.1,48.9
				c17.7,17.2,46.9,19.5,70.3,21.3c31.3,2.4,64.3,3.8,96.4,2.9c1.4,0.7,3,0.9,4.5,0.4l0,0c0.5,0.1,0.9,0.2,1.3,0.2
				c0-0.2,0.1-0.4,0.1-0.6h0.1l0,0c0.1,0.2,0.1,0.4,0.1,0.6c0.1-0.2,0.1-0.3,0.2-0.5l0,0c1.1,0.3,2.2,0.6,3.5,0.7
				c0.5-0.5,1.1-0.9,1.6-1.3c4.3-0.2,8.7-0.4,13-0.7c2.6-0.2,18.8-2.1,35.4-5.5c2,0.5,4.1,1.1,6.1,1.6c-0.5-0.9-0.9-1.8-1.4-2.6
				c2.3-0.5,4.6-1.1,6.9-1.6c2,2.1,4,4.5,5.6,6.9c5,0.9,9.9,1.4,14.8,0.9c-0.3-4.6-1.4-9.2-3-13.5c8.7-3.9,13.2-8.5,8.3-13.9
				c6.2-5.4,36.8-11.9,34.1-20.8c-3.1-10.2-37.1-7.1-43.6-5.2c-4.1,1.2-7.3,3.9-11.4,4.1c10-7.7,37-24.6,36.2-39.8
				c-11.7-4.4-35.7,5.8-46.2,10.9c-9,4.4-15.9,11.5-23.9,17.2c-2.7,1.9-6.9,4.1-10.4,6.8c2.8-4.9,5.8-9.6,9-14.2
				c-5.3,0.4-10.1,0.5-15.8,1.1c7.3-3.8,14.9-7.2,22.6-10.1l0,0c0.7-0.8,1.3-1.6,2-2.5c8.5-9.9,18.4-18.7,24.7-30.1
				c2.3-4.2,4-8.9,5-13.8c-9.6,4.8-18.5,9.6-28.2,14.4c8.3-10.4,18.3-19.3,29.6-26.4c0.2-7.5-1-15.1-3.3-21.8
				c-16.8,0.8-32.7,9.2-44.6,21.3c-2.9,8.3-4.7,16.9-5.5,25.6c-1.4-4.6-3.7-9-4.4-13.4c-3.6,5.4-6.6,11.1-9.1,17.1
				c-0.8-0.5-1.6-0.9-2.4-1.3c-3.2-16.1-8.3-31.9-15.4-47.1c-0.8,3.7-1.1,7.5-1.1,11.2c-0.1,10.3,2.3,20.7,5.1,31
				c-1.6-0.6-3.3-1.1-4.9-1.6l0,0c-4.4,0.9-8.6,2-12.7,3.2c0-1.9,0-3.8,0-5.7c0.3-0.1,0.5-0.3,0.8-0.4c-0.3-0.1-0.5-0.1-0.8-0.2
				c0.3-11.8,2-23.5,5.2-34.8c4.3-15.4,11.1-30.1,14.6-45.8c0.3-1.4,0.6-2.8,0.8-4.2c1-6.9,0.5-14.2-3.9-19.4
				c-15.7,12.2-23.2,32.2-26.7,51.7c-1.9,10.5-2.8,21.2-2.8,31.9c0,6.4,0.3,12.7,1,19.1c-4.6,0.3-9.1,1.6-13.5,3.8
				c-5.5-4-11.4-7.4-17.7-9.9c2.6,5.4,5,10.9,7,16.6c-0.8,0.6-1.5,1.2-2.3,1.8c-5.7-8.2-12.5-15.7-20.2-22.2l0,0
				c-5-0.6-10-0.6-14.9,0.1c0.1-0.2,0.2-0.4,0.3-0.5c-0.5,0.2-1.1,0.5-1.6,0.7c-4.6,0.7-9.1,2-13.3,4c7.1-7.8,15.5-14.4,24.7-19.4
				c3.6-5.3,7.4-10.5,11.4-15.5c7.5-9.6,15.6-19.3,22.8-29.5c-8.1,0.3-16,0.9-24.3,2.4c9.9-5.7,20.5-10.3,31.4-13.4
				c4-6.7,7.4-13.7,9.7-21.1c-15.2-0.6-30.7,0.4-45.3,5.1c-9.6,3.1-18.8,8-26.4,14.6c-2.8,10.1-4,20.7-3.4,31.2
				c-3.1-5.8-6.7-11.1-8.5-17.2c-0.5,0.9-1.1,1.8-1.6,2.7C13,340.3-1,356.6-11,368.8c-0.1-0.4-0.2-0.8-0.2-1.1
				c9-19.7,23.6-40.2,29-60c-14.2,7.2-25.7,24.2-34.1,40c-3.9-12.8-9.4-25.6-18.6-35L-37,312.7z M143.2,436.6c2.3-1.3,4.6-2.5,7-3.8
				c0.2,1.1,0.5,2.2,0.7,3.3c-0.7,3-1.3,6-1.8,9.1c-1.1,6.3-1.8,12.6-2.3,18.9c-1,1.1-2,2.3-2.9,3.5c-3-8.7-6.8-17.2-11.6-25.2
				c0.8-0.4,1.6-0.8,2.4-1.2c-1.5-0.8-3.1-1.6-4.6-2.4c-0.4-0.6-0.8-1.3-1.2-1.9c-0.2-1.1-0.4-2.2-0.6-3.4
				C133.3,434.3,138.2,435.3,143.2,436.6z M8.7,431.3c0.2,2,0.4,4.1,0.7,6.1c-0.7-1.7-1.3-3.5-2-5.2C7.9,431.9,8.3,431.6,8.7,431.3z
				 M8.4,416.6c-2.1-0.1-4.4,0-6.6,0.2c-0.9-2.6-1.8-5.2-2.7-7.9c3.5-3.4,7.3-6.5,11.2-9.6C9.3,405,8.6,410.8,8.4,416.6z
				 M-6.6,417.8c-0.7,0.1-1.4,0.1-1.9,0.1c0.3-0.5,0.7-1.1,1.1-1.6C-7.1,416.8-6.8,417.3-6.6,417.8z M-4,439.3c2-1.1,4-2.2,6-3.5
				c2,4.9,3.9,9.8,5.6,14.8c-1.4,2.7-2.6,5.6-3.4,8.4c-1.7-3.4-3.4-6.8-5.2-10.1C-1.8,445.5-2.8,442.2-4,439.3z M28.3,462.4
				c-0.4-6.4,4.1-17.4-2.5-21.3c3.1-9.2,7.9-17.9,13-26.2c1.5,3.7,3.4,7.3,5.7,10.7C38,436.5,33,448.5,30.2,460.8
				C29.5,461.3,28.9,461.8,28.3,462.4z M43.4,456.3c2.4-3.7,4.9-7.2,7.4-10.8c1.6-2.3,3.2-4.6,4.7-6.9c1.7,1.6,3.5,3.2,5.3,4.7
				c-4.1,5.2-8,10.6-11.6,16.1C47.9,457.6,45.9,456.6,43.4,456.3z M93.7,470.9c-0.1,0-0.2,0-0.3,0c0.7-2,1.1-3.8,1.2-5.3
				c0.5,0.3,1,0.6,1.5,0.9C95.3,468,94.5,469.5,93.7,470.9z M88.5,450.2c-0.1-0.6-0.2-1.2-0.3-1.8c0.4,0.5,0.8,1.1,1.2,1.6
				C89.1,450.1,88.8,450.1,88.5,450.2z M115.3,411.2c0.1,0.9,0.3,1.9,0.4,2.8c-1.4,0.5-2.9,1.1-4.3,1.7c-0.3-0.3-0.6-0.6-0.9-0.9
				C112.1,413.6,113.7,412.4,115.3,411.2z M35.5,401.2c-0.5,0.3-1,0.5-1.5,0.8c0.5-0.6,0.9-1.2,1.4-1.7
				C35.4,400.6,35.4,400.9,35.5,401.2z M8.6,366.7c3.2-4.2,9.6-10.7,14.6-17.1c-2,5.6-3.6,11.3-5.2,17.1c-1.1,3.9-2.2,7.9-3.2,11.9
				c-7.4,2.6-14.5,6.6-21.2,10.9c-0.3-1.1-0.5-2.2-0.8-3.4C-1.9,379.6,3.6,373.3,8.6,366.7z"/>
		</g>
		<g>
			<defs>
				<rect id="SVGID_5_" width="1000" height="500"/>
			</defs>
			<clipPath id="SVGID_6_">
				<use xlink:href="#SVGID_5_"  style="overflow:visible;"/>
			</clipPath>
			<path class="st2" d="M1062.7,493.8c-3.1-1.3-6.1-2.7-9.1-4.1c-0.8-0.4-1.9-1.1-3.1-1.9c0.7-0.6,1.4-1.2,2-1.8
				c4.3,0.4,8.5,1.1,12.7,2c-2.8-2.3-5.8-4.2-9-5.8c5-5.8,8.1-12.6,7-21.4c-1.6-13-7.9-24.7-15.6-34.9l13.5-2.1l1-14.1l40.6,12.8
				l-16-38.9l-10-13.5l-12-72.3l-7.1-40.9l-16-45.5l-18.7-57.8l-2.1-34.3l5.1-45.3l0.8-17.5l7-4.9l18.3-28.2l10.2-34.9l-3.6-1
				l-32,57.8l-0.1,0.1l-1.6-15.7l-10.2-44.9l-4.8-1.1l-11.2,5.7l-0.8,10.2l-1,16.3l-3.1,34.5l-2,17.3l-1,6.2l-17.6-37L952.2,0
				l-11.1-17.1l-5.4-14.5l-1.4-3.8l-1.9-1.5l-1.5,0.4l-1,0.3l-16.6,2.8l-19.8,0.3l-3.1,5.3l31.7,71l16.4,34.6l11.1,23.9l-17.8-5.1
				l-37-8.7l-7.8-4.4l-1.9-3.9l-6.4-21.2l-11.5-56L865.1,3l3.7,36.6l4.6,24.4l3.3,11.5l-14-13.5L833,28.8L819,8.2l-4.3-6.6l-2.1-3.5
				l-2,0.5l-2.8-4.7l-1.4,2l-2.8-0.1L803-4l-1.9-1.6l-1.5,1.1l5.7,16l0.9,2.1L795-0.6l-2.6,1.1L804.6,24l16.5,22.1l7,12.1
				l-36.5-20.5L765.2,8.4l-6.5-8.7l-5.3-6.4l-6.2,2.1l0.5,1v0.3l0.1,1l1.3,3.4l5.1,8.7l10.9,16.5l27,24.7l47.4,22.6l11.2,12.7
				l0.7,0.7l8.4,10.2l78.1,43.3l30.1,14.2l9.6,29.4l10.2,33.2l5.7,28.4c-7.1-9.1-15.2-16.8-24.2-21.3c6.2,23.2,23,47.3,34.1,70.5
				l0.9,4.2c-7-8.6-15.7-18.8-25.4-26.7c-0.6-1.2-1.4-2.3-2.3-3.4c-0.4,0.3-0.7,0.6-1,0.8c-6.7-4.9-13.8-8.5-21.3-9.6
				c0.8,5.7,5.8,12.8,11.5,19.5c-6.6,8.2-11.3,17.9-14.7,28.2c-0.5,0-1.1,0-1.6,0.1c0.3,0.6,0.7,1.2,1,1.8
				c-1.9,6.1-3.4,12.3-4.5,18.6c-2.2,12.1-3.2,24.3-3.2,36.6c0,11.5,1,23.1,2.9,34.4l-4,2.6l-0.2,0.2c-9.6-9.5-20.7-17.5-33.2-22.4
				c4.9,10.1,8.9,20.2,11.9,31.3c-7.6-13.6-17.7-25.7-29.6-35.8l0,0c-12.8-1.5-26,0.4-37.1,6.5c0.4,13,5.9,25.2,13.8,35.6
				c-0.4,1.3-0.8,2.7-1.2,4c-2.8,9.8-4.2,19.9-6.8,29.7c-2.4,8.8-5.7,17.5-9,26.1c0.3-2.1,0.5-4.2,0.7-6.4
				c0.8-13.5-2.7-26.8-6.3-39.8c-2-7.3-4.1-14.8-8.1-21.2c-1.2,4-3.6,7.5-5.6,11.2c0.4-6.8-0.4-13.8-2.2-20.4
				c-5-4.3-10.9-7.5-17.2-9.5c-9.5-3.1-19.6-3.7-29.5-3.3c1.5,4.8,3.7,9.4,6.3,13.8c7.2,2.1,14.1,5,20.5,8.8
				c-5.4-0.9-10.5-1.3-15.8-1.5c4.7,6.7,10,13,14.9,19.2c2.6,3.3,5,6.7,7.4,10.1c7.3,4,13.8,9.4,18.9,15.9
				c-4.1-2.4-8.2-4.5-12.5-6.3c2,3,3.9,6.1,5.9,9.2c2.4,3.8,4.8,7.6,7,11.6c-3.8-1.9-7.6-3.7-11.1-4.9c-1.9-2.6-4.1-4.9-6.6-6.8
				c-1.1-0.8-2.7-1.5-3.8-0.6c-0.8,0.7-0.9,1.9-0.7,3c0.1,0.9,0.3,1.8,0.5,2.7c-1.5,0.3-2.7,0.9-3.5,2c-1.1,1.5-1.6,3.8-1.8,6.6
				c-7.4-7.7-18.3-17.7-29.7-15.7c-1.4,0.2-2.9,0.5-4.3,0.8c4.6,2.2,8.9,5.1,12.7,8.5c-6.8-3.2-13.3-5.1-20.4-6.6l0,0
				c-7,2-13.7,5.1-19,10c5.3,3.1,10.7,6.1,16.2,9.1c5.3-1.4,10.7-2.3,16.2-2.7c-3.6,1.8-7.1,3.8-10.7,5.6c7.9,4.2,16,8.1,24.2,11.5
				c2.2-2,4.3-4.3,6.1-6.8c-0.5,2.9-1.2,5.7-2.2,8.4c5.9,2.4,12,4.7,17.6,7.7c4,9.4,9.1,16.8,13.9,16.7c1.2-0.7,2.4-1.1,3.5-1.5
				c0.7,1.1,1.4,2.3,2.1,3.5c1.1,1.8,2.1,3.5,3.2,5.3c0.2,0.3,0.4,0.6,0.7,0.8c0.5,0.2,1-0.4,1.3-1.3c0.4,0.1,0.9,0.1,1.2,0
				c0.1,1.1,0.4,2,1.3,2.3c1.4,0.6,1.9-2.1,2.3-3.1c0.6-1.8,1.2-3.5,1.9-5.2c2.2,1.2,4.2,2.4,6.3,3.3c36.4,15.6,82.7,14.9,124.5,3.3
				c2,1.4,4.3,2,6.5,1.3l0,0c0.5,0.1,1,0.2,1.4,0.3c0-0.2,0.1-0.4,0.1-0.7h0.1l0,0c0.1,0.2,0.1,0.4,0.2,0.6c0.1-0.2,0.1-0.4,0.2-0.5
				l0,0c1.2,0.4,2.5,0.7,4,0.8c12.4-10.7,29.3-14.1,45.5-11.4c6.2,1.1,12.5,2.8,18.9,4.5c-3.6-6.7-7.2-13.5-10.8-20.2
				c1,2,5.6,4.2,7.4,5.8c2.5,2.1,4.8,4.3,7,6.7c3.1,3.2,6.5,6.9,9.2,10.8c5.7,1.1,11.3,1.6,16.9,1c-0.7-8.7-3.4-17.4-8.1-24.7
				C1070.7,497.5,1066.3,495.3,1062.7,493.8z M980.9,297.3c8.4,11.2,18.3,21.7,26.3,33c-10-6.4-20.4-13.2-31.6-17.6
				c1.8-5.4,3.4-10.8,4.6-16.3C980.4,296.7,980.7,297,980.9,297.3z M963.5,348.6c1.7-6.3,3.9-12.5,6.1-18.6
				c9.9,8.1,20.9,15.8,28.6,25.3l-2.6,4.3c-5.1-0.6-11.6-1.5-16.6-0.8c-1.8-4.5-3.7-8.9-5.7-13.3c-0.9,4.3-1.3,8.6-1.3,12.9
				c0,1.5,0,2.9,0.1,4.4c-0.2,0.5-0.3,1-0.4,1.6c-0.1,1.1,0.2,2.2,0.7,3.4c0.4,4.2,1.1,8.4,2,12.5l-6.9,5l-10,6.6
				C957.6,377.2,959.6,362.7,963.5,348.6z M884.5,434.8c17.6-2.7,35.7-2,53,2.2c-4.5,0.5-8.9,1.2-13.4,2.1
				c-8.9-2.5-17.7-3.8-25.2,0.5c-2.8,1.6-5.4,3.4-7.9,5.4c-2,4.6-3.8,9.3-5.4,14c-0.1-0.1-0.3-0.2-0.4-0.2c0-1.4,0.5-2.6,0.7-4.2
				c0.3-2.1,0.7-4.2,1.2-6.2c-2.6,2.4-5.1,4.9-7.6,7.4c-4.1-1.9-8.4-2.9-13.3-1.2c4.4-7.4,8.8-14.7,11.6-22.8
				c0.2-0.7,0.5-1.4,0.7-2.1C880.5,431.5,882.5,433.2,884.5,434.8z M854.2,478.6c0.3,1.1,1,2.1,2,2.7c-0.7-0.4-1.5-0.9-2.5-1.5
				C853.8,479.4,854,479,854.2,478.6z M839,516.3c0-0.3-0.1-0.5-0.1-0.8c0.1,0,0.2,0,0.3,0.1C839.1,515.8,839.1,516,839,516.3z"/>
		</g>
		<g>
			<defs>
				<rect id="SVGID_7_" width="1000" height="500"/>
			</defs>
			<clipPath id="SVGID_8_">
				<use xlink:href="#SVGID_7_"  style="overflow:visible;"/>
			</clipPath>
			<polygon class="st3" points="313.5,-5.9 308.3,-7 305.3,-5.6 293.9,6 276.3,19.1 259.3,28 252.5,31 255.8,23.7 265.1,-1.7 
				262.8,-4.1 256.7,-5.6 251.4,-5.5 231.6,39.1 219,57 211.8,64.2 211.7,64.2 208.4,53.7 206.7,32.7 206.2,12.9 206.6,-6.5 
				205.8,-6.7 204.8,-9.8 203.7,-10.1 199.7,5.3 199.1,30.2 201.1,53.7 202.7,66.4 202.8,74.7 192.8,88.8 176.8,105.8 160.6,120.2 
				143,132.9 118,142.1 105.4,147.4 125.1,102.8 145.8,46.3 153.3,19.3 155,6.9 156.9,-2.3 154.1,-7.9 136,-7.8 125.7,-9.6 
				121.7,-10.2 121.9,-10.8 116.8,-12.2 116.5,-11.1 115.4,-8 115.5,-7.9 94.8,49.5 88.1,69.8 82.5,66.9 69.5,60.1 55.1,38.7 
				41.5,16.5 29.5,-7 28.3,-9.7 18.2,-13.9 13.3,-11.1 13.5,-8.5 13.5,-8.3 25.3,22.8 39,52.1 58.3,76.8 79.8,95.1 74.8,109.9 
				49.2,168.5 23,220.5 0.9,240.8 -18,259.9 -22.2,281.7 -21.8,315.9 -17.3,315.6 -8.5,311.7 4.3,307 28.6,296.4 45.9,278.7 
				59.3,258.8 60.5,258.4 76.5,234 81.5,219.2 84.4,207.3 87.8,198.1 92.2,184.2 92.3,183.7 109.1,173.1 133.8,158.6 179,134 
				195.3,114.5 213.9,94.8 242.8,51.8 244.9,47.6 282.9,29.9 303.5,13.1 315.7,-2.1 			"/>
		</g>
		<g>
			<defs>
				<rect id="SVGID_9_" width="1000" height="500"/>
			</defs>
			<clipPath id="SVGID_10_">
				<use xlink:href="#SVGID_9_"  style="overflow:visible;"/>
			</clipPath>
			<polygon class="st4" points="1088.2,385.3 1078.2,371.9 1066.2,299.5 1059.1,258.7 1043.2,213.2 1024.5,155.4 1022.3,121 
				1027.4,75.7 1028.2,58.2 1035.2,53.3 1053.5,25.1 1063.7,-9.8 1060.1,-10.8 1028,47 1027.9,47.1 1026.3,31.4 1016.2,-13.5 
				1011.3,-14.5 1000.1,-8.9 999.3,1.3 998.3,17.6 995.2,52.1 993.1,69.5 992.2,75.7 974.5,38.7 953.7,1.6 942.6,-15.5 937.2,-30 
				935.8,-33.8 933.9,-35.4 932.4,-35 931.4,-34.8 914.8,-32 895,-31.6 891.9,-26.3 923.6,44.7 940,79.3 951.1,103.1 933.2,98 
				896.2,89.3 888.4,84.9 886.5,81.1 880.1,59.8 868.6,4.1 866.5,4.6 870.3,41.3 874.9,65.6 878.2,77.1 864.2,63.6 834.4,30.4 
				820.5,9.8 816.2,3.2 814.1,-0.3 812.1,0.2 809.3,-4.5 807.9,-2.5 805.1,-2.5 804.4,-2.3 802.5,-3.9 801.1,-2.8 806.8,13.2 
				807.7,15.3 796.5,1 793.9,2.1 806,25.6 822.5,47.7 829.5,59.8 793.1,39.3 766.6,10 760.2,1.3 754.8,-5.1 748.6,-3.1 749.1,-2.1 
				749.2,-1.8 749.3,-0.8 750.6,2.6 755.7,11.3 766.6,27.8 793.5,52.7 840.9,75.3 852.2,88 852.8,88.7 861.2,98.9 939.4,142.2 
				969.5,156.4 979.1,185.8 989.3,219 1003,286.9 1009.4,318.3 1009.9,333.6 1004.3,349 991.3,370.8 968.9,386.8 943.1,403.8 
				934.2,412.5 930.7,415.8 929.7,417.2 929,417.1 926.7,418.9 963.3,418.4 979.2,395.5 991.6,391.4 1020.3,395.9 1037.7,429.3 
				1062.6,425.4 1063.6,411.4 1104.2,424.2 			"/>
		</g>
		<g>
			<defs>
				<rect id="SVGID_11_" width="1000" height="500"/>
			</defs>
			<clipPath id="SVGID_12_">
				<use xlink:href="#SVGID_11_"  style="overflow:visible;"/>
			</clipPath>
			<path class="st5" d="M1076.4,500.6c-4.3-1.5-8.7-3.7-12.2-5.2c-3.1-1.3-6.1-2.7-9.1-4.1c-2-1-6-4.2-8.2-4.3
				c6.7,0.3,13.3,1.2,19.8,2.6c-6.5-5.4-14.6-9-23-9.9c-13.7-1.4-27.6,4.3-38.1,13.2c-3.2,2.7-6.2,5.8-8.9,9l0,0l0,0
				c5.1-11.9,10.5-23.7,16.7-35c3.8-6.9,7.9-13.6,12.5-20.1c-6.1,0.4-11.6,0.6-18.1,1.2c8.4-4.3,17.1-8.2,26-11.6l0,0
				c0.8-0.9,1.5-1.9,2.3-2.8c9.7-11.3,21.1-21.5,28.3-34.5c2.7-4.8,4.6-10.2,5.8-15.9c-11,5.5-21.2,11-32.4,16.5
				c9.5-11.9,21-22.2,33.9-30.3c0.2-8.6-1.1-17.3-3.7-25.1c-19.3,0.9-37.5,10.6-51.1,24.4c-3.3,9.5-5.4,19.4-6.4,29.3
				c-1.6-5.3-4.3-10.3-5-15.3c-5,7.4-8.9,15.5-12.1,23.8c-3.5-20.5-9.7-40.6-18.8-59.7c-0.9,4.3-1.3,8.6-1.3,12.9
				c-0.2,19.7,7.4,39.4,12.3,58.8c0.7,2.6,1.2,5.3,1.8,8c-0.8,3.5-1.5,6.9-2.1,10.4c-1.9,11.1-2.8,22.3-3.3,33.6c0,0.2,0,0.4,0,0.6
				l0,0l0,0l0,0l0,0c-4.2-15.4-11-30.3-19.8-43.7c-5.1-25.5-4.2-52.3,2.8-77.4c4.9-17.7,12.8-34.6,16.7-52.5
				c0.3-1.6,0.6-3.2,0.9-4.8c1.1-7.9,0.6-16.3-4.5-22.2c-18,14-26.6,36.9-30.6,59.4c-2.2,12.1-3.2,24.3-3.2,36.6
				c0,14.6,1.5,29.3,4.6,43.6c-10.9-12.2-24-22.7-39.2-28.7c4.9,10.1,8.9,20.2,11.9,31.3c-7.6-13.6-17.7-25.7-29.6-35.8l0,0
				c-12.8-1.5-26,0.4-37.1,6.5c0.5,16.8,9.6,32.5,21.5,44.4c3,3,6.2,5.8,9.5,8.5c17.6-2.7,35.7-2,53,2.2
				c-12.8,1.5-25.6,4.5-38.1,8.3c5.5,3.5,11.1,6.9,16.6,10.2c5.4,3.3,10.8,6.6,16,10.1c-4.7-0.7-9.6-0.9-14.3-0.6
				c-4.9,0.3-9.7,1.2-14.5,2.4c3.9,2.8,7.5,7.4,10.1,11.2c-6.4-3.4-13.2-6-20.1-7.9c-7.3,2.9-14.3,6.6-20.9,10.9
				c6.7,10,17.7,16.2,29.6,17.8c11.9,1.6,24,0.7,36,2c11.9,1.4,24.3,5.5,31.7,15c2,2.5,3.6,5.4,6,7.5v0.1h0.1
				c2.1,1.7,4.7,2.6,7.2,1.8l0,0c0.5,0.1,1,0.2,1.4,0.3c0-0.2,0.1-0.4,0.1-0.7h0.1l0,0c0.1,0.2,0.1,0.4,0.2,0.6
				c0.1-0.2,0.1-0.4,0.2-0.5l0,0c1.2,0.4,2.5,0.7,4,0.8c12.4-10.7,29.3-14.1,45.5-11.4c6.2,1.1,12.5,2.8,18.9,4.5
				c-3.6-6.7-7.2-13.5-10.8-20.2c1,2,5.6,4.2,7.4,5.8c2.5,2.1,4.8,4.3,7,6.7c3.1,3.2,6.5,6.9,9.2,10.8c5.7,1.1,11.3,1.6,16.9,1
				C1083.9,516.6,1081.1,508,1076.4,500.6z"/>
		</g>
		<g>
			<defs>
				<rect id="SVGID_13_" width="1000" height="500"/>
			</defs>
			<clipPath id="SVGID_14_">
				<use xlink:href="#SVGID_13_"  style="overflow:visible;"/>
			</clipPath>
			<path class="st6" d="M226.3,502.4c-3.7-1.3-7.6-3.2-10.7-4.5c-2.7-1.1-5.3-2.3-7.9-3.6c-1.8-0.9-5.2-3.6-7.1-3.7
				c5.8,0.3,11.6,1,17.3,2.2c-5.7-4.7-12.7-7.8-20-8.6c-12-1.3-24,3.7-33.2,11.5c-2.8,2.4-5.4,5-7.7,7.8l0,0l0,0
				c4.4-10.4,9.1-20.7,14.6-30.5c3.3-6,6.9-11.9,10.9-17.5c-5.3,0.4-10.1,0.5-15.8,1.1c7.3-3.8,14.9-7.2,22.6-10.1l0,0
				c0.7-0.8,1.3-1.6,2-2.5c8.5-9.9,18.4-18.7,24.7-30.1c2.3-4.2,4-8.9,5-13.8c-9.6,4.8-18.5,9.6-28.2,14.4
				c8.3-10.4,18.3-19.3,29.6-26.4c0.2-7.5-1-15.1-3.3-21.8c-16.8,0.8-32.7,9.2-44.6,21.3c-2.9,8.3-4.7,16.9-5.5,25.6
				c-1.4-4.6-3.7-9-4.4-13.4c-4.3,6.5-7.8,13.5-10.6,20.8c-3.1-17.9-8.5-35.4-16.4-52.1c-0.8,3.7-1.1,7.5-1.1,11.2
				c-0.1,17.1,6.5,34.3,10.7,51.3c0.6,2.3,1.1,4.6,1.6,6.9c-0.7,3-1.3,6-1.8,9.1c-1.6,9.7-2.5,19.5-2.9,29.3c0,0.2,0,0.3,0,0.5l0,0
				l0,0l0,0l0,0c-3.7-13.5-9.6-26.4-17.3-38.1c-4.5-22.3-3.7-45.6,2.4-67.4c4.3-15.4,11.1-30.1,14.6-45.8c0.3-1.4,0.6-2.8,0.8-4.2
				c1-6.9,0.5-14.2-3.9-19.4c-15.7,12.2-23.2,32.2-26.7,51.7c-1.9,10.5-2.8,21.2-2.8,31.9c0,12.7,1.4,25.5,4,38
				c-9.5-10.7-20.9-19.8-34.2-25c4.3,8.8,7.8,17.6,10.4,27.3c-6.7-11.8-15.5-22.4-25.8-31.2l0,0c-11.2-1.3-22.7,0.3-32.4,5.7
				C33.6,415,41.6,428.6,52,439c2.6,2.6,5.4,5.1,8.3,7.4c15.3-2.4,31.1-1.7,46.2,1.9c-11.1,1.3-22.4,3.9-33.2,7.3
				c4.8,3.1,9.7,6,14.5,8.9c4.7,2.8,9.4,5.7,14,8.8c-4.1-0.6-8.4-0.8-12.5-0.5c-4.3,0.3-8.5,1-12.6,2.1c3.4,2.5,6.5,6.4,8.8,9.7
				c-5.6-2.9-11.5-5.2-17.6-6.9c-6.4,2.5-12.5,5.8-18.2,9.5c5.9,8.7,15.4,14.1,25.8,15.5s21,0.6,31.4,1.8
				c10.4,1.2,21.2,4.8,27.7,13.1c1.7,2.2,3.1,4.7,5.2,6.5v0.1h0.1c1.8,1.5,4.1,2.3,6.3,1.6l0,0c0.5,0.1,0.9,0.2,1.3,0.2
				c0-0.2,0.1-0.4,0.1-0.6h0.1l0,0c0.1,0.2,0.1,0.4,0.1,0.6c0.1-0.2,0.1-0.3,0.2-0.5l0,0c1.1,0.3,2.2,0.6,3.5,0.7
				c10.8-9.3,25.6-12.3,39.6-9.9c5.4,0.9,10.9,2.5,16.5,4c-3.1-5.9-6.3-11.7-9.4-17.6c0.9,1.7,4.9,3.7,6.4,5
				c2.1,1.8,4.2,3.8,6.1,5.8c2.7,2.8,5.7,6,8,9.4c5,0.9,9.9,1.4,14.8,0.9C232.8,516.4,230.4,508.9,226.3,502.4z"/>
		</g>
		<g>
			<defs>
				<rect id="SVGID_15_" width="1000" height="500"/>
			</defs>
			<clipPath id="SVGID_16_">
				<use xlink:href="#SVGID_15_"  style="overflow:visible;"/>
			</clipPath>
			<path class="st7" d="M165.8,424.6c-8.1-7.5-18.4-12.2-29.2-15.3l0,0c-11,2.4-20.9,5.2-31.3,10.2c5.8-5.3,12.4-9.7,19.5-13.1
				c-2.2-0.5-4.4-0.9-6.6-1.3c-17.9-3.1-35,13.2-46.4,25c-18.2,19-32.8,41.3-43.1,65.5c0.4-4.5,0.7-8.9,1.6-13.3
				c2.7-13,10.8-24.1,18.4-34.9c7.6-10.9,15.1-22.4,16.7-35.6c0.2-1.6,0.2-3.6-1.1-4.6c-1.6-1.3-4.1-0.3-5.8,1
				c-5.8,4.2-10.2,10.1-14.1,16.1c-10.6,16.7-17.6,35.8-18.7,55.5c-0.3,5.1-0.2,10.2-0.5,15.3c0,0.8-0.3,2.2-0.6,3.8
				c-4.2-15.9-6.5-32.6-2.9-48.6c3.4-15.2,12-28.7,20.4-41.9c3-4.7,6-9.4,9-14.1c-6.5,2.8-12.8,6-19.1,9.7c7.9-10,17.8-18.3,29-24.4
				c3.6-5.3,7.4-10.5,11.4-15.5c7.5-9.6,15.6-19.3,22.8-29.5c-8.1,0.3-16,0.9-24.3,2.4c9.9-5.7,20.5-10.3,31.4-13.4
				c4-6.7,7.4-13.7,9.7-21.1c-15.2-0.6-30.7,0.4-45.3,5.1c-9.6,3.1-18.8,8-26.4,14.6c-2.8,10.1-4,20.7-3.4,31.2
				c-3.1-5.8-6.7-11.1-8.5-17.2c-6.1,9.8-9.3,21.3-12.4,32.5c-5.5,20-10.8,40.4-9.7,61.1c0.2,3.3,0.5,6.5,1,9.8
				c-5-13.2-10.2-26.4-13.8-40c-4-15.1-6.2-30.6-10.5-45.6s-10.3-30.7-21.8-41.3c-3.2,19-2.7,38.8,3.6,57
				c5.9,17.1,16.6,32,25.2,47.9C0.3,436.5,7.8,456.9,12.2,478c0.6,2.9,1.2,5.9,1.8,8.8c-0.2-0.4-0.4-0.9-0.6-1.3
				c-3.3-7.1-6.6-14.1-10-21.2c-4.2-8.7-8.6-17.4-14-25.4c-5.8-8.7-12.7-16.5-19.7-24.2c-6.1-6.8-12.4-13.5-19.2-19.6
				c0.8,3.1,1.5,6.3,1.9,9.6c0.4,3,1.5,5.2,0.8,8.2c-2.6-7.7-5.5-15.3-8.7-22.8c-3.8-3.1-7.8-5.9-12.1-8.3
				c-18.7-10.8-42.6,1.3-63.5,6.7c4.6,7.5,9.6,15.6,16.5,21.1c14.4-1,29-0.5,43.3,1.6c-10.7,0.5-22.4,2.7-33.3,5.2
				c3.9,2.3,7.8,4.4,11.8,6.5c10.9,5.8,21.9,11.6,32.8,17.4c2.5,1.3,5,2.6,7.5,4l0,0c7.9,0.1,15.8,0.8,23.6,2.1
				c-4.4,1.1-8.3,2.6-12.3,4.2c9.4,5.3,18.5,11.1,26.9,17.9c7.4,6,14.3,12.8,20,20.5c2.9,3.9,5.4,8,7.6,12.3
				c1.4,2.8,2.3,5.7,3.3,8.7c0.5,1.5,1.4,5.7,3.5,4.8c1.4-0.6,1.9-1.9,2-3.6c0.6,0.1,1.3,0.2,1.9,0c0.5,1.3,1.2,2.3,2,2
				c0.5-0.2,0.8-0.7,1.1-1.2c1.6-2.7,3.3-5.4,4.9-8.1c2.1-3.5,4.2-7,6.7-10.2c12.2-15.6,31.8-22.9,50.2-30.3
				c-1.6-4.1-2.7-8.4-3.4-12.8c2.8,3.8,6,7.3,9.4,10.4c12.5-5.2,24.9-11.2,37.1-17.6c-5.5-2.8-10.8-5.8-16.4-8.6
				c8.4,0.5,16.8,1.9,24.9,4.1C149.4,434,157.7,429.3,165.8,424.6z"/>
		</g>
		<g>
			<defs>
				<rect id="SVGID_17_" width="1000" height="500"/>
			</defs>
			<clipPath id="SVGID_18_">
				<use xlink:href="#SVGID_17_"  style="overflow:visible;"/>
			</clipPath>
			<path class="st8" d="M748.3,469.4c5.3-4.9,12-7.9,19-10l0,0c7.2,1.5,13.6,3.4,20.4,6.6c-3.8-3.5-8.1-6.3-12.7-8.5
				c1.4-0.3,2.9-0.6,4.3-0.8c11.7-2,22.8,8.6,30.2,16.3c11.9,12.4,21.4,26.9,28.1,42.7c-0.3-2.9-0.4-5.8-1-8.7
				c-1.8-8.5-7-15.7-12-22.8s-9.9-14.6-10.9-23.2c-0.1-1.1-0.1-2.3,0.7-3c1.1-0.9,2.7-0.2,3.8,0.6c3.8,2.7,6.7,6.6,9.2,10.5
				c6.9,10.9,11.5,23.3,12.2,36.2c0.2,3.3,0.1,6.7,0.3,10c0,0.5,0.2,1.4,0.4,2.5c2.8-10.4,4.2-21.3,1.9-31.7
				c-2.2-9.9-7.8-18.7-13.3-27.3c-1.9-3.1-3.9-6.1-5.9-9.2c4.2,1.8,8.4,3.9,12.5,6.3c-5.1-6.5-11.6-12-18.9-15.9
				c-2.4-3.4-4.8-6.8-7.4-10.1c-4.9-6.3-10.2-12.6-14.9-19.2c5.3,0.2,10.5,0.6,15.8,1.5c-6.4-3.7-13.3-6.7-20.5-8.8
				c-2.6-4.4-4.8-8.9-6.3-13.8c9.9-0.4,20,0.2,29.5,3.3c6.3,2,12.2,5.2,17.2,9.5c1.9,6.6,2.6,13.5,2.2,20.4c2-3.8,4.4-7.3,5.6-11.2
				c4,6.4,6.1,13.9,8.1,21.2c3.6,13,7.1,26.3,6.3,39.8c-0.1,2.1-0.4,4.3-0.7,6.4c3.3-8.6,6.6-17.2,9-26.1c2.6-9.8,4-20,6.8-29.7
				c2.8-9.8,6.7-20,14.2-26.9c2.1,12.4,1.7,25.3-2.4,37.2c-3.9,11.1-10.8,20.9-16.4,31.2c-6.7,12.3-11.6,25.6-14.5,39.4
				c-0.4,1.9-0.8,3.8-1.2,5.7c0.1-0.3,0.3-0.6,0.4-0.8c2.1-4.6,4.3-9.2,6.5-13.8c2.7-5.7,5.6-11.3,9.1-16.6
				c3.8-5.6,8.3-10.8,12.9-15.8c4-4.4,8.1-8.8,12.5-12.8c-0.6,2-1,4.1-1.2,6.2c-0.2,2-1,3.4-0.6,5.3c1.7-5,3.6-10,5.7-14.9
				c2.5-2,5.1-3.8,7.9-5.4c12.2-7,27.8,0.8,41.4,4.4c-3,4.9-6.3,10.2-10.8,13.8c-9.4-0.6-18.9-0.3-28.3,1.1c7,0.3,14.6,1.7,21.7,3.4
				c-2.5,1.5-5.1,2.9-7.7,4.3c-7.1,3.8-14.3,7.6-21.4,11.4c-1.6,0.9-3.3,1.7-4.9,2.6l0,0c-5.1,0.1-10.3,0.5-15.4,1.3
				c2.9,0.7,5.4,1.7,8,2.7c-6.1,3.5-12.1,7.2-17.5,11.7c-4.9,3.9-9.3,8.4-13,13.4c-1.9,2.5-3.5,5.2-5,8c-0.9,1.8-1.5,3.7-2.2,5.7
				c-0.3,1-0.9,3.7-2.3,3.1c-0.9-0.4-1.3-1.3-1.3-2.3c-0.4,0.1-0.8,0.1-1.2,0c-0.3,0.9-0.8,1.5-1.3,1.3c-0.3-0.1-0.5-0.5-0.7-0.8
				c-1.1-1.8-2.1-3.5-3.2-5.3c-1.4-2.3-2.8-4.5-4.4-6.6c-7.9-10.2-20.7-14.9-32.7-19.7c1-2.7,1.8-5.5,2.2-8.4
				c-1.8,2.5-3.9,4.7-6.1,6.8c-8.2-3.4-16.2-7.3-24.2-11.5c3.6-1.8,7-3.8,10.7-5.6c-5.5,0.3-10.9,1.2-16.2,2.7
				C759,475.6,753.6,472.5,748.3,469.4z"/>
		</g>
		<g>
			<defs>
				<rect id="SVGID_19_" width="1000" height="500"/>
			</defs>
			<clipPath id="SVGID_20_">
				<use xlink:href="#SVGID_19_"  style="overflow:visible;"/>
			</clipPath>
			<path class="st9" d="M-23.3,433.1C-5.3,422.5-2,457,0.1,468.4c1.6-8.6,8.1-28.3,19.8-26.7c11.9,1.7,5.9,15.1,6.3,22.6
				c13.2-12,29.7-5.8,18.6,12.4c8.6-13.4,57.9-30.1,46-2.3l0,0c5.4-9,10.4-22,23-21.3c12.3,0.7,19.1,13.5,23.5,23.3
				c2.9-5.9,13.5-19.4,21.6-19c11.8,0.7,9.4,13,8.6,21.1c0.7-7.4,11.4-11.9,16.4-15.5c8-5.7,14.9-12.9,23.9-17.2
				c10.5-5.1,34.6-15.3,46.2-10.9c0.8,15.2-26.2,32.1-36.2,39.8c4.1-0.3,7.3-3,11.4-4.1c6.6-1.9,40.5-4.9,43.6,5.2
				c2.7,8.8-27.9,15.4-34.1,20.8c15.9,17.3-66.5,27.3-72.7,27.7c-39.4,2.8-81.3,1.3-120.7-1.7C22,520.8-7.2,518.5-25,501.3
				C-40.9,485.9-45.9,446.4-23.3,433.1z"/>
		</g>
		<g>
			<defs>
				<rect id="SVGID_21_" width="1000" height="500"/>
			</defs>
			<clipPath id="SVGID_22_">
				<use xlink:href="#SVGID_21_"  style="overflow:visible;"/>
			</clipPath>
			<path class="st10" d="M829.5,519c-11.7,0.1-25.5-43.8-18.8-53.1c6.5-8.9,37.8,11.8,46.8,17c-7.2-4.2,4.4-24.3,9.4-26.4
				c12.8-5.3,21.8,9.2,33.7,9c0-11.5,8.2-15.9,18.5-17.3c11.5-1.6,30.4-3.9,41.3,0.4c-13.2-3.1-4.4-24.8-1.1-32.4
				c9.9-23.1,21.3-41.4,49.7-41.2c6.8,0.1,18,1.8,22.8,6.9c6.1,6.3,2.3,12.6,3.4,20.4c1.1,8.2,5.3,15,10.4,21.1
				c9.2,11.1,17.2,24.2,19,39.1c1.9,15.6-9.4,25.1-21,33.4c-50.2,35.9-132.6,51.8-190.3,27.2C846.9,520.3,839.9,513.3,829.5,519z"/>
		</g>
		<g>
			<defs>
				<rect id="SVGID_23_" width="1000" height="500"/>
			</defs>
			<clipPath id="SVGID_24_">
				<use xlink:href="#SVGID_23_"  style="overflow:visible;"/>
			</clipPath>
			<path class="st11" d="M-41.8,424.7c-1.2,0.2-1.3,1.8-2,0.2c3.9-19.8,9.5-41.3,17.8-59.6c8.3-18.4,22.6-46.2,41.9-56
				c-5.6,20.8-21.6,42.4-30.3,63.1c10.3-12.6,25.4-31.3,42.6-33.9C27,347.6,12,361.4,6.6,368.6c-6.9,9.1-14.9,17.7-21.4,26.9
				c14.2-9.1,29.4-19,47-18c-8.9,16.6-32,26.1-42.5,42.4c5.4,0,23.9-4.7,24.5,3.4c0.6,8.5-24.3,20.1-30.1,23.3
				c-9.8,5.3-6.6,4.8-13.6,0.7C-36.8,443-40.4,432-41.8,424.7z"/>
		</g>
		<g>
			<defs>
				<rect id="SVGID_25_" width="1000" height="500"/>
			</defs>
			<clipPath id="SVGID_26_">
				<use xlink:href="#SVGID_25_"  style="overflow:visible;"/>
			</clipPath>
			<path class="st12" d="M1041.6,367.8c1.4,0.2,1.6,2.2,2.5,0.3c-4.8-24.3-11.7-50.7-21.8-73.2c-10.2-22.6-27.8-56.7-51.4-68.8
				c6.9,25.6,26.5,52.1,37.2,77.5c-12.7-15.5-31.3-38.4-52.3-41.6c1.5,11.2,19.9,28.1,26.5,36.9c8.4,11.2,18.3,21.7,26.3,33
				c-17.4-11.2-36.1-23.4-57.7-22.2c10.9,20.4,39.3,32,52.3,52.1c-6.6,0-29.4-5.8-30.1,4.1c-0.8,10.4,29.8,24.7,36.9,28.6
				c12.1,6.5,8.1,5.9,16.7,0.9C1035.4,390.3,1039.9,376.7,1041.6,367.8z"/>
		</g>
	</g>
</g>
</svg>
