<?xml version="1.0" encoding="utf-8"?>
<!-- Generator: Adobe Illustrator 23.0.3, SVG Export Plug-In . SVG Version: 6.00 Build 0)  -->
<svg version="1.1" id="Layer_4" xmlns="http://www.w3.org/2000/svg" xmlns:xlink="http://www.w3.org/1999/xlink" x="0px" y="0px"
	 viewBox="0 0 1491 811" style="enable-background:new 0 0 1491 811;" xml:space="preserve">
<style type="text/css">
	.st0{opacity:0.7;}
	.st1{opacity:0.5;fill:#A4C7E5;enable-background:new    ;}
	.st2{opacity:0.8;fill:#FFFFFF;enable-background:new    ;}
	.st3{opacity:0.7;fill:#D6E4EF;enable-background:new    ;}
</style>
<g class="st0">
	<path class="st1" d="M212.9,188.7l-5.6,2.5l-7.4,0.2l1.8-5l-3.1-0.3l3.7-2.1l1.6-2.7c0,0-1.3,0-2.5,0l-0.9,0.5
		c0-0.2-0.1-0.3-0.2-0.4c-0.4,0-0.7,0-0.8,0c-0.4,0-5.2-0.5-5.2-0.5l-0.3-0.4l-0.1,1.2l-4.1-1l0.4,3.7h-2.4l-0.8-4.9h-2.6l0.1,1.5
		c0,0-3.4-0.2-3.8-0.3c-0.4-0.1-2.8-1.2-2.8-1.2l0.7,3.6l-5.1-0.9l1.4,2.3l-4.9-0.8l-0.8,2.5L168,185l-5.4,3.2l-5.8-3.9l-2.1-0.3
		v1.4l-2.3,0.8l-1.4-1.1l-2,0.2l-1.1,1.7l-3.8-0.8c0,0-1.1,0.9-1.6,1.9c-0.3,0.5-2.2,1-4.4,1.2l-6,3.1l1.5,0.6l3.3-0.9v0.6l3,0.2
		l2.5-1.7c0,0,0.9-1.5,2.6-0.8c1.7,0.7-2.3,2.1-2.3,2.1l5.2-0.1l0.2-0.9l3.1-0.5l2.1-2.4l2.4,2.4l3.4,0.6l0.1-1.7l3.4-1.4l4.3-0.3
		l1.5,2.6l-3,1.5l5.2,1.7c0,0,4.1-1.5,4.4-1.7c0.3-0.2,3.2-1.7,3.2-1.7l2,2.6l-0.3,3l2.6-1l4.5,4.4l5.3-3l1.2-4l7.4,0.6l12,6
		c0,0,2.7-0.5,6.2-0.7l-1.4-6.4L212.9,188.7z"/>
	<path class="st2" d="M374,171.3c-4.8,0.1-13.9-4.1-13.9-4.1s-8.1-1.3-8.4-1.2s-1.5,4.1-9.8,4.6c-8.2,0.6-0.7-2.5,2.8-4.5
		c3.5-1.9-1.3-3-1.3-3s-0.5-2.1-4.8-1.6s-4.9-2.1-4.9-2.1s-0.9,1.4-6.4,2.8c-5.5,1.4-9.5-0.8-9.5-0.8l1.3-1l-0.8-0.9
		c0,0-4,0.2-4.4,0.2c-0.4,0.1,0.3-1.3,0.3-1.3l5.5-1.2l-0.8-2l2.9-0.4l1.7-3.5c-2.7,0.7-4.4-1.8-7.1-3.1c-2.7-1.2,3.5-4,0.5-3.2
		c-2.9,0.8-2.9-3-4.7-1.5c-1.7,1.5-9.2,0.2-11.9,0.5c-2.7,0.4-4.3-1.5-7,0.3s-2.9-2.2-6-2.5s-0.1,2.5-4.4,2.1s-2.8-0.9-2.4-2.8
		c0.4-1.9-3.1,0.2-3.7-1.9c-0.7-2.1-2.9,0.1-2.9-1.5s-2.9-0.8-6.3-0.5c-3.3,0.4-5.2-1.5-5.2-1.5l-1.3-2.4l-3.5,1.8l-3.3-0.8l0.9,3.1
		c0,0-7.5,0.2-3.2,1.5c4.3,1.3-0.4,3.4-0.7,3.6c-0.3,0.2-7.1,2.2-7.1,2.2s-4.7-2.2-5.1-2.1c-0.4,0.2-2.1,2.7-2.1,2.7
		c0-0.8-4-1.5-4.1-1.5s-0.2,1.6-4.2,2.4c-4,0.8-5.4-3.1-5.4-3.1l-9.1-1c0,0,5.5,1.3,5.3,3.7s-6.1,3.2-6.1,3.2l-0.7-2.6
		c-0.5,0.9-3.3,0.7-3.3,0.7c-1.5-1.4-4-1.7-4-1.7v1.5l-4.8,0.3l0.7,2.2l-1.1,0.2l-2.5-1.2h-1.2l2.5,1l-2,1.1l5.8-1.3l0.6,0.7
		l-1.3,0.8l2.3,1.1l3.7-1.4l0.5,1.3l-2.3,1.4c0,0,3.4-0.3,3.8-0.2c0.4,0.1-2.5,2.1-2.5,2.1l4.1,1.7l-0.9,1.7l3,0.5
		c0,0,1.8-1.2,3.7-0.7c0,0-0.2-3.4,4.5-3.4s1.2,2.3,0.9,2.2s-2,1.9,0.1,1.6c2-0.3,5.7-3.6,5.7-3.6l1.7,1.5l-1.5,0.9l4.1-1.2l-1,2.1
		c0,0,3.8-0.9,3.8-0.6c0,0.3,1,1,1,1l-3.2,2c0,0,5.5,3.7,2.4,5.9c-3.1,2.1-3.9,0.4-3.9,0.4s-1.7,1.9,1.6,2.4l-0.2,1.5
		c0,0,4.1,0.2,4.5,0s4.3-3.2,6.8-1.9s-0.2,2.2-0.2,2.2l3.5,0.7l-0.2-2.6l3.8,0.3c0,0,2.6-1.8,1.7-5c-0.9-3.2,4.7-0.4,4.7-0.4
		l1.3-0.9l-0.5-4l4.7-0.3l1.6-2.6l2.2,1.2l0.5,1.9l1.1,0.3l2-1.9l4,1.6l1.8-1.1c0,0,1.5,1.2,1,2.8c0,0,1.9,1.2,3.3,0.8l-2.6,2.2
		c0,0,5.3,1.7,8.3,0s0.4-4.8,0.4-4.8l5.6,4.3c0,0-3.6,3.4,0.3,4.4s5.8-0.2,5.9-0.2s2.3,2,1.3,2.6c0,0,4.2-1.2,4.7-1.2
		s1.4,3.5,1.4,3.5s7.4,1.1,7.9,1.1c0.5-0.1,6.4,0.2,4.7-2.4c-1.7-2.6,4.1,0.1,4.1,0.1l2.9-2.6l1.5,1.9h4.7l-1.8,2.3
		c0,0-0.8,2.1,2.1,3.1s6,1.6,4.1,2.7c-1.9,1.2,2.3,0.5,0.4,2.3s3.1,1.6,0.5,2.9c-1.8,0.9-3.2,1.1-2.8,1.8l0,0
		c0.1,0.1,0.2,0.3,0.3,0.4c-0.2-0.2-0.3-0.3-0.3-0.4c-0.8-0.5-1.5-0.9-2-1.3c-1.3-1.1-3.7-1.4-5.8-1.2l-1.1,0.6c0,0,2.2,0.8,1.8,1.8
		h3.4v1.9h6.6c-0.1,0-0.1,0-0.2,0c0.1,0,0.1,0,0.2,0h0.4c0.1,0,0.3,0,0.4-0.1c-0.3-0.1-0.6-0.3-0.9-0.4c0.3,0.1,0.6,0.3,0.9,0.4
		c1.3,0.6,2.6,1.1,3.7,1.6c0.2,0.1,0.3,0.1,0.5,0.2l-0.7,0.2c-0.5,1.1-0.8,1.9,1.4,1.8c4-0.3,3.1,1.7,5.5,2.4
		c1.1,0.3,2.7,1.4,4.2,2.3l6.2-5H352l6.2-3l-2.7-0.7c1-0.5,1.9-1.1,1.9-1.1l4.4-0.6l0.1-1.8l2.4-0.3c0,0-1.1-1.8,1.6-2.5
		s5.5,1.5,5.5,1.5l2.4-1.9c0,0,3-2.5-2.3-3.4s-7.2-3.4-7.2-3.4S378.8,171.2,374,171.3z"/>
	<path class="st2" d="M182.5,169.2c0,0,2.6,0.9,2.4-1.8c-0.2-2.2-5.8-3.1-7.9-3.4c-0.1,0.5,0.1,0.9,0.1,0.9h-9.6l0.4,1l3.5,0.6
		l-0.7,0.5l2,1.3l3.9-0.3c0,0,2.5-0.8,2.9,0.4s-4.1,0.6-4.1,0.6l3.9,2l1.2-0.6l2.8,0.8l3.5-0.8l-0.3-0.2
		C183.5,171.2,182.5,169.2,182.5,169.2z"/>
	<path class="st3" d="M337.3,181c1.9-1.8-2.3-1.1-0.4-2.3s-1.2-1.8-4.1-2.7c-2.9-1-2.1-3.1-2.1-3.1l1.8-2.3h-4.7l-1.5-1.9l-2.9,2.6
		c0,0-5.7-2.8-4.1-0.1c1.7,2.6-4.2,2.3-4.7,2.4c-0.5,0.1-7.9-1.1-7.9-1.1s-0.9-3.4-1.4-3.5c-0.5,0-4.7,1.2-4.7,1.2
		c1-0.6-1.3-2.6-1.3-2.6c-0.1,0-2,1.1-5.9,0.2c-3.9-1-0.3-4.4-0.3-4.4l-5.6-4.3c0,0,2.6,3.1-0.4,4.8s-8.3,0-8.3,0l2.6-2.2
		c-1.4,0.4-3.3-0.8-3.3-0.8c0.5-1.6-1-2.8-1-2.8l-1.8,1.1l-4-1.6l-2,1.9l-1.1-0.3l-0.5-1.9l-2.2-1.2l-1.6,2.6l-4.7,0.3l0.5,4
		l-1.3,0.9c0,0-5.6-2.8-4.7,0.4c0.9,3.2-1.7,5-1.7,5l-3.8-0.3l0.2,2.6l-3.5-0.7c0,0,2.7-0.9,0.2-2.2s-6.4,1.7-6.8,1.9
		c-0.4,0.2-4.5,0-4.5,0l0.2-1.5c-3.3-0.5-1.6-2.4-1.6-2.4s0.9,1.7,3.9-0.4c3.1-2.1-2.4-5.9-2.4-5.9l3.2-2c0,0-1.1-0.7-1-1
		c0-0.3-3.8,0.6-3.8,0.6l1-2.1l-4.1,1.2l1.5-0.9l-1.7-1.5c0,0-3.7,3.3-5.7,3.6s-0.4-1.7-0.1-1.6c0.3,0.1,3.8-2.2-0.9-2.2
		s-4.5,3.4-4.5,3.4c-1.9-0.5-3.7,0.7-3.7,0.7l-3-0.5l0.9-1.7l-4.1-1.7c0,0,2.9-2,2.5-2.1s-3.8,0.2-3.8,0.2l2.3-1.4l-0.5-1.3
		l-3.7,1.4l-2.3-1.1l1.3-0.8l-0.6-0.7l-5.8,1.3l2-1.1l-2.5-1h-1.9l1.9,2.6l-3.1,2l5.1,2.8v1.1c0,0-7.4,0.1-3,2.1
		c4.4,2.1,4.6,4.4,4.6,4.4l-3.2,1.2l3.2,1.9l-3.5,0.8c0,0,0.9-1.7-2.5-1.7s-2.7,3.7-2.8,4s-3.3,1.7-3.3,1.7l-0.7-0.5L187,170
		l-3.5,0.8l-2.8-0.8l-1.2,0.6l-3.9-2c0,0,4.5,0.6,4.1-0.6c-0.4-1.2-2.9-0.4-2.9-0.4l-3.9,0.3l-2-1.3l0.7-0.5l-3.5-0.6l-0.4-1h9.6
		c0,0-0.2-0.4-0.1-0.9c0.1-0.4,0.3-0.8,1-1.1l-1.7-0.9v-0.8c0,0-0.1,0-0.2,0c-0.4,0-1.5-0.1-1.7-0.3c-0.3-0.2-2.1,1.9-2.1,1.9
		l-1.7-1.9l-1.6,2.5v-1l-3-0.5c0,0,1.1,3.8,0,4.9c-1.1,1-2.2-1.1-1.9-1.1c0.3-0.1,0.2-3.1-3.3-1.3s0.7,4.2,0.7,4.2
		c-2,0.3-1.9,1.9-1.9,1.9l-2.8,0.8l-1.3-1.6l-5,0.3c0,0-0.2-2.6-0.6-2.5c-0.4,0.1-2.6,1.5-2.6,1.5v-1.9l-1.9-0.7l-1.1,2.5l-3,0.1
		v-1.1l-1.2-0.3l-2.7,3.2l0.2-1.6l-6.3,0.4c-0.9,3.9-5.7,4.7-5.7,4.7s4.8-0.8,4.2,1.3c-0.6,2.2-6.3-0.2-7.2-1
		c-0.9-0.9-2.9-0.9-2.9-0.9l-4.4-0.9l-1,2.3h-4.4l2.2,1.6l-6.2,5h7.2l-6.2,3l2.7,0.7h0.1l2.8-1.3h0.1c0.4,0.2,2.9,0.6,2.9,0.6
		l0.1-1.4l3.7-0.4l-1.6,1.7l4.8-1.2l2.4-0.6l-1,0.7l2.8,1.6h7.4v1.9h3.4c-0.4,1,1.8,1.8,1.8,1.8l-1.1,0.6c2.2-0.2,4.1-0.7,4.4-1.2
		c0.5-1,1.6-1.9,1.6-1.9l3.8,0.8l1.1-1.7l2-0.2l1.4,1.1l2.3-0.8v-1.4l2.1,0.3l5.8,3.9l5.4-3.2l1.1,1.1l0.8-2.5l4.9,0.8l-1.4-2.3
		l5.1,0.9l-0.7-3.6c0,0,2.4,1.1,2.8,1.2c0.4,0.1,3.8,0.3,3.8,0.3l-0.1-1.5h2.6l0.8,4.9h2.4l-0.4-3.7l4.1,1l0.1-1.2l0.3,0.4
		c0,0,4.8,0.5,5.2,0.5c0.1,0,0.4,0,0.8,0c0.1,0.1,0.2,0.3,0.2,0.4l0.9-0.5l2.6-1.4l1.1,1l2.8-0.5l-0.7-2.4l1.7-1h3l-1,3.3l2.1,0.2
		c0,0-0.5-4.1,2.8-3.8s-0.2,2.9-0.2,2.9l3.2-0.5c0,0,1.6,2.4,1.9,2.4c0.3,0,1.8-1.3,1.8-1.3s-0.9-1.1-1.2-1.3
		c-0.3-0.1,0.3-1.1,0.9-1.1c0.6,0,8.1,0.4,8.1,0.4s1.7-1.5-1-2.8c-2.2-1-3.4-0.9-3.8-0.9c-0.1,0-0.1,0-0.1,0s0,0,0.1,0
		c0.8-0.2,6.6-1.3,12.5-0.7c6.3,0.6,14.1-0.7,14.1-0.7l12,6l7.4,0.6l1.2-4l5.3-3l4.5,4.4l2.6-1l-0.3,3l2,2.6c0,0,2.9-1.5,3.2-1.7
		s4.4-1.7,4.4-1.7l5.2,1.7l-3,1.5l1.5,2.6l4.3-0.3l3.4-1.4l0.1-1.7l3.4,0.6l2.4,2.4l2.1-2.4l3.1-0.5l0.2-0.9l5.2-0.1
		c0,0-4,1.3-2.3,2.1c1.7,0.7,2.6-0.8,2.6-0.8l2.5-1.7l3,0.2v0.6l3.3-0.9l1.5,0.6l-6,3.1c2.2-0.2,4.6,0.1,5.8,1.2
		c0.5,0.4,1.2,0.9,2,1.3c-0.4-0.7,1-0.9,2.8-1.8C340.3,182.6,335.3,182.8,337.3,181z"/>
	<path class="st1" d="M331.6,179.5l-3.3,0.9v-0.6l-3-0.2l-2.5,1.7c0,0-0.9,1.5-2.6,0.8s2.3-2.1,2.3-2.1l-5.2,0.1l-0.2,0.9l-3.1,0.5
		l-2.1,2.4l-2.4-2.4l-3.4-0.6l-0.1,1.7l-3.4,1.4l-4.3,0.3l-1.5-2.6l3-1.5l-5.2-1.7c0,0-4.1,1.5-4.4,1.7s-3.2,1.7-3.2,1.7l-2-2.6
		l0.3-3l-2.6,1l-4.5-4.4l-5.3,3l-1.2,4l-7.4-0.6l-12-6c0,0-7.8,1.4-14.1,0.7c-5.8-0.6-11.6,0.6-12.5,0.7c0.4-0.1,1.6-0.1,3.8,0.9
		c2.7,1.2,1,2.8,1,2.8s-7.5-0.4-8.1-0.4s-1.2,1-0.9,1.1s1.2,1.3,1.2,1.3s-1.5,1.3-1.8,1.3s-1.9-2.4-1.9-2.4l-3.2,0.5
		c0,0,3.5-2.6,0.2-2.9c-3.3-0.3-2.8,3.8-2.8,3.8l-2.1-0.2l1-3.3h-3l-1.7,1l0.7,2.4l-2.8,0.5l-1.1-1l-2.6,1.4c1.2,0,2.5,0,2.5,0
		l-1.6,2.7l-3.7,2.1l3.1,0.3l-1.8,5l7.4-0.2l5.6-2.5l4.8,3.3l1.4,6.4c2.5-0.2,5.3-0.3,8,0c5.8,0.6,11.6-0.6,12.5-0.7
		c-0.4,0.1-1.6,0.1-3.8-0.9c-2.7-1.2-1-2.8-1-2.8s7.5,0.4,8.1,0.4s1.2-1,0.9-1.1s-1.2-1.3-1.2-1.3s1.5-1.3,1.8-1.3s1.9,2.4,1.9,2.4
		l3.2-0.5c0,0-3.5,2.6-0.2,2.9c3.3,0.3,2.8-3.8,2.8-3.8l2.1,0.2l-1,3.3h3l1.7-1l-0.7-2.4l2.8-0.5l1.1,1l3.5-1.8
		c0.6,2.2,6.4,2.2,6.4,2.2l0.2-2.1l4.1,1l-0.4-3.7h2.4l0.8,4.9h2.6l-0.1-1.5c0,0,3.4,0.2,3.8,0.3s2.8,1.2,2.8,1.2l-0.7-3.6l5.1,0.9
		l-1.4-2.3l4.9,0.8l0.8-2.5l1.1,1.1l5.4-3.2l5.8,3.9l2.1,0.3V187l2.3-0.8l1.4,1.1l2-0.2l1.1-1.7l3.8,0.8c0,0,1.1-0.9,1.6-1.9
		c0.3-0.5,2.2-1,4.4-1.2l6-3.1L331.6,179.5z"/>
</g>
</svg>
