<?xml version="1.0" encoding="utf-8"?>
<!-- Generator: Adobe Illustrator 23.0.3, SVG Export Plug-In . SVG Version: 6.00 Build 0)  -->
<svg version="1.1" id="Layer_4" xmlns="http://www.w3.org/2000/svg" xmlns:xlink="http://www.w3.org/1999/xlink" x="0px" y="0px"
	 viewBox="0 0 1491 811" style="enable-background:new 0 0 1491 811;" xml:space="preserve">
<style type="text/css">
	.st0{opacity:0.9;}
	.st1{opacity:0.5;fill:#A4C7E5;enable-background:new    ;}
	.st2{opacity:0.8;fill:#FFFFFF;enable-background:new    ;}
	.st3{opacity:0.7;fill:#D6E4EF;enable-background:new    ;}
</style>
<g class="st0">
	<path class="st1" d="M1094.9,147.2l-7.9,3.1l-10.5,0.2l2.5-6.1l-4.3-0.3l5.2-2.6l2.3-3.4c0,0-1.8,0-3.5,0l-1.2,0.6
		c-0.1-0.2-0.2-0.4-0.3-0.6c-0.6,0-1,0-1.1,0c-0.6,0-7.4-0.6-7.4-0.6l-0.4-0.6l-0.2,1.5l-5.8-1.2l0.6,4.6h-3.4l-1.1-6h-3.7l0.1,1.8
		c0,0-4.8-0.2-5.4-0.4c-0.6-0.1-4-1.5-4-1.5l1,4.4l-7.2-1.1l2,2.8l-6.9-1l-1.1,3l-1.6-1.3l-7.6,3.9l-8.2-4.8l-3-0.4v1.7l-3.3,1
		l-2-1.4l-2.8,0.2l-1.6,2.1l-5.4-1c0,0-1.6,1.1-2.3,2.3c-0.4,0.6-3.1,1.3-6.2,1.5l-8.5,3.8l2.1,0.7l4.7-1.1v0.8l4.2,0.3l3.5-2.1
		c0,0,1.3-1.9,3.7-1s-3.3,2.6-3.3,2.6l7.4-0.1l0.3-1.1l4.4-0.6l3-3l3.4,2.9l4.8,0.8l0.1-2.1l4.8-1.8l6-0.4l2.1,3.2l-4.2,1.9l7.3,2.1
		c0,0,5.8-1.8,6.2-2.1c0.4-0.2,4.5-2.1,4.5-2.1l2.8,3.3l-0.4,3.7l3.7-1.2l6.4,5.4l7.5-3.7l1.7-5l10.5,0.7l17,7.4
		c0,0,3.8-0.6,8.7-0.9l-2-8L1094.9,147.2z"/>
	<path class="st2" d="M1322.3,125.7c-6.8,0.1-19.6-5-19.6-5s-11.4-1.6-11.8-1.5s-2.2,5-13.8,5.7c-11.6,0.7-1-3.1,4-5.5
		s-1.8-3.7-1.8-3.7s-0.8-2.6-6.8-2c-6,0.7-7-2.6-7-2.6s-1.3,1.7-9.1,3.4c-7.7,1.7-13.4-0.9-13.4-0.9l1.9-1.2l-1.1-1.1
		c0,0-5.7,0.2-6.2,0.3c-0.6,0.1,0.4-1.6,0.4-1.6l7.7-1.5l-1.1-2.5l4.2-0.5l2.5-4.3c-3.8,0.9-6.2-2.3-10-3.8s4.9-4.9,0.8-4
		c-4.2,0.9-4.2-3.7-6.6-1.9c-2.5,1.8-13,0.2-16.8,0.7s-6-1.8-9.8,0.4c-3.8,2.2-4.2-2.7-8.5-3.1s-0.2,3.1-6.2,2.6s-4-1.1-3.4-3.5
		s-4.3,0.2-5.3-2.4c-0.9-2.6-4.2,0.1-4.2-1.9s-4.2-1-8.9-0.6c-4.7,0.5-7.4-1.9-7.4-1.9l-1.9-2.9l-4.9,2.3l-4.7-1l1.3,3.8
		c0,0-10.6,0.2-4.5,1.8c6,1.6-0.6,4.2-0.9,4.4c-0.4,0.3-10,2.7-10,2.7s-6.6-2.7-7.2-2.6c-0.6,0.2-3,3.3-3,3.3c0-1-5.7-1.8-5.8-1.8
		c-0.1,0-0.3,2-5.9,2.9c-5.7,0.9-7.6-3.8-7.6-3.8l-12.9-1.3c0,0,7.8,1.6,7.5,4.6s-8.6,4-8.6,4l-1-3.3c-0.7,1.1-4.7,0.9-4.7,0.9
		c-2.1-1.7-5.7-2.1-5.7-2.1v1.9l-6.8,0.4l1,2.7l-1.6,0.3l-3.5-1.5h-1.6l3.5,1.3l-2.9,1.4l8.2-1.7l0.8,0.8l-1.8,1l3.3,1.4l5.2-1.7
		l0.8,1.6l-3.2,1.8c0,0,4.8-0.3,5.3-0.2s-3.5,2.6-3.5,2.6l5.8,2.1l-1.3,2.1l4.3,0.6c0,0,2.6-1.5,5.2-0.9c0,0-0.3-4.3,6.3-4.2
		c6.6,0,1.7,2.9,1.3,2.8c-0.4-0.1-2.8,2.4,0.1,2s8.1-4.5,8.1-4.5l2.4,1.8l-2.1,1.2l5.8-1.5l-1.3,2.5c0,0,5.4-1.1,5.3-0.7
		c-0.1,0.4,1.4,1.2,1.4,1.2l-4.5,2.5c0,0,7.7,4.6,3.4,7.2c-4.3,2.6-5.6,0.5-5.6,0.5s-2.4,2.4,2.3,3l-0.3,1.9c0,0,5.7,0.2,6.3,0
		c0.6-0.2,6-4,9.6-2.4s-0.2,2.8-0.2,2.8l5,0.9l-0.2-3.3l5.4,0.4c0,0,3.7-2.3,2.5-6.2c-1.2-4,6.7-0.5,6.7-0.5l1.9-1.1l-0.7-5l6.6-0.4
		l2.3-3.3l3.2,1.4l0.6,2.3l1.5,0.3l2.9-2.3l5.6,2l2.6-1.4c0,0,2.2,1.4,1.5,3.4c0,0,2.7,1.5,4.6,0.9l-3.6,2.8c0,0,7.5,2.1,11.7-0.1
		c4.2-2.1,0.6-5.9,0.6-5.9l7.9,5.3c0,0-5,4.2,0.5,5.4s8.3-0.2,8.3-0.2c0.1,0,3.3,2.5,1.9,3.3c0,0,6-1.5,6.7-1.4
		c0.7,0,1.9,4.3,1.9,4.3s10.4,1.4,11.1,1.3c0.7-0.1,9,0.2,6.6-3c-2.3-3.2,5.8,0.2,5.8,0.2l4.1-3.2l2.1,2.4h6.7l-2.5,2.8
		c0,0-1.2,2.6,2.9,3.9c4.1,1.2,8.5,1.9,5.8,3.4s3.3,0.6,0.6,2.8c-2.7,2.2,4.3,2,0.8,3.5c-2.6,1.1-4.5,1.3-4,2.2l0,0
		c0.1,0.2,0.2,0.3,0.5,0.5c-0.2-0.2-0.4-0.4-0.5-0.5c-1.2-0.6-2.2-1.1-2.8-1.6c-1.8-1.4-5.2-1.7-8.3-1.5l-1.6,0.7c0,0,3.1,1,2.5,2.3
		h4.8v2.4h9.4c-0.1,0-0.2,0-0.3,0c0.1,0,0.2,0,0.3,0h0.5c0.2,0,0.4,0,0.5-0.1c-0.4-0.2-0.8-0.3-1.2-0.5c0.4,0.2,0.8,0.3,1.2,0.5
		c1.8,0.7,3.7,1.4,5.3,1.9c0.2,0.1,0.5,0.2,0.7,0.3l-0.9,0.2c-0.6,1.3-1.2,2.4,2,2.2c5.7-0.3,4.4,2.1,7.8,3c1.6,0.4,3.8,1.7,6,2.9
		l8.7-6.2h-10.2l8.8-3.7l-3.9-0.8c1.4-0.7,2.6-1.3,2.6-1.3l6.2-0.7l0.1-2.3l3.4-0.4c0,0-1.6-2.2,2.3-3.1s7.8,1.9,7.8,1.9l3.4-2.3
		c0,0,4.2-3.1-3.3-4.3s-10.2-4.2-10.2-4.2S1329.1,125.6,1322.3,125.7z"/>
	<path class="st2" d="M1051.9,123.1c0,0,3.7,1.1,3.4-2.3c-0.2-2.8-8.2-3.8-11.1-4.2c-0.1,0.6,0.2,1.2,0.2,1.2h-13.5l0.6,1.2l4.9,0.8
		l-1,0.6l2.8,1.6l5.5-0.4c0,0,3.5-1,4.1,0.5s-5.8,0.8-5.8,0.8l5.6,2.4l1.6-0.7l4,1l4.9-1l-0.4-0.3
		C1053.3,125.6,1051.9,123.1,1051.9,123.1z"/>
	<path class="st3" d="M1270.4,137.7c2.7-2.2-3.2-1.3-0.6-2.8c2.7-1.5-1.7-2.2-5.8-3.4c-4.1-1.2-2.9-3.9-2.9-3.9l2.5-2.8h-6.7
		l-2.1-2.4l-4.1,3.2c0,0-8.1-3.4-5.8-0.2c2.3,3.2-6,2.9-6.6,3c-0.7,0.1-11.1-1.3-11.1-1.3s-1.2-4.2-1.9-4.3c-0.7,0-6.7,1.4-6.7,1.4
		c1.4-0.8-1.8-3.2-1.9-3.3c-0.1,0-2.9,1.4-8.3,0.2c-5.5-1.2-0.5-5.4-0.5-5.4l-7.9-5.3c0,0,3.6,3.8-0.6,5.9
		c-4.2,2.1-11.7,0.1-11.7,0.1l3.6-2.8c-1.9,0.6-4.6-0.9-4.6-0.9c0.7-2-1.5-3.4-1.5-3.4l-2.6,1.4l-5.6-2l-2.9,2.3l-1.5-0.3l-0.6-2.3
		l-3.2-1.4l-2.3,3.3l-6.6,0.4l0.7,5l-1.9,1.1c0,0-7.9-3.5-6.7,0.5c1.2,4-2.5,6.2-2.5,6.2l-5.4-0.4l0.2,3.3l-5-0.9
		c0,0,3.8-1.2,0.2-2.8c-3.6-1.6-9,2.1-9.6,2.4c-0.6,0.2-6.3,0-6.3,0l0.3-1.9c-4.7-0.6-2.3-3-2.3-3s1.2,2.1,5.6-0.5
		c4.3-2.6-3.4-7.2-3.4-7.2l4.5-2.5c0,0-1.5-0.9-1.4-1.2c0.1-0.4-5.3,0.7-5.3,0.7l1.3-2.5l-5.8,1.5l2.1-1.2l-2.4-1.8
		c0,0-5.2,4-8.1,4.5c-2.9,0.4-0.5-2-0.1-2c0.4,0.1,5.3-2.7-1.3-2.8c-6.6,0-6.3,4.2-6.3,4.2c-2.7-0.6-5.2,0.9-5.2,0.9l-4.3-0.6
		l1.3-2.1l-5.8-2.1c0,0,4.1-2.5,3.5-2.6c-0.5-0.1-5.3,0.2-5.3,0.2l3.2-1.8l-0.8-1.6l-5.2,1.7l-3.3-1.4l1.8-1l-0.8-0.8l-8.2,1.7
		l2.9-1.4l-3.5-1.3h-2.6l2.7,3.2l-4.4,2.5l7.2,3.5v1.4c0,0-10.5,0.1-4.2,2.6c6.2,2.6,6.5,5.5,6.5,5.5l-4.5,1.5l4.5,2.3l-5,1
		c0,0,1.3-2.1-3.5-2.1s-3.8,4.6-4,5c-0.1,0.4-4.7,2.1-4.7,2.1l-1-0.6l-0.9-0.6l-4.9,1l-4-1l-1.6,0.7l-5.6-2.4c0,0,6.4,0.7,5.8-0.8
		s-4.1-0.5-4.1-0.5l-5.5,0.4l-2.8-1.6l1-0.6l-4.9-0.8l-0.6-1.2h13.5c0,0-0.3-0.5-0.2-1.2c0.1-0.5,0.4-1,1.4-1.4l-2.4-1.1v-1
		c0,0-0.1,0-0.3,0c-0.6-0.1-2-0.2-2.4-0.4c-0.4-0.3-3,2.3-3,2.3l-2.4-2.3l-2.3,3V114l-4.2-0.6c0,0,1.6,4.7,0,6s-3.1-1.3-2.7-1.4
		c0.4-0.1,0.3-3.8-4.7-1.6c-5,2.2,1,5.2,1,5.2c-2.8,0.4-2.7,2.4-2.7,2.4l-4,1l-1.8-2l-7.1,0.4c0,0-0.3-3.2-0.8-3.1
		c-0.6,0.1-3.7,1.9-3.7,1.9v-2.4l-2.7-0.9l-1.6,3l-4.2,0.1v-1l-1.7-0.4l-3.8,4l0.3-2l-8.9,0.5c-1.3,4.8-8.1,5.8-8.1,5.8
		s6.7-1,5.9,1.6c-0.8,2.7-8.9-0.2-10.2-1.3s-4.1-1.1-4.1-1.1l-6.2-1.1l-1.4,2.8h-6.2l3.1,2l-8.8,6.2H953l-8.8,3.7l3.9,0.8h0.1
		l3.9-1.6c0.1,0,0.1,0,0.2,0c0.6,0.3,4.1,0.8,4.1,0.8l0.2-1.7l5.3-0.5l-2.3,2.1l6.8-1.4l3.4-0.7l-1.4,0.9l4,2h10.5v2.4h4.8
		c-0.6,1.3,2.5,2.3,2.5,2.3l-1.6,0.7c3.1-0.2,5.8-0.9,6.2-1.5c0.7-1.2,2.3-2.3,2.3-2.3l5.4,1l1.6-2.1l2.8-0.2l2,1.4l3.3-1v-1.7
		l3,0.4l8.2,4.8l7.6-3.9l1.6,1.3l1.1-3l6.9,1l-2-2.8l7.2,1.1l-1-4.4c0,0,3.4,1.3,4,1.5c0.6,0.1,5.4,0.4,5.4,0.4l-0.1-1.8h3.7l1.1,6
		h3.4l-0.6-4.6l5.8,1.2l0.2-1.5l0.4,0.6c0,0,6.8,0.6,7.4,0.6c0.1,0,0.6,0,1.1,0c0.1,0.2,0.2,0.4,0.3,0.6l1.2-0.6l3.7-1.7l1.6,1.3
		l4-0.6l-1-2.9l2.4-1.2h4.2l-1.4,4l3,0.3c0,0-0.7-5.1,4-4.7c4.7,0.4-0.3,3.6-0.3,3.6l4.5-0.6c0,0,2.3,3,2.7,3s2.5-1.6,2.5-1.6
		s-1.3-1.4-1.7-1.6c-0.4-0.1,0.4-1.4,1.3-1.4c0.8,0,11.4,0.4,11.4,0.4s2.4-1.9-1.4-3.4c-3.1-1.2-4.8-1.1-5.3-1.1c-0.1,0-0.2,0-0.2,0
		s0.1,0,0.2,0c1.2-0.2,9.4-1.7,17.6-0.9c8.9,0.8,19.9-0.9,19.9-0.9l17,7.4l10.5,0.7l1.7-5l7.5-3.7l6.4,5.4l3.7-1.2l-0.4,3.7l2.8,3.3
		c0,0,4.1-1.9,4.5-2.1c0.4-0.2,6.2-2.1,6.2-2.1l7.3,2.1l-4.2,1.9l2.1,3.2l6-0.4l4.8-1.8l0.1-2.1l4.8,0.8l3.4,2.9l3-3l4.4-0.6
		l0.3-1.1l7.4-0.1c0,0-5.7,1.6-3.3,2.6c2.4,0.9,3.7-1,3.7-1l3.5-2.1l4.2,0.3v0.8l4.7-1.1l2.1,0.7l-8.5,3.8c3.1-0.2,6.5,0.1,8.3,1.5
		c0.6,0.5,1.6,1.1,2.8,1.6c-0.5-0.9,1.4-1.1,4-2.2C1274.8,139.7,1267.7,139.9,1270.4,137.7z"/>
	<path class="st1" d="M1262.4,135.8l-4.7,1.1v-0.8l-4.2-0.3l-3.5,2.1c0,0-1.3,1.9-3.7,1c-2.4-0.9,3.3-2.6,3.3-2.6l-7.4,0.1l-0.3,1.1
		l-4.4,0.6l-3,3l-3.4-2.9l-4.8-0.8l-0.1,2.1l-4.8,1.8l-6,0.4l-2.1-3.2l4.2-1.9l-7.3-2.1c0,0-5.8,1.8-6.2,2.1
		c-0.4,0.2-4.5,2.1-4.5,2.1l-2.8-3.3l0.4-3.7l-3.7,1.2l-6.4-5.4l-7.5,3.7l-1.7,5l-10.5-0.7l-17-7.4c0,0-11,1.7-19.9,0.9
		c-8.2-0.7-16.4,0.7-17.6,0.9c0.5-0.1,2.2-0.2,5.3,1.1c3.8,1.5,1.4,3.4,1.4,3.4s-10.6-0.4-11.4-0.4s-1.7,1.3-1.3,1.4
		c0.4,0.1,1.7,1.6,1.7,1.6s-2.1,1.6-2.5,1.6s-2.7-3-2.7-3l-4.5,0.6c0,0,5-3.3,0.3-3.6c-4.7-0.4-4,4.7-4,4.7l-3-0.3l1.4-4h-4.2
		l-2.4,1.2l1,2.9l-4,0.6l-1.6-1.3l-3.7,1.7c1.7,0,3.5,0,3.5,0l-2.3,3.4l-5.2,2.6l4.3,0.3l-2.5,6.1l10.5-0.2l7.9-3.1l6.8,4.1l2,8
		c3.5-0.2,7.6-0.3,11.2,0c8.2,0.7,16.4-0.7,17.6-0.9c-0.5,0.1-2.2,0.2-5.3-1.1c-3.8-1.5-1.4-3.4-1.4-3.4s10.6,0.4,11.4,0.4
		s1.7-1.3,1.3-1.4s-1.7-1.6-1.7-1.6s2.1-1.6,2.5-1.6s2.7,3,2.7,3l4.5-0.6c0,0-5,3.3-0.3,3.6c4.7,0.4,4-4.7,4-4.7l3,0.3l-1.4,4h4.2
		l2.4-1.2l-1-2.9l4-0.6l1.6,1.3l5-2.3c0.8,2.8,9.1,2.8,9.1,2.8l0.3-2.6l5.8,1.2l-0.6-4.6h3.4l1.1,6h3.7l-0.1-1.8
		c0,0,4.8,0.2,5.4,0.4s4,1.5,4,1.5l-1-4.4l7.2,1.1l-2-2.8l6.9,1l1.1-3l1.6,1.3l7.6-3.9l8.2,4.8l3,0.4v-1.7l3.3-1l2,1.4l2.8-0.2
		l1.6-2.1l5.4,1c0,0,1.6-1.1,2.3-2.3c0.4-0.6,3.1-1.3,6.2-1.5l8.5-3.8L1262.4,135.8z"/>
</g>
</svg>
