<?xml version="1.0" encoding="utf-8"?>
<!-- Generator: Adobe Illustrator 23.0.2, SVG Export Plug-In . SVG Version: 6.00 Build 0)  -->
<svg version="1.1" id="Layer_1" xmlns="http://www.w3.org/2000/svg" xmlns:xlink="http://www.w3.org/1999/xlink" x="0px" y="0px"
	 viewBox="0 0 750 500" style="enable-background:new 0 0 750 500;" xml:space="preserve">
<style type="text/css">
	.st0{opacity:0.33;}
	.st1{fill:url(#SVGID_1_);}
</style>
<g id="OBJECTS">
	<g class="st0">
		
			<linearGradient id="SVGID_1_" gradientUnits="userSpaceOnUse" x1="-1.001501e-02" y1="125.8" x2="358.5" y2="125.8" gradientTransform="matrix(1 0 0 -1 0 499)">
			<stop  offset="0" style="stop-color:#FC6F55"/>
			<stop  offset="1" style="stop-color:#C3687B"/>
		</linearGradient>
		<path class="st1" d="M327,324c-11.2,0.3-22.7,1.9-33.5-0.9c-7-1.8-13.3-5.4-20-8.2c-14-5.9-29.1-8.4-44.2-10.9
			c-9.4-1.5-18.9-3.1-28.3-4.7c-3.6-0.6-7.3-1.2-10.5-2.9c-3.8-1.9-6.7-5.1-9.8-8c-9.8-9-24.3-15.1-36.7-10
			c-7.1,3-13.9,9.5-21.3,7.3c-1.7-0.5-3.3-1.4-5-0.9c-1.6,0.5-2.5,2.1-4,2.7c-2.9,1.1-5.8-2.1-8.9-2.5c-5.6-0.8-8.5,7-14,8.4
			c-3.6,0.9-7.5-1.2-11.2-0.4c-3.6,0.8-5.9,4.1-9.3,5.4c-7.1,2.8-14-3.9-18.6-9.8c-5.8-7.5-11.6-15-17.3-22.4
			c-3.2-4.1-6.6-8.4-11.5-10.3s-11.7-0.4-13.4,4.4c-1.8-4.2-4.4-8-7.7-11.3c-0.5-0.5-1.1-1.1-1.8-1.4v215.1l8.7,36l349.8-165.9
			C350.4,325.3,338.2,323.8,327,324z"/>
	</g>
</g>
</svg>
