<?xml version="1.0" encoding="utf-8"?>
<!-- Generator: Adobe Illustrator 23.0.2, SVG Export Plug-In . SVG Version: 6.00 Build 0)  -->
<svg version="1.1" id="Layer_1" xmlns="http://www.w3.org/2000/svg" xmlns:xlink="http://www.w3.org/1999/xlink" x="0px" y="0px"
	 viewBox="0 0 750 500" style="enable-background:new 0 0 750 500;" xml:space="preserve">
<style type="text/css">
	.st0{opacity:0.33;}
	.st1{fill:url(#SVGID_1_);}
	.st2{opacity:0.22;}
	.st3{fill:url(#SVGID_2_);}
</style>
<g id="OBJECTS">
	<g class="st0">
		
			<linearGradient id="SVGID_1_" gradientUnits="userSpaceOnUse" x1="205.7732" y1="257.7029" x2="124.3199" y2="-49.4439" gradientTransform="matrix(1 0 0 -1 0 499)">
			<stop  offset="0" style="stop-color:#FC6F55"/>
			<stop  offset="1" style="stop-color:#C3687B"/>
		</linearGradient>
		<path class="st1" d="M283.5,326.4c-8.5,1.3-17.2,2.5-25.5,0.5c-12.6-3-23.2-13.4-36.2-13.5c-5.2-0.1-10.3,1.5-15.5,1.2
			c-6.2-0.4-11.9-3.4-17.6-6.1c-17.4-8.4-36-14.3-55-17.6c-5-0.9-10.1-1.5-14.6-3.8c-4.8-2.4-8.7-6.4-13.2-9.5
			c-5.4-3.7-11.8-6.1-18.4-6.7c-4.4-0.4-8.9-0.1-13.3-0.9c-7.8-1.3-14.5-5.9-21.2-10c-15-9.3-31.4-17.1-49-17.9
			c-1.4-0.1-2.7,0.3-4.1,1.1v198.6l280.4-8.1l111.2-118.9C360.3,319.4,314.7,321.8,283.5,326.4z"/>
	</g>
	<g class="st2">
		
			<linearGradient id="SVGID_2_" gradientUnits="userSpaceOnUse" x1="350.3" y1="243.075" x2="750" y2="243.075" gradientTransform="matrix(1 0 0 -1 0 499)">
			<stop  offset="0" style="stop-color:#FC6F55"/>
			<stop  offset="1" style="stop-color:#C3687B"/>
		</linearGradient>
		<path class="st3" d="M750,192.5c-4.5,1.1-8.7,3.8-11.6,8.2c-2.2,3.3-4.4,7.9-7.9,7.7c-1.5-0.1-2.8-1-4.2-1.1
			c-5.1-0.2-7.9,10.1-12.9,8.7c0.5-1.7-1.1-3.4-2.6-3.4c-1.5,0.1-2.7,1.4-3.8,2.7c-3.3,4-5.9,8.8-7.7,14c-1.8-6-8.5-7.9-13.5-5.5
			c-4.9,2.4-8.3,7.8-11.5,12.9c-5.8,9.3-11.6,18.6-17.3,27.9c-4.6,7.3-11.5,15.6-18.6,12.1c-3.4-1.6-5.8-5.8-9.3-6.7
			c-3.7-1-7.6,1.6-11.2,0.5c-5.5-1.8-8.4-11.4-14-10.4c-3.1,0.5-5.9,4.5-8.9,3.1c-1.5-0.7-2.5-2.8-4-3.4c-1.6-0.6-3.3,0.5-5,1.1
			c-7.4,2.7-14.2-5.4-21.3-9.1c-12.4-6.4-26.9,1.3-36.7,12.4c-3.1,3.5-6,7.5-9.8,9.9c-3.2,2-6.9,2.8-10.5,3.5
			c-9.4,1.9-18.9,3.9-28.3,5.8c-15,3.1-30.2,6.2-44.2,13.5c-6.6,3.5-13,7.9-20,10.2c-10.9,3.5-22.3,1.5-33.5,1.2
			s-23.4,1.5-31.5,10.9H750V192.5z"/>
	</g>
</g>
</svg>
