<?xml version="1.0" encoding="utf-8"?>
<!-- Generator: Adobe Illustrator 23.0.2, SVG Export Plug-In . SVG Version: 6.00 Build 0)  -->
<svg version="1.1" id="Layer_1" xmlns="http://www.w3.org/2000/svg" xmlns:xlink="http://www.w3.org/1999/xlink" x="0px" y="0px"
	 viewBox="0 0 750 500" style="enable-background:new 0 0 750 500;" xml:space="preserve">
<style type="text/css">
	.st0{fill:url(#SVGID_1_);}
	.st1{fill:#414160;}
</style>
<g id="OBJECTS">
	<g>
		
			<linearGradient id="SVGID_1_" gradientUnits="userSpaceOnUse" x1="497.2583" y1="211.1934" x2="496.3017" y2="-41.3504" gradientTransform="matrix(1 0 0 -1 0 499)">
			<stop  offset="0" style="stop-color:#8B7198"/>
			<stop  offset="1" style="stop-color:#28203F"/>
		</linearGradient>
		<path class="st0" d="M243.6,484.3c21.2-12.3,33.1,17,54.3,4.7c28.6-16.5,57.1-33,85.7-49.5c7.9-4.6,16-9.2,25-11.1
			c7.2-1.5,14.7-1.3,21.9-2.9c15.1-3.5,26.8-15.1,40.1-23.1c15.8-9.5,34.6-13.9,53-12.5c10.5,0.8,22.9,2.7,29.6-5.4
			c2.3-2.8,3.5-6.4,5.5-9.4c13.3-19.1,49.2,0.3,64.7-17c6.9-7.7,9.1-22,19.5-22.6c3.9-0.2,7.9,2,11.7,0.9c5.5-1.6,6.9-8.4,10-13.2
			c6.9-10.8,22.3-10.8,34.5-14.6c13.5-4.3,24.4-14.4,37.2-20.6c12.8-6.1,13.9-5.6,13.9-2.1c-0.8,2.6-0.2,14.1-0.2,18.6l-0.7,195.4"
			/>
	</g>
	<g>
		<path class="st1" d="M660.7,349c0.2-0.1,0.3-0.2,0.3-0.4c0.1-0.3,0-0.6-0.1-0.7l-0.4,0.2c0,0,0,0,0,0l0.4-0.2
			c-0.2-0.4-0.6-0.6-1-0.5l0.2,0.4c0,0,0,0,0,0c0.1,0.3-0.1,0.5,0.2,0.8c0.1,0,0.1,0,0.2-0.1L660.7,349z"/>
		<path class="st1" d="M654.7,400.8l-0.3-0.5c0,0,0,0,0,0c-0.1-0.2,0.1-0.4-0.1-0.6c-0.1,0-0.1,0-0.2,0.1l-0.3-0.5
			c-0.4,0.2-0.5,0.7-0.3,1.1l0.5-0.3l0,0l-0.5,0.3c0.1,0.1,0.2,0.3,0.3,0.4C654.2,400.9,654.5,400.9,654.7,400.8z"/>
		<path class="st1" d="M733.1,346.3l0.1-0.7c-0.2-0.2-0.3-0.4-0.3-0.5c-0.1-0.2-0.3-0.5-0.5-0.5l-0.6,0.5c0,0.1,0,0.2,0,0.3
			c0,0.3-0.1,0.6,0.3,1.1l0.6,0.1L733.1,346.3z"/>
		<path class="st1" d="M740.3,408l0.2,0.1c0.3,0.1,0.7,0.1,1-0.1c0.5-0.2,0.8-0.7,0.8-1.3l-0.3-0.5l-0.7-0.4l-0.5,0l-0.2,0.1
			c-0.9,0.5-0.9,1.1-0.8,1.5l0.1,0.2L740.3,408z"/>
		<path class="st1" d="M744.5,383.9l0.7,0.3c0.1-0.1,0.4-0.3,0.5-0.6c0-0.2,0-0.4-0.2-0.6l-0.6-0.1c0,0-0.1,0-0.1,0.1
			c-0.2,0.1-0.7,0.4-0.5,0.9L744.5,383.9C744.5,383.9,744.5,383.9,744.5,383.9z"/>
		<path class="st1" d="M646.1,378c0.2,0.1,0.5,0.2,0.8,0.1l0.2-0.6c-0.2-0.4-1-0.8-1.5-0.6c-0.2,0.1-0.4,0.4-0.3,0.7l0.6,0.4
			C646,377.9,646.1,378,646.1,378z"/>
		<path class="st1" d="M666.3,415.9L666.3,415.9c0,0.5,0,1.1,0.5,1.6c0.4,0.4,1,0.6,1.6,0.4l0.6-0.4l0.3-0.4l0.2-0.4l0.1-0.2
			c0.2-0.4,0.5-1.2,0-2c-0.3-0.5-0.7-0.8-1.3-1l-1,0.4l-0.4,0.5l-0.1-0.1C666.2,414.9,666.2,415.5,666.3,415.9z"/>
		<path class="st1" d="M672,376.5l0.2,0.1c0.1,0,0.5,0.1,1-0.1c0.2-0.1,0.8-0.5,0.6-1.5l-0.3-0.4l-0.8-0.4c-0.1,0-0.5-0.1-0.9,0.1
			l-0.2,0.1l-0.2,0.3l-0.1,0.5l0,0.4l0.2,0.4l0.2,0.2L672,376.5z"/>
		<path class="st1" d="M680.8,453.8l0.4-0.1c0.8-0.5,1-1.1,1-1.5l-0.1-0.3l-0.3-0.4l-0.3-0.2c-0.4-0.1-0.8-0.1-1.2,0.1
			c-0.4,0.2-0.6,0.5-0.7,0.9c-0.1,0.4,0,0.8,0.3,1.2l0.3,0.2L680.8,453.8z"/>
		<path class="st1" d="M701.1,443.1c0.1,0,0.4,0.1,0.7,0l0.3-0.3l0.3-0.7c0-0.1,0.1-0.3,0-0.6l-0.3-0.3l-0.7-0.4
			c-0.1,0-0.3-0.1-0.6,0l-0.3,0.3l-0.4,0.7c0,0.1-0.1,0.4,0,0.6l0.3,0.3L701.1,443.1z"/>
		<path class="st1" d="M662.2,384.3c0.1,0,0.3,0.1,0.6,0l0.3-0.3l0.4-0.8c0-0.1,0.1-0.6-0.3-1.1l-0.3-0.2l-0.5-0.1l-0.3,0l-0.5,0.3
			l-0.3,0.3l-0.2,0.6l0,0.4l0.2,0.3l0.3,0.3L662.2,384.3z"/>
		<path class="st1" d="M633.3,398.7c0,0,0.1,0.1,0.1,0.1c0.1,0.2,0.4,0.5,0.8,0.4l0.3-0.7c-0.1-0.1,0-0.2,0-0.3l-0.6-0.5
			c0,0-0.1,0-0.2,0c-0.2,0-0.5-0.1-0.7,0c-0.1,0-0.4,0.2-0.3,0.7l0.8,0.2C633.4,398.7,633.3,398.7,633.3,398.7z"/>
		<path class="st1" d="M664.2,466c0.5-0.2,0.6-0.7,0.4-1.1l-0.6-0.3c-0.1,0-0.3-0.1-0.6-0.1l-0.4,0.6c0,0.1-0.1,0.3-0.1,0.6l0.3,0.3
			C663.6,466.2,663.9,466.2,664.2,466z"/>
		<path class="st1" d="M641.6,418.9c-0.2-0.4-0.7-0.6-1.1-0.4l-0.3,0.5c0,0,0,0.1,0,0.1c0,0.2,0,0.5,0.3,0.8l0.5,0.1
			C641.6,420,641.9,419.4,641.6,418.9z"/>
		<path class="st1" d="M658.8,425.4l0,0.5l0.2,0.4c0.4,0.7,0.9,1,1.5,0.9l0.3-0.3l0.1-0.2h0.1c0.7-0.5,0.6-1.1,0.5-1.4l-0.1-0.2
			l-0.3-0.3c-0.4-0.5-1-0.6-1.5-0.4c-0.2,0.1-0.4,0.3-0.6,0.6L658.8,425.4z"/>
		<path class="st1" d="M653.2,416.8l0.4-0.3l0.3-0.6l0-0.5c-0.2-0.4-0.4-1-1.1-1.2c-0.3-0.1-0.8-0.1-1.1,0.1c-0.1,0-0.1,0.1-0.2,0.1
			l-0.2,0.3l-0.1,0.6l0.1,0.4C651.6,416.1,652.2,416.9,653.2,416.8z"/>
		<path class="st1" d="M637.5,440.6c0-0.7,0-1.5,0.1-2.1l-0.7-0.4c-0.4,0.4-0.7,1.2-0.6,1.9c0,0.5,0.2,0.9,0.5,1L637.5,440.6z"/>
		<path class="st1" d="M657.6,446l0.3-0.5c0,0,0-0.1,0-0.1c0-0.2,0-0.5-0.3-0.8l-0.5-0.1c-0.1,0-0.2,0.1-0.3,0.1
			c-0.5,0.3-0.7,0.7-0.5,1.2l0.6,0.3C657.1,446,657.3,446.1,657.6,446z"/>
		<path class="st1" d="M703.6,381.9L703.6,381.9c0.2,0.2,0.6,0.4,0.9,0.4l0.3,0.3l0.5,0.2l0.2,0c0.1,0,0.5,0.1,0.9,0l0.7-0.5
			l0.3-0.6l0.1-0.3c0.1-0.5,0-1-0.3-1.5l-0.6-0.4l-0.5-0.1l-0.2,0l-0.5-0.4l-0.6-0.2l-0.9,0.2c-1.1,0.6-1.2,1.5-1,2.1l0.6,0.6
			L703.6,381.9z"/>
		<path class="st1" d="M725.1,393.5c0.4-0.2,0.6-0.5,0.7-0.8c0.1-0.3,0-0.7-0.2-0.9l-0.3-0.2l-0.3-0.1l0,0.1l-0.4-0.2l-0.5,0
			l-0.3,0.2l-0.2,0.2l-0.2,0.4l-0.1,0.2c0,0.5,0.2,0.9,0.5,1.1C724.1,393.7,724.7,393.7,725.1,393.5z"/>
		<path class="st1" d="M720.5,415.1c0.3-0.2,0.6-0.4,0.8-0.7l0.2-0.5l0-0.5l-0.1-0.6L721,412l-0.6-0.5l-0.6-0.2l-0.8,0.1l-1,0.5
			l-0.5,0.6l-0.2,0.6l0.1,0.8C718,415.1,719.3,415.6,720.5,415.1z"/>
		<path class="st1" d="M707,391.2l0.5,0.1l0.8-0.1c1.4-0.7,1.3-2,1.3-2.5v-0.2l-0.2-0.6l-0.3-0.4l-0.6-0.4c-0.5-0.1-1-0.1-1.5,0.2
			c-0.6,0.3-1,0.9-1.1,1.5c-0.1,0.7,0.1,1.5,0.6,2.1L707,391.2z"/>
		<path class="st1" d="M701.8,344l0.4-0.6l-0.5-1l-0.8,0c-0.2,0.3-0.4,0.5-0.6,0.7c-0.2,0.2-0.5,0.4-0.7,0.9l0.2,0.6
			c0.5,0.2,0.9,0.1,1.3-0.2C701.4,344.1,701.6,344,701.8,344z"/>
		<path class="st1" d="M721.9,455l-0.3,0.6l1.3-0.3l-0.6-0.4C722.2,455,722.1,455,721.9,455z"/>
		<path class="st1" d="M691.7,402.6l-0.2,0.6l0.1,0.8l0.2,0.4l0.5,0.5l0.7,0.3c0.1,0,0.5,0.1,0.9,0l0.7-0.5l0.3-0.6l0.1-0.3
			c0-0.2,0.1-0.8-0.4-1.5l-0.6-0.4l-0.5-0.1l-0.7,0.1l-0.5,0.3L691.7,402.6z"/>
		<path class="st1" d="M684.2,393.8l0.3,0.4l0.5,0.4c0.5,0.2,1,0.1,1.5-0.1c0.6-0.3,1-0.9,1.2-1.5l-0.1-0.7l-0.3-0.5l-0.6-0.5
			c-0.7-0.2-1.2-0.2-1.7,0c-0.3,0.2-1.1,0.7-1,2.1L684.2,393.8z"/>
		<path class="st1" d="M677.7,366.4c0.1-0.2,0-0.4-0.1-0.6l-0.7-0.1c-0.1-0.1-0.4-0.2-0.8,0c-0.1,0-0.1,0.1-0.2,0.1l-0.1,0.4
			c0.1,0.3,0.3,0.6,0.5,0.7C676.8,367.1,677.5,366.9,677.7,366.4z"/>
		<path class="st1" d="M687.5,367.7c0.4-0.2,0.7-0.6,0.7-1c0-0.4-0.2-0.8-0.5-1.1l-0.3-0.1l-0.5,0l-0.3,0.1l-0.5,0.3l-0.2,0.2
			l-0.2,0.4l-0.1,0.3c0,0.5,0.2,0.9,0.6,1.1C686.7,367.9,687.1,367.9,687.5,367.7z"/>
		<path class="st1" d="M738.3,369.3c0.1,0,0.1-0.1,0.2-0.1c0.1,0,0.4-0.2,0.4-0.5c0-0.2-0.1-0.5-0.3-0.7l-0.2-0.1
			c-0.3-0.1-0.5,0-0.6,0c-0.5,0.2-0.5,0.8-0.5,1.1l0.7,0.3C738.2,369.4,738.2,369.4,738.3,369.3z"/>
		<path class="st1" d="M675.2,402.6l0.5-0.1l0.5-0.2c0.7-0.6,0.9-1.4,1-2l0-0.6l-0.2-0.5l-0.4-0.5c-0.6-0.4-1.4-0.5-2-0.2
			c-0.7,0.4-1.2,1.2-1.2,2c0,0.8,0.5,1.5,1.2,1.8L675.2,402.6z"/>
		<path class="st1" d="M719.7,435.9l0.1,0.1l0.5,0.3l0.4,0c0.1,0,0.2-0.1,0.3-0.1c0.3-0.2,0.6-0.5,0.7-0.8c0.2-0.6-0.2-1.3-0.4-1.6
			l-0.3-0.2l-0.6-0.2l-0.4,0l-0.1,0c-0.5,0.2-0.8,0.6-1,1l0,0.2l0,0.3l0,0.2C719.1,435.5,719.4,435.7,719.7,435.9L719.7,435.9z"/>
		<path class="st1" d="M695.8,411.9c-0.2-0.1-0.6-0.2-1.1-0.1l-0.7,0.6l-0.3,0.6l0,0.9l0.3,0.5l0.7,0.5l0.6,0.2l0.9-0.2
			c1.3-0.7,1.1-1.8,1-2.1l-0.5-0.6L695.8,411.9z"/>
		<path class="st1" d="M611.9,425.7c0.2,0.1,0.4,0.1,0.6,0l-0.2-0.5c0,0,0.1,0,0.1-0.1c0.1-0.2-0.4-0.4-0.4-0.4
			c-0.1,0-0.1,0.1-0.2,0.1l-0.2-0.4c-0.3,0.2-0.4,0.5-0.3,0.8C611.4,425.4,611.6,425.6,611.9,425.7z"/>
		<path class="st1" d="M675.6,430.8l0.5,0.4l0.5,0.2l0.7,0c0.2-0.1,0.3-0.1,0.5-0.2c1.3-0.7,1.6-1.8,1.4-2.6l-0.3-0.5l-0.3-0.4
			l-0.5-0.3c-0.5-0.1-1.1-0.1-1.6,0.2c-0.6,0.3-1,0.8-1.2,1.5C675.2,429.7,675.3,430.3,675.6,430.8z"/>
		<path class="st1" d="M715.4,367.4c0.1,0,0.3,0.1,0.7,0l0.3-0.3l0.3-0.7c0-0.1,0.1-0.4,0-0.6l-0.3-0.3l-0.7-0.3
			c-0.1,0-0.3-0.1-0.6,0l-0.3,0.3l-0.4,0.7c0,0.1-0.1,0.3,0,0.6l0.3,0.3L715.4,367.4z"/>
		<path class="st1" d="M697.8,467.2l-0.2,0.3c-0.1,0.4,0,0.9,0.3,1.2c0.3,0.2,0.6,0.3,0.9,0.1l0.2-0.3c0.1-0.4,0-0.9-0.3-1.2
			C698.5,467.1,698.2,467,697.8,467.2z"/>
		<path class="st1" d="M745.3,425.6l0.3-0.3c0.1-0.4,0-0.9-0.3-1.3l-0.5-0.2l-0.1,0c-0.5,0.3-0.6,0.9-0.4,1.3
			C744.4,425.6,744.8,425.8,745.3,425.6z"/>
		<path class="st1" d="M705.3,355.9c0.2,0.1,0.3,0.1,0.5,0.1c0.3-0.1,0.5-0.3,0.6-0.5l-0.4-0.2c0,0,0,0,0,0l0.4,0.2
			c0.3-0.4,0.2-0.9-0.1-1.1l-0.2,0.4c0,0,0,0,0,0c-0.2,0.2-0.4,0.2-0.6,0.6c0,0.1,0.1,0.1,0.1,0.1L705.3,355.9z"/>
		<path class="st1" d="M658.1,378.1l0.3-0.5c0,0,0,0,0,0c0.1-0.2,0.3-0.1,0.5-0.4c0-0.1-0.1-0.1-0.1-0.1l0.3-0.5
			c-0.4-0.2-0.8-0.1-1.1,0.4l0.5,0.3l0,0l-0.5-0.3c-0.1,0.1-0.1,0.3-0.1,0.5C657.8,377.8,657.9,378,658.1,378.1z"/>
		<path class="st1" d="M745.7,416.1l0.7-0.3c0.1-0.2,0.2-0.4,0.3-0.6c0.1-0.2,0.3-0.5,0.2-0.7l-0.7-0.2c-0.1,0.1-0.1,0.1-0.2,0.1
			c-0.2,0.1-0.6,0.3-0.8,0.8l0.2,0.5L745.7,416.1z"/>
		<path class="st1" d="M718.5,476.5l0.4,0.1c0.2-0.1,0.8-0.5,0.9-0.9c0.1-0.3,0-0.5-0.3-0.7l-0.6,0c0,0,0.1,0,0.1-0.1l-0.6,0.1
			C717.8,475.9,718.3,476.4,718.5,476.5z"/>
		<path class="st1" d="M697.1,454.7v0.3c0.1,0.4,0.3,0.6,0.6,0.8c0.5,0.3,1,0.3,1.5,0l0.3-0.5l0-0.8l-0.3-0.5L699,454
			c-0.9-0.5-1.4-0.2-1.7,0.1l-0.1,0.2L697.1,454.7z"/>
		<path class="st1" d="M719.8,445.5l0.1,0.7c0.2,0.1,0.4,0.2,0.7,0.1c0.2-0.1,0.3-0.2,0.4-0.5l-0.2-0.5c0,0-0.1,0-0.1-0.1
			c-0.2-0.1-0.7-0.4-1,0.1L719.8,445.5C719.8,445.6,719.8,445.5,719.8,445.5z"/>
		<path class="st1" d="M681.7,484.1l0,0.6c0.1,0.1,0.1,0.2,0.2,0.3c0.1,0.1,0.2,0.3,0.3,0.4h0.7c0.2-0.3,0.3-0.6,0.3-1
			c0-0.3-0.2-0.5-0.4-0.6C682.5,483.8,682.1,483.6,681.7,484.1z"/>
		<path class="st1" d="M698.3,475.3c0.4,0.2,0.8,0.1,1.1-0.2l-0.1-0.6c0,0,0-0.1-0.1-0.1c-0.1-0.1-0.2-0.3-0.4-0.4
			c-0.1,0-0.1-0.1-0.2-0.1l-0.5,0.1c-0.2,0.2-0.3,0.5-0.3,0.8C697.9,474.9,698.1,475.1,698.3,475.3z"/>
		<path class="st1" d="M673,358.8c0,0.2,0,0.5,0.3,0.8l0.7-0.1c0.2-0.4,0.2-1.3-0.3-1.5c-0.2-0.1-0.5-0.1-0.7,0.1l0,0.7
			C673,358.7,673,358.8,673,358.8z"/>
		<path class="st1" d="M651.4,395.9L651.4,395.9c-0.4,0.2-1,0.5-1.1,1.2c-0.1,0.6,0,1.2,0.5,1.6l0.6,0.3l0.5,0l0.4,0l0.2,0
			c0.4-0.1,1.3-0.2,1.7-1c0.3-0.5,0.3-1,0.1-1.6l-0.9-0.7l-0.6-0.1l0-0.1C652.2,395.4,651.7,395.7,651.4,395.9z"/>
		<path class="st1" d="M687.8,380l0,0.2c0,0.1,0.2,0.5,0.6,0.8c0.2,0.1,0.8,0.4,1.6-0.3l0.2-0.4l-0.1-0.9c0-0.1-0.2-0.5-0.6-0.7
			l-0.2-0.1l-0.4,0l-0.5,0.2l-0.3,0.2l-0.2,0.3l-0.1,0.2L687.8,380z"/>
		<path class="st1" d="M626.8,428.2l0.3,0.3c0.8,0.4,1.5,0.3,1.8,0l0.2-0.2l0.2-0.5l0-0.3c-0.1-0.4-0.3-0.8-0.7-1
			c-0.3-0.2-0.8-0.3-1.1-0.1c-0.4,0.1-0.7,0.4-0.9,0.9l0,0.4L626.8,428.2z"/>
		<path class="st1" d="M646.5,439.9c0,0.1,0.1,0.4,0.3,0.6l0.4,0.1l0.8-0.1c0.1,0,0.3-0.1,0.5-0.3l0.2-0.4l-0.1-0.8
			c0-0.1-0.1-0.3-0.3-0.5l-0.4-0.1l-0.8,0.1c-0.1,0-0.3,0.1-0.5,0.3l-0.1,0.4L646.5,439.9z"/>
		<path class="st1" d="M676.1,375.8c0,0.1,0.1,0.3,0.3,0.5l0.4,0.1l0.8-0.1c0.1-0.1,0.6-0.2,0.8-0.8v-0.4l-0.2-0.5l-0.2-0.3
			l-0.5-0.3l-0.4-0.1l-0.6,0.1l-0.3,0.2l-0.2,0.3l-0.1,0.4L676.1,375.8z"/>
		<path class="st1" d="M648.6,358.8c0,0,0,0.1,0,0.1c-0.1,0.2-0.2,0.6,0.1,0.9l0.7-0.1c0-0.1,0.1-0.1,0.3-0.2l0.1-0.7
			c0,0-0.1-0.1-0.1-0.2c-0.1-0.2-0.2-0.4-0.4-0.6c-0.1,0-0.4-0.2-0.8,0.1l0.2,0.8C648.6,358.9,648.6,358.9,648.6,358.8z"/>
		<path class="st1" d="M607.6,420.6c0.4,0.3,0.9,0.2,1.2-0.2l-0.1-0.7c0-0.1-0.1-0.3-0.2-0.5l-0.7,0c-0.1,0-0.3,0.1-0.5,0.2
			l-0.1,0.4C607.2,420.1,607.4,420.4,607.6,420.6z"/>
		<path class="st1" d="M635.8,376.6c0.3-0.4,0.2-0.9-0.2-1.1l-0.6,0c0,0-0.1,0-0.1,0.1c-0.2,0.1-0.4,0.2-0.5,0.6l0.1,0.5
			C634.9,377.1,635.5,377,635.8,376.6z"/>
		<path class="st1" d="M639.3,394.6l-0.5,0.3l-0.3,0.4c-0.4,0.7-0.4,1.3,0,1.7l0.4,0.1l0.2,0l0,0c0.8,0.3,1.2,0,1.4-0.3l0.1-0.2
			l0.1-0.4c0.2-0.6,0-1.2-0.5-1.5c-0.2-0.1-0.5-0.2-0.8-0.3L639.3,394.6z"/>
		<path class="st1" d="M643.7,385.3l0.4,0.2l0.7,0l0.4-0.2c0.2-0.3,0.6-0.9,0.5-1.5c-0.1-0.4-0.3-0.7-0.7-0.9
			c-0.1,0-0.2-0.1-0.2-0.1h-0.4l-0.6,0.2l-0.3,0.3C643.5,383.5,643,384.5,643.7,385.3z"/>
		<path class="st1" d="M615.2,384.4c0.6-0.4,1.2-0.8,1.9-1l0-0.8c-0.6-0.1-1.4,0-1.9,0.5c-0.4,0.3-0.6,0.6-0.6,1L615.2,384.4z"/>
		<path class="st1" d="M621.2,404.4h0.6c0,0,0.1,0,0.1-0.1c0.2-0.1,0.4-0.2,0.6-0.6l-0.1-0.5c-0.1-0.1-0.2-0.1-0.2-0.1
			c-0.5-0.3-1-0.2-1.3,0.2l0.1,0.7C620.9,404,621,404.2,621.2,404.4z"/>
		<path class="st1" d="M699.9,409.7L699.9,409.7c-0.1,0.3,0,0.7,0.2,1l-0.1,0.4l0.1,0.6l0,0.2c0,0.1,0.2,0.5,0.5,0.7l0.8,0.3
			l0.7-0.1l0.3-0.1c0.5-0.2,0.9-0.6,1-1.1l0-0.7l-0.2-0.5l-0.1-0.2l0.1-0.7L703,409l-0.6-0.6c-1.1-0.6-1.9-0.2-2.3,0.3l-0.2,0.8
			L699.9,409.7z"/>
		<path class="st1" d="M701.4,434.1c0.3,0.2,0.7,0.3,1,0.1c0.3-0.1,0.6-0.4,0.7-0.7v-0.4L703,433H703l0-0.4l-0.3-0.4l-0.3-0.2
			l-0.3-0.1l-0.4,0l-0.3,0c-0.4,0.2-0.7,0.6-0.7,1C700.7,433.4,701,433.9,701.4,434.1z"/>
		<path class="st1" d="M680.6,441.5c0.3,0.2,0.6,0.3,1,0.3l0.5-0.1l0.4-0.2l0.4-0.4l0.5-0.8l0.1-0.8l-0.2-0.6l-0.5-0.6l-1-0.6
			l-0.8-0.1l-0.6,0.2l-0.6,0.5C679.3,439.5,679.5,440.9,680.6,441.5z"/>
		<path class="st1" d="M693.8,417.5l0.2,0.5l0.6,0.6c1.3,0.8,2.4,0.1,2.8-0.2l0.2-0.1l0.4-0.5l0.2-0.5v-0.7
			c-0.2-0.5-0.5-0.9-0.9-1.2c-0.6-0.3-1.2-0.4-1.9-0.2c-0.7,0.3-1.2,0.8-1.5,1.6L693.8,417.5z"/>
		<path class="st1" d="M731.2,388.3h0.8l0.6-1l-0.4-0.7c-0.4,0-0.6-0.1-0.9-0.1c-0.3-0.1-0.6-0.2-1.1-0.1l-0.4,0.5
			c0,0.5,0.3,0.8,0.8,1C730.9,388,731.1,388.1,731.2,388.3z"/>
		<path class="st1" d="M647.4,463.8l-0.7,0.1l0.9,1l0-0.7C647.6,464,647.5,463.9,647.4,463.8z"/>
		<path class="st1" d="M676,410.5l-0.6,0.1l-0.6,0.5l-0.2,0.3l-0.1,0.7l0.2,0.7c0,0.1,0.2,0.5,0.5,0.8l0.8,0.3l0.7-0.1l0.3-0.1
			c0.2-0.1,0.8-0.3,1.1-1.1l0-0.7l-0.2-0.5l-0.5-0.5l-0.5-0.3L676,410.5z"/>
		<path class="st1" d="M679.6,399.5l-0.2,0.4l0,0.6c0.1,0.5,0.4,0.9,0.9,1.2c0.6,0.4,1.3,0.4,1.9,0.2l0.6-0.5l0.3-0.5l0.1-0.7
			c-0.2-0.7-0.5-1.1-1-1.4c-0.3-0.2-1.2-0.6-2.3,0.3L679.6,399.5z"/>
		<path class="st1" d="M699.5,379.5c0.2,0,0.3-0.2,0.5-0.4l-0.3-0.7c0-0.2,0-0.5-0.4-0.7c-0.1,0-0.2-0.1-0.2-0.1l-0.4,0.1
			c-0.2,0.2-0.3,0.5-0.3,0.8C698.3,379.1,699,379.6,699.5,379.5z"/>
		<path class="st1" d="M703.5,388.6c0.4,0.3,0.9,0.3,1.3,0.1s0.6-0.6,0.7-1l-0.1-0.3l-0.2-0.4l-0.2-0.2l-0.5-0.3l-0.3-0.1h-0.5
			l-0.3,0.1c-0.4,0.3-0.6,0.6-0.6,1.1C702.9,387.9,703.1,388.3,703.5,388.6z"/>
		<path class="st1" d="M728.9,432.6c0.1,0,0.1,0.1,0.2,0.1c0.1,0.1,0.4,0.2,0.7,0.1c0.2-0.1,0.3-0.3,0.4-0.6v-0.2
			c-0.1-0.3-0.2-0.5-0.3-0.5c-0.4-0.3-1,0.1-1.2,0.2l0.1,0.8C728.8,432.5,728.8,432.6,728.9,432.6z"/>
		<path class="st1" d="M667.3,396.5l0.3,0.4l0.5,0.3c0.9,0.3,1.7,0,2.2-0.2l0.5-0.4l0.3-0.4l0.2-0.6c0-0.8-0.3-1.4-0.9-1.8
			c-0.7-0.4-1.6-0.4-2.3,0.1c-0.7,0.5-1,1.2-0.9,2L667.3,396.5z"/>
		<path class="st1" d="M662.5,451.8l0,0.2l0.1,0.6l0.2,0.3c0.1,0.1,0.2,0.1,0.2,0.2c0.3,0.2,0.7,0.3,1.1,0.2c0.7-0.2,1-0.8,1.2-1.1
			l0-0.4l-0.2-0.6l-0.2-0.3l-0.1-0.1c-0.5-0.3-0.9-0.4-1.3-0.3l-0.2,0.1l-0.3,0.2l-0.1,0.1C662.5,451.2,662.5,451.6,662.5,451.8
			L662.5,451.8z"/>
		<path class="st1" d="M670.3,418.9c0-0.2-0.1-0.6-0.5-1l-0.9-0.3l-0.7,0.1l-0.8,0.5l-0.3,0.5l-0.1,0.9l0.2,0.6l0.6,0.7
			c1.3,0.7,2.1,0,2.3-0.3l0.2-0.8L670.3,418.9z"/>
		<path class="st1" d="M614.4,354.8c0,0.2,0.2,0.4,0.3,0.5l0.3-0.4c0,0,0.1,0.1,0.1,0.1c0.2-0.1,0.2-0.5,0.1-0.6
			c-0.1-0.1-0.1-0.1-0.2-0.1l0.3-0.4c-0.3-0.2-0.7-0.1-0.8,0.2C614.4,354.3,614.3,354.6,614.4,354.8z"/>
		<path class="st1" d="M643.6,411.7l-0.1,0.7l0.1,0.5l0.4,0.6c0.1,0.1,0.3,0.2,0.4,0.3c1.2,0.8,2.3,0.4,3-0.1l0.3-0.5l0.1-0.5l0-0.6
			c-0.2-0.5-0.5-1-1-1.3c-0.6-0.4-1.3-0.4-1.9-0.3C644.3,410.7,643.9,411.1,643.6,411.7z"/>
		<path class="st1" d="M718.5,412.1c0,0.1,0.1,0.3,0.3,0.6l0.4,0.1l0.8-0.1c0.1,0,0.3-0.1,0.5-0.3l0.1-0.4l-0.1-0.8
			c0-0.1-0.1-0.3-0.3-0.5l-0.4-0.1l-0.8,0.1c-0.1,0-0.3,0.1-0.5,0.3l-0.1,0.4L718.5,412.1z"/>
		<path class="st1" d="M624.4,449.8l-0.3-0.1c-0.4,0.1-0.8,0.5-0.8,0.9c-0.1,0.3,0.1,0.7,0.4,0.9l0.3,0.1c0.4-0.1,0.8-0.5,0.8-0.9
			C624.8,450.3,624.7,449.9,624.4,449.8z"/>
		<path class="st1" d="M684.7,468.2l0.4,0c0.4-0.2,0.7-0.5,0.9-1l-0.1-0.5l-0.1-0.1c-0.5-0.3-1,0-1.3,0.4
			C684.2,467.4,684.3,467.9,684.7,468.2z"/>
		<path class="st1" d="M599.6,406.8c0-0.2,0-0.3-0.1-0.5c-0.2-0.3-0.5-0.3-0.6-0.4l0,0.5c0,0,0,0,0,0l0.1-0.5
			c-0.5-0.1-0.9,0.1-0.9,0.5l0.5,0.1c0,0,0,0,0,0c0.3,0.1,0.3,0.3,0.7,0.3c0.1-0.1,0-0.1,0-0.2L599.6,406.8z"/>
		<path class="st1" d="M637.6,442.4l-0.5-0.1c0,0,0,0,0,0c-0.3,0-0.2-0.3-0.5-0.3c-0.1,0.1,0,0.1,0,0.2l-0.5-0.1
			c-0.1,0.4,0.3,0.8,0.7,0.9l0.1-0.5l0,0l-0.1,0.5c0.2,0,0.3,0,0.5,0C637.4,442.9,637.6,442.7,637.6,442.4z"/>
		<path class="st1" d="M640.6,347l-0.5-0.5c-0.2,0-0.5,0-0.6,0c-0.3,0-0.5-0.1-0.8,0.1l0.1,0.8c0.1,0,0.1,0.1,0.2,0.2
			c0.2,0.2,0.5,0.4,1,0.5l0.4-0.4L640.6,347z"/>
		<path class="st1" d="M706.8,350l-0.1-0.4c-0.1-0.2-0.7-0.6-1.2-0.5c-0.3,0-0.5,0.2-0.5,0.5l0.2,0.5c-0.1,0-0.1-0.1-0.1-0.1
			l0.3,0.5C706.5,350.8,706.8,350.2,706.8,350z"/>
		<path class="st1" d="M694.4,378l0.3-0.1c0.3-0.2,0.5-0.5,0.5-0.9c0.1-0.5-0.1-1.1-0.6-1.4l-0.5-0.1l-0.7,0.3l-0.3,0.5l0,0.2
			c-0.2,1,0.4,1.4,0.7,1.5l0.3,0L694.4,378z"/>
		<path class="st1" d="M677.6,360.2l0.6-0.4c0-0.2,0-0.5-0.2-0.7c-0.1-0.1-0.3-0.2-0.6-0.2l-0.4,0.4c0,0,0,0.1,0,0.1
			c0,0.2-0.1,0.8,0.4,0.9L677.6,360.2C677.6,360.3,677.6,360.2,677.6,360.2z"/>
		<path class="st1" d="M666.5,335.7c0,0,0,0.1,0,0.2l-0.2-0.8c-0.3-0.1-0.6-0.1-0.8,0.1c-0.1,0.1-0.3,0.3-0.4,0.6l0,0.1l0.4,0.5
			c0.1,0,0.2,0.1,0.3,0.2l0.7-0.3C666.6,336,666.5,335.8,666.5,335.7z"/>
		<path class="st1" d="M727.5,381.4l0.5-0.2c0.1-0.1,0.1-0.2,0.2-0.3c0.1-0.1,0.2-0.3,0.3-0.4l-0.3-0.6c-0.3-0.1-0.7-0.1-1,0.1
			c-0.2,0.1-0.4,0.3-0.4,0.6C726.9,380.7,726.8,381.2,727.5,381.4z"/>
		<path class="st1" d="M713.1,369.2c0.1-0.4-0.2-0.8-0.6-0.9l-0.5,0.3c0,0,0,0.1-0.1,0.1c-0.1,0.1-0.2,0.3-0.3,0.5
			c0,0.1,0,0.2,0,0.3l0.3,0.4c0.3,0.1,0.6,0.1,0.8,0C712.9,369.7,713.1,369.5,713.1,369.2z"/>
		<path class="st1" d="M614.2,435.7c0.2-0.1,0.5-0.2,0.6-0.6l-0.4-0.6c-0.4-0.1-1.2,0.3-1.3,0.8c0,0.3,0.1,0.5,0.3,0.7l0.6-0.2
			C614.1,435.8,614.2,435.8,614.2,435.7z"/>
		<path class="st1" d="M656.7,442.1L656.7,442.1c0.4,0.3,0.9,0.7,1.6,0.6c0.6-0.1,1-0.5,1.3-1l0-0.7l-0.2-0.5l-0.2-0.4l-0.1-0.2
			c-0.2-0.4-0.7-1.1-1.6-1.2c-0.5-0.1-1.1,0.1-1.5,0.5l-0.3,1l0.2,0.6l-0.1,0.1C655.8,441.6,656.3,441.9,656.7,442.1z"/>
		<path class="st1" d="M628.4,414.1l0.2-0.1c0.1-0.1,0.4-0.4,0.5-0.8c0-0.2,0.1-0.9-0.8-1.4l-0.4,0l-0.8,0.4
			c-0.1,0.1-0.3,0.3-0.4,0.8l0,0.2l0.1,0.4l0.4,0.4l0.3,0.2l0.4,0.1l0.2,0L628.4,414.1z"/>
		<path class="st1" d="M695.7,453.1l0.2-0.3c0.1-1-0.3-1.4-0.7-1.7L695,451l-0.5,0l-0.3,0.1c-0.3,0.2-0.6,0.6-0.6,1
			c-0.1,0.4,0,0.8,0.3,1.1c0.3,0.3,0.7,0.5,1.1,0.5l0.3-0.1L695.7,453.1z"/>
		<path class="st1" d="M699.3,430.4c0.1-0.1,0.3-0.3,0.4-0.5l0-0.4l-0.3-0.7c-0.1-0.1-0.2-0.3-0.5-0.4h-0.4l-0.7,0.4
			c-0.1,0.1-0.3,0.2-0.4,0.5v0.4l0.3,0.7c0.1,0.1,0.2,0.3,0.5,0.4l0.4,0L699.3,430.4z"/>
		<path class="st1" d="M628.8,426.6c0.1-0.1,0.3-0.2,0.4-0.5l0-0.4l-0.4-0.7c-0.1-0.1-0.4-0.5-1-0.4l-0.3,0.1L627,425l-0.2,0.3
			l-0.1,0.6l0.1,0.4l0.4,0.5l0.3,0.2l0.4,0.1l0.4-0.1L628.8,426.6z"/>
		<path class="st1" d="M623.2,458.4c0,0,0.1,0,0.2,0c0.2,0,0.6,0,0.8-0.4l-0.3-0.6c-0.1,0-0.2,0-0.3-0.2l-0.7,0.2
			c0,0-0.1,0.1-0.1,0.2c-0.2,0.2-0.3,0.3-0.4,0.6c0,0.1,0,0.5,0.4,0.7l0.6-0.5C623.3,458.3,623.3,458.4,623.2,458.4z"/>
		<path class="st1" d="M695.7,473.7c0.1-0.5-0.2-0.9-0.7-1l-0.6,0.4c-0.1,0.1-0.3,0.2-0.4,0.4l0.3,0.7c0.1,0.1,0.2,0.3,0.4,0.4
			l0.4,0C695.5,474.3,695.7,474,695.7,473.7z"/>
		<path class="st1" d="M644.4,463.7c-0.5-0.1-0.9,0.2-1,0.6l0.3,0.5c0,0,0.1,0,0.1,0.1c0.2,0.1,0.4,0.3,0.8,0.3l0.4-0.3
			C645.2,464.4,645,463.8,644.4,463.7z"/>
		<path class="st1" d="M659.9,453.8l0.4,0.3l0.4,0.1c0.8,0.1,1.4-0.1,1.6-0.7l0-0.4l-0.1-0.2l0,0c0-0.9-0.5-1.1-0.8-1.2l-0.2,0
			l-0.4,0c-0.7,0-1.1,0.4-1.2,1c0,0.2,0,0.5,0.1,0.8L659.9,453.8z"/>
		<path class="st1" d="M649.6,453.1l0-0.5l-0.3-0.6l-0.3-0.3c-0.4-0.1-1-0.3-1.6,0.1c-0.3,0.2-0.5,0.5-0.6,0.9c0,0.1,0,0.2,0,0.3
			l0.1,0.4l0.4,0.5l0.4,0.2C648,454.1,649.1,454.1,649.6,453.1z"/>
		<path class="st1" d="M659.3,480c-0.6-0.4-1.2-0.8-1.6-1.4l-0.8,0.3c0.1,0.6,0.5,1.3,1.1,1.6c0.4,0.3,0.8,0.3,1.2,0.2L659.3,480z"
			/>
		<path class="st1" d="M675.7,467.1l-0.2-0.6c0,0-0.1,0-0.1-0.1c-0.2-0.1-0.4-0.3-0.8-0.3l-0.4,0.3c0,0.1,0,0.2-0.1,0.3
			c-0.1,0.6,0.1,1,0.6,1.1l0.6-0.3C675.4,467.4,675.6,467.3,675.7,467.1z"/>
		<path class="st1" d="M651.6,391.9L651.6,391.9c0.3,0,0.7-0.2,0.9-0.5l0.4-0.1l0.5-0.3l0.2-0.1c0.1-0.1,0.4-0.3,0.5-0.7l0-0.9
			l-0.3-0.6l-0.2-0.3c-0.4-0.4-0.8-0.6-1.4-0.6l-0.7,0.3l-0.4,0.4l-0.1,0.2l-0.7,0.2l-0.5,0.4l-0.4,0.8c-0.2,1.2,0.5,1.9,1.2,2
			l0.8-0.1L651.6,391.9z"/>
		<path class="st1" d="M673.7,381.5c0.1-0.4,0-0.8-0.3-1c-0.2-0.3-0.5-0.4-0.9-0.4l-0.3,0.1l-0.2,0.2l0,0.1l-0.3,0.2l-0.3,0.4
			l-0.1,0.4l0,0.3l0.1,0.4l0.1,0.2c0.3,0.3,0.8,0.4,1.2,0.3C673.3,382.5,673.7,382,673.7,381.5z"/>
		<path class="st1" d="M688.3,398.1c0.1-0.4,0-0.7-0.1-1.1l-0.3-0.5l-0.3-0.3L687,396l-1-0.2l-0.8,0.2l-0.5,0.4l-0.4,0.7l-0.2,1.1
			l0.2,0.8l0.4,0.5l0.7,0.4C686.9,400.1,688.1,399.4,688.3,398.1z"/>
		<path class="st1" d="M661,394.7l0.4-0.3l0.4-0.8c0.3-1.5-0.8-2.3-1.2-2.5l-0.2-0.1l-0.7-0.2l-0.5,0l-0.6,0.3
			c-0.4,0.4-0.7,0.8-0.8,1.3c-0.1,0.6,0.1,1.3,0.5,1.8c0.5,0.5,1.2,0.8,2,0.8L661,394.7z"/>
		<path class="st1" d="M620.1,370.8l-0.3-0.7l-1.2-0.2l-0.5,0.6c0.1,0.4,0.2,0.6,0.2,0.9c0,0.3,0.1,0.6,0.3,1l0.6,0.2
			c0.5-0.2,0.6-0.6,0.7-1.2C620,371.2,620,371,620.1,370.8z"/>
		<path class="st1" d="M721.2,420.8l0.3,0.6l0.6-1.2l-0.6,0.3C721.4,420.5,721.3,420.6,721.2,420.8z"/>
		<path class="st1" d="M661.1,413.8l0.4,0.5l0.7,0.4l0.4,0.1l0.7-0.1l0.6-0.4c0.1-0.1,0.4-0.3,0.5-0.7l0-0.9l-0.3-0.6l-0.2-0.3
			c-0.2-0.1-0.6-0.6-1.4-0.6l-0.7,0.3l-0.4,0.4l-0.3,0.6l-0.1,0.6L661.1,413.8z"/>
		<path class="st1" d="M649.6,414.6l0.5,0l0.6-0.2c0.4-0.3,0.7-0.7,0.8-1.3c0.1-0.7-0.1-1.4-0.5-1.9l-0.7-0.4l-0.6-0.1l-0.7,0.2
			c-0.6,0.4-0.9,0.9-1,1.4c-0.1,0.4-0.1,1.3,1.1,2L649.6,414.6z"/>
		<path class="st1" d="M623.7,403.5c-0.1-0.2-0.3-0.3-0.5-0.3l-0.5,0.5c-0.1,0.1-0.4,0.2-0.5,0.6c0,0.1,0,0.2,0,0.3l0.3,0.4
			c0.3,0.1,0.6,0.1,0.9,0C623.7,404.7,624,403.9,623.7,403.5z"/>
		<path class="st1" d="M630.6,396.3c0.1-0.5-0.1-0.9-0.4-1.2c-0.3-0.3-0.8-0.4-1.2-0.2l-0.2,0.1l-0.3,0.4l-0.1,0.3l-0.1,0.6l0,0.3
			l0.2,0.4l0.2,0.2c0.4,0.3,0.8,0.3,1.2,0.2C630.3,397.2,630.5,396.8,630.6,396.3z"/>
		<path class="st1" d="M662.2,356.6c0-0.1,0-0.1,0-0.2c0-0.1,0.1-0.4-0.2-0.7c-0.2-0.2-0.4-0.2-0.7-0.2l-0.2,0.1
			c-0.3,0.2-0.3,0.4-0.4,0.5c-0.1,0.5,0.4,0.9,0.6,1l0.7-0.4C662.2,356.7,662.2,356.6,662.2,356.6z"/>
		<path class="st1" d="M651.3,427l0.2-0.4l0.1-0.5c-0.1-1-0.6-1.5-1-2l-0.5-0.3l-0.5-0.1l-0.6,0c-0.7,0.2-1.2,0.8-1.3,1.5
			c-0.1,0.8,0.2,1.6,0.9,2.1c0.7,0.5,1.5,0.5,2.2,0.1L651.3,427z"/>
		<path class="st1" d="M704.5,411.1l0.2,0l0.5-0.3l0.2-0.3c0-0.1,0-0.2,0.1-0.3c0.1-0.4,0-0.8-0.3-1.1c-0.4-0.5-1.1-0.6-1.5-0.6
			l-0.4,0.1l-0.5,0.4l-0.2,0.3l0,0.1c-0.1,0.5,0,1,0.2,1.4l0.1,0.1l0.3,0.2l0.2,0.1C704,411.4,704.3,411.3,704.5,411.1L704.5,411.1z
			"/>
		<path class="st1" d="M671,416c-0.2,0.1-0.5,0.4-0.8,0.9l0,0.9l0.3,0.6l0.7,0.5l0.6,0.1l0.8-0.2l0.5-0.4l0.4-0.8
			c0.2-1.5-0.8-1.9-1.1-2l-0.8,0.1L671,416z"/>
		<path class="st1" d="M674.2,443.5l0.7-0.2l0.5-0.3l0.4-0.5c0-0.2,0.1-0.3,0.1-0.5c0.2-1.4-0.5-2.3-1.2-2.7l-0.6-0.1l-0.5,0.1
			l-0.5,0.2c-0.4,0.4-0.7,0.9-0.8,1.4c-0.1,0.7,0,1.3,0.5,1.8C673,443.2,673.6,443.5,674.2,443.5z"/>
		<path class="st1" d="M647,373.8c0.1-0.1,0.3-0.2,0.4-0.5l0-0.4l-0.3-0.7c-0.1-0.1-0.3-0.3-0.5-0.4l-0.4,0l-0.7,0.3
			c-0.1,0.1-0.3,0.2-0.4,0.5l0,0.4l0.4,0.7c0.1,0.1,0.2,0.3,0.5,0.4l0.4,0L647,373.8z"/>
		<path class="st1" d="M716.7,447.3l0.1,0.3c0.2,0.3,0.7,0.5,1.1,0.5c0.3-0.1,0.6-0.3,0.7-0.6l-0.1-0.3c-0.2-0.3-0.7-0.5-1.1-0.5
			C717,446.8,716.7,447,716.7,447.3z"/>
		<path class="st1" d="M711.5,384.5l-0.1-0.4c-0.3-0.3-0.7-0.5-1.2-0.5l-0.4,0.3l0,0.1c-0.1,0.6,0.3,1,0.8,1.1
			C711,385.2,711.4,384.9,711.5,384.5z"/>
		<path class="st1" d="M623.7,365c0.2-0.1,0.3-0.2,0.4-0.3c0.1-0.3,0.1-0.6,0-0.7l-0.4,0.2c0,0,0,0,0,0l0.4-0.1
			c-0.2-0.5-0.5-0.7-0.9-0.6l0.2,0.4c0,0,0,0,0,0c0,0.3-0.1,0.4,0.1,0.8c0.1,0,0.1,0,0.2-0.1L623.7,365z"/>
		<path class="st1" d="M610.9,415.6l-0.2-0.5c0,0,0,0,0,0c-0.1-0.2,0.1-0.3,0-0.6c-0.1,0-0.1,0-0.2,0l-0.2-0.5
			c-0.4,0.1-0.6,0.6-0.4,1.1l0.5-0.2l0,0l-0.5,0.2c0.1,0.2,0.2,0.3,0.3,0.4C610.4,415.6,610.7,415.7,610.9,415.6z"/>
		<path class="st1" d="M695.9,372l0.2-0.7c-0.1-0.2-0.2-0.4-0.3-0.6c-0.1-0.2-0.2-0.5-0.5-0.6l-0.6,0.4c0,0.1,0,0.2,0,0.3
			c-0.1,0.3-0.2,0.6,0.1,1.1l0.5,0.2L695.9,372z"/>
		<path class="st1" d="M725.3,431.5l0.3-0.2c0.1-0.2,0.2-0.9-0.1-1.3c-0.2-0.2-0.4-0.3-0.7-0.2l-0.3,0.5c0-0.1,0-0.1,0-0.1l-0.3,0.5
			C724.4,431.5,725.1,431.5,725.3,431.5z"/>
		<path class="st1" d="M694.8,434.1l0.2,0.2c0.3,0.1,0.7,0.2,1,0c0.5-0.2,0.9-0.6,1-1.2l-0.2-0.5l-0.6-0.5l-0.5,0l-0.2,0.1
			c-1,0.3-1,1-1,1.3l0.1,0.2L694.8,434.1z"/>
		<path class="st1" d="M702.2,410.8l0.6,0.3c0.2-0.1,0.4-0.2,0.5-0.5c0.1-0.2,0-0.4-0.1-0.6l-0.6-0.2c0,0-0.1,0-0.1,0
			c-0.2,0.1-0.7,0.3-0.6,0.8L702.2,410.8C702.2,410.8,702.2,410.8,702.2,410.8z"/>
		<path class="st1" d="M718.3,389.2c0,0,0,0-0.1,0.1l0.6-0.5c-0.1-0.3-0.2-0.5-0.5-0.7c-0.2-0.1-0.4-0.1-0.8,0l-0.1,0l-0.2,0.6
			c0,0.1,0,0.2,0,0.4l0.6,0.5C718.1,389.5,718.2,389.3,718.3,389.2z"/>
		<path class="st1" d="M707.7,464.7l0.4,0.4c0.1,0,0.2,0,0.3,0c0.2,0,0.3,0.1,0.5,0.1l0.4-0.5c-0.1-0.3-0.3-0.6-0.6-0.8
			c-0.2-0.1-0.5-0.2-0.7-0.1C708.1,463.9,707.7,464.1,707.7,464.7z"/>
		<path class="st1" d="M711.5,446.3c0.4-0.1,0.6-0.6,0.5-1l-0.5-0.3c0,0-0.1,0-0.1,0c-0.1,0-0.3,0-0.6,0c-0.1,0-0.2,0.1-0.2,0.1
			l-0.2,0.4c0,0.3,0.2,0.5,0.4,0.7C711,446.3,711.3,446.4,711.5,446.3z"/>
		<path class="st1" d="M605.5,391.9c0.2,0.1,0.4,0.3,0.8,0.2l0.3-0.6c-0.2-0.4-0.9-0.9-1.4-0.8c-0.3,0.1-0.4,0.3-0.4,0.6l0.5,0.4
			C605.3,391.8,605.4,391.8,605.5,391.9z"/>
		<path class="st1" d="M620.4,432.1L620.4,432.1c-0.1,0.5-0.2,1.1,0.3,1.6c0.3,0.5,0.9,0.7,1.5,0.6l0.6-0.3l0.4-0.4l0.2-0.4l0.1-0.2
			c0.2-0.4,0.6-1.1,0.3-2c-0.2-0.5-0.6-0.9-1.2-1.1l-1.1,0.2l-0.4,0.4l-0.1-0.1C620.4,431.1,620.4,431.7,620.4,432.1z"/>
		<path class="st1" d="M631.3,393.9l0.2,0.1c0.1,0,0.5,0.2,1,0c0.2-0.1,0.9-0.4,0.8-1.4l-0.2-0.4l-0.7-0.5c-0.1,0-0.5-0.1-0.9,0
			l-0.2,0.1l-0.3,0.3l-0.2,0.5v0.4l0.1,0.4l0.1,0.2L631.3,393.9z"/>
		<path class="st1" d="M629.7,471.6l0.4,0c0.9-0.4,1.1-1,1.2-1.4l-0.1-0.3l-0.2-0.4l-0.2-0.2c-0.4-0.2-0.8-0.2-1.2-0.1
			c-0.4,0.1-0.7,0.4-0.8,0.8c-0.2,0.4-0.1,0.8,0.1,1.2l0.3,0.2L629.7,471.6z"/>
		<path class="st1" d="M651.3,463.7c0.1,0.1,0.4,0.1,0.6,0.1l0.4-0.2l0.4-0.6c0-0.1,0.1-0.3,0.1-0.6l-0.2-0.4l-0.7-0.5
			c-0.1,0-0.3-0.1-0.6-0.1l-0.4,0.2l-0.5,0.6c0,0.1-0.1,0.3-0.1,0.6l0.2,0.4L651.3,463.7z"/>
		<path class="st1" d="M620.5,400.2c0.1,0,0.3,0.1,0.6,0.1l0.4-0.2l0.5-0.7c0-0.1,0.2-0.6-0.1-1.1l-0.3-0.2l-0.5-0.2l-0.3,0
			l-0.5,0.2l-0.3,0.3l-0.3,0.6l0,0.4l0.1,0.4l0.2,0.3L620.5,400.2z"/>
		<path class="st1" d="M590,410.7c0,0,0.1,0.1,0.1,0.1c0.1,0.2,0.3,0.5,0.8,0.5l0.4-0.6c0-0.1,0-0.2,0-0.3l-0.5-0.5c0,0-0.1,0-0.2,0
			c-0.2-0.1-0.5-0.1-0.7,0c-0.1,0-0.4,0.2-0.4,0.7l0.8,0.3C590.1,410.7,590,410.7,590,410.7z"/>
		<path class="st1" d="M611.7,481.5c0.5-0.2,0.7-0.6,0.6-1.1l-0.6-0.3c-0.1-0.1-0.3-0.1-0.5-0.1l-0.4,0.6c-0.1,0.1-0.2,0.3-0.1,0.5
			l0.2,0.4C611,481.6,611.3,481.6,611.7,481.5z"/>
		<path class="st1" d="M595.6,431.8c-0.1-0.4-0.6-0.7-1-0.5l-0.3,0.5c0,0,0,0.1,0,0.1c0,0.2-0.1,0.5,0.2,0.8l0.4,0.2
			C595.4,432.9,595.7,432.4,595.6,431.8z"/>
		<path class="st1" d="M611.7,440.6l-0.1,0.5l0.1,0.4c0.3,0.8,0.7,1.1,1.4,1.1l0.4-0.2l0.1-0.2l0.1,0c0.8-0.4,0.8-1,0.7-1.3
			l-0.1-0.2l-0.2-0.4c-0.4-0.5-0.9-0.7-1.4-0.5c-0.2,0.1-0.5,0.2-0.7,0.5L611.7,440.6z"/>
		<path class="st1" d="M607.3,431.3l0.4-0.2l0.4-0.6l0.1-0.5c-0.1-0.4-0.3-1-0.9-1.4c-0.3-0.2-0.7-0.2-1.1-0.1
			c-0.1,0-0.2,0.1-0.2,0.1l-0.3,0.3l-0.2,0.6l0,0.4C605.8,430.3,606.3,431.3,607.3,431.3z"/>
		<path class="st1" d="M588.6,452.7c0.1-0.7,0.2-1.5,0.4-2.1l-0.7-0.5c-0.5,0.3-0.8,1.1-0.9,1.8c0,0.5,0.1,0.9,0.4,1.1L588.6,452.7z
			"/>
		<path class="st1" d="M607.7,460.8l0.4-0.5c0,0,0-0.1,0-0.1c0-0.2,0.1-0.5-0.1-0.8l-0.5-0.2c-0.1,0-0.2,0-0.3,0.1
			c-0.5,0.2-0.8,0.6-0.7,1.1l0.6,0.4C607.3,460.8,607.5,460.9,607.7,460.8z"/>
		<path class="st1" d="M661.8,403.4L661.8,403.4c0.2,0.3,0.5,0.5,0.9,0.5l0.3,0.3l0.5,0.3l0.2,0.1c0.1,0,0.5,0.2,0.9,0.1l0.7-0.5
			l0.4-0.6l0.1-0.3c0.2-0.5,0.1-1-0.2-1.5l-0.5-0.5l-0.5-0.2h-0.2l-0.5-0.5l-0.6-0.2l-0.9,0c-1.1,0.4-1.4,1.3-1.2,2l0.5,0.7
			L661.8,403.4z"/>
		<path class="st1" d="M681.7,417.7c0.4-0.1,0.7-0.4,0.8-0.7c0.1-0.3,0.1-0.7-0.1-1l-0.3-0.2l-0.3-0.1l0,0.1l-0.3-0.2l-0.5,0
			l-0.4,0.1l-0.2,0.1l-0.3,0.3l-0.1,0.2c-0.1,0.5,0,0.9,0.4,1.2C680.7,417.8,681.2,417.9,681.7,417.7z"/>
		<path class="st1" d="M674.2,438.5c0.3-0.1,0.6-0.3,0.9-0.6l0.3-0.5l0.1-0.5l0-0.6l-0.3-0.9l-0.5-0.6l-0.6-0.3l-0.8,0l-1.1,0.4
			l-0.6,0.5l-0.3,0.6l0,0.8C671.7,438.2,673,438.9,674.2,438.5z"/>
		<path class="st1" d="M664,413l0.5,0.2l0.9,0c1.4-0.5,1.6-1.8,1.6-2.3l0-0.2l-0.1-0.7l-0.3-0.5l-0.5-0.4c-0.5-0.2-1-0.2-1.5,0
			c-0.6,0.2-1.1,0.7-1.3,1.3c-0.2,0.7-0.1,1.5,0.3,2.1L664,413z"/>
		<path class="st1" d="M665.2,365.6l0.5-0.6l-0.4-1.1l-0.8-0.1c-0.2,0.3-0.5,0.4-0.7,0.6c-0.3,0.2-0.5,0.4-0.8,0.8l0.1,0.6
			c0.4,0.3,0.8,0.3,1.3,0C664.7,365.7,664.9,365.6,665.2,365.6z"/>
		<path class="st1" d="M670.3,478.3l-0.4,0.6l1.3-0.1l-0.5-0.4C670.6,478.3,670.5,478.3,670.3,478.3z"/>
		<path class="st1" d="M647.3,422.3l-0.3,0.6l0,0.8l0.1,0.4l0.5,0.6l0.7,0.3c0.1,0,0.5,0.2,0.9,0.1l0.7-0.5l0.4-0.6l0.1-0.3
			c0.1-0.2,0.2-0.8-0.2-1.5l-0.5-0.5l-0.5-0.2h-0.7l-0.5,0.2L647.3,422.3z"/>
		<path class="st1" d="M641.1,412.6l0.2,0.4l0.4,0.4c0.5,0.2,1,0.3,1.5,0.1c0.6-0.2,1.2-0.7,1.4-1.4v-0.8l-0.2-0.5l-0.5-0.5
			c-0.6-0.3-1.2-0.4-1.7-0.2c-0.4,0.1-1.2,0.6-1.3,1.9L641.1,412.6z"/>
		<path class="st1" d="M638.2,384.5c0.1-0.2,0.1-0.4,0-0.6l-0.7-0.2c-0.1-0.1-0.4-0.3-0.8-0.1c-0.1,0-0.2,0.1-0.2,0.1l-0.2,0.4
			c0,0.3,0.2,0.6,0.4,0.8C637.3,385.2,638,385,638.2,384.5z"/>
		<path class="st1" d="M647.9,387.1c0.5-0.2,0.8-0.5,0.9-0.9c0.1-0.4,0-0.8-0.4-1.2l-0.3-0.1l-0.5-0.1l-0.3,0l-0.5,0.2l-0.2,0.2
			l-0.3,0.4l-0.1,0.3c0,0.5,0.1,0.9,0.4,1.1C647,387.3,647.4,387.3,647.9,387.1z"/>
		<path class="st1" d="M697.9,395.5c0.1,0,0.2,0,0.2-0.1c0.1,0,0.4-0.1,0.5-0.5c0.1-0.2,0-0.5-0.2-0.7l-0.2-0.1
			c-0.3-0.1-0.5-0.1-0.6-0.1c-0.5,0.2-0.6,0.8-0.6,1l0.7,0.4C697.8,395.6,697.9,395.6,697.9,395.5z"/>
		<path class="st1" d="M631,420.2h0.5l0.5-0.2c0.8-0.5,1.1-1.3,1.3-1.8l0-0.6l-0.1-0.5l-0.3-0.5c-0.6-0.5-1.3-0.7-2-0.4
			c-0.8,0.3-1.3,1-1.4,1.9c-0.1,0.8,0.3,1.6,1,2L631,420.2z"/>
		<path class="st1" d="M670.6,459l0.1,0.1l0.5,0.3l0.4,0.1c0.1,0,0.2,0,0.3-0.1c0.4-0.1,0.6-0.4,0.8-0.7c0.3-0.6,0-1.3-0.2-1.6
			l-0.3-0.3l-0.5-0.3l-0.4,0l-0.1,0c-0.5,0.2-0.9,0.5-1.1,0.8l-0.1,0.2l0,0.3l0,0.2C670.2,458.6,670.4,458.9,670.6,459L670.6,459z"
			/>
		<path class="st1" d="M650.2,432.1c-0.2-0.1-0.6-0.3-1.1-0.3l-0.8,0.5l-0.4,0.6l-0.1,0.9l0.2,0.5l0.6,0.6l0.6,0.3l0.9,0
			c1.4-0.5,1.3-1.6,1.2-2l-0.5-0.7L650.2,432.1z"/>
		<path class="st1" d="M565.2,434.6c0.2,0.1,0.4,0.1,0.6,0l-0.2-0.5c0,0,0.1,0,0.1-0.1c0.1-0.2-0.3-0.5-0.4-0.5
			c-0.1,0-0.1,0-0.2,0.1l-0.2-0.5c-0.3,0.1-0.5,0.5-0.4,0.8C564.7,434.2,564.9,434.5,565.2,434.6z"/>
		<path class="st1" d="M627.6,448.1l0.5,0.5l0.5,0.2l0.7,0.1c0.2,0,0.3-0.1,0.5-0.1c1.4-0.5,1.8-1.5,1.8-2.4l-0.2-0.6l-0.3-0.4
			l-0.5-0.4c-0.5-0.2-1.1-0.2-1.6,0c-0.6,0.2-1.1,0.7-1.4,1.3C627.3,446.9,627.4,447.6,627.6,448.1z"/>
		<path class="st1" d="M675.5,390.6c0.1,0,0.3,0.1,0.7,0.1l0.4-0.2l0.4-0.6c0.1-0.1,0.1-0.4,0.1-0.6l-0.2-0.4l-0.6-0.4
			c-0.1,0-0.3-0.1-0.6-0.1l-0.4,0.2l-0.5,0.7c0,0.1-0.1,0.3-0.1,0.6l0.2,0.4L675.5,390.6z"/>
		<path class="st1" d="M644.8,487.1l-0.3,0.2c-0.2,0.4-0.1,0.9,0.1,1.2c0.2,0.3,0.5,0.4,0.9,0.3l0.3-0.2c0.2-0.4,0.1-0.9-0.2-1.2
			C645.5,487.1,645.2,487,644.8,487.1z"/>
		<path class="st1" d="M697.4,452.3l0.3-0.3c0.1-0.4,0.1-0.8-0.2-1.3l-0.5-0.2l-0.1,0c-0.5,0.2-0.7,0.8-0.5,1.2
			C696.5,452.1,696.9,452.4,697.4,452.3z"/>
		<path class="st1" d="M660.6,448.5l0,0.5c0,0,0,0,0,0c0,0.3-0.3,0.3-0.2,0.6c0.1,0,0.1,0,0.2,0l0,0.6c0.4,0,0.8-0.3,0.8-0.8l-0.5,0
			l0,0l0.5,0c0-0.2,0-0.3-0.1-0.5C661,448.6,660.8,448.5,660.6,448.5z"/>
		<path class="st1" d="M565.4,456.7l-0.5,0.5c0,0.2,0,0.4,0,0.6c0,0.3,0,0.5,0.2,0.7l0.8-0.1c0-0.1,0.1-0.1,0.1-0.2
			c0.2-0.2,0.4-0.5,0.3-1.1l-0.4-0.4L565.4,456.7z"/>
		<path class="st1" d="M560.7,390.5l-0.4,0.1c-0.2,0.2-0.5,0.8-0.4,1.3c0.1,0.3,0.3,0.4,0.5,0.5l0.5-0.3c0,0.1-0.1,0.1-0.1,0.1
			l0.5-0.4C561.6,390.8,560.9,390.6,560.7,390.5z"/>
		<path class="st1" d="M589.9,399.6l-0.1-0.2c-0.3-0.3-0.6-0.4-0.9-0.4c-0.5,0-1,0.3-1.3,0.7l0,0.5l0.4,0.7l0.5,0.3l0.2,0
			c1,0,1.3-0.5,1.4-0.9V400L589.9,399.6z"/>
		<path class="st1" d="M574.3,418.4l-0.5-0.5c-0.2,0-0.5,0-0.7,0.3c-0.1,0.2-0.2,0.4-0.1,0.6l0.5,0.4c0,0,0.1,0,0.1,0
			c0.2,0,0.8,0,0.8-0.5L574.3,418.4C574.3,418.4,574.3,418.4,574.3,418.4z"/>
		<path class="st1" d="M551.2,432.3c0,0,0.1,0,0.2-0.1l-0.7,0.3c0,0.3,0,0.6,0.2,0.8c0.1,0.1,0.3,0.3,0.7,0.3h0.1l0.4-0.4
			c0-0.1,0-0.2,0.1-0.3l-0.4-0.7C551.5,432.1,551.3,432.2,551.2,432.3z"/>
		<path class="st1" d="M589.5,366.4l-0.3-0.5c-0.1,0-0.2-0.1-0.3-0.2c-0.1-0.1-0.3-0.2-0.4-0.3l-0.6,0.3c-0.1,0.3,0,0.7,0.2,1
			c0.2,0.2,0.4,0.3,0.6,0.3C588.9,367.1,589.3,367,589.5,366.4z"/>
		<path class="st1" d="M579.1,382c-0.4,0-0.8,0.3-0.9,0.7l0.3,0.5c0,0,0.1,0,0.1,0.1c0.1,0.1,0.3,0.2,0.6,0.2c0.1,0,0.2,0,0.3,0
			l0.4-0.3c0.1-0.3,0-0.6-0.1-0.8C579.6,382.2,579.3,382.1,579.1,382z"/>
		<path class="st1" d="M656.6,472.5c-0.1-0.2-0.3-0.4-0.7-0.5l-0.5,0.4c0,0.4,0.4,1.2,1,1.2c0.3,0,0.5-0.1,0.6-0.4l-0.3-0.6
			C656.7,472.6,656.7,472.6,656.6,472.5z"/>
		<path class="st1" d="M658,429.6L658,429.6c0.3-0.4,0.6-0.9,0.4-1.6c-0.2-0.6-0.6-1-1.2-1.1l-0.7,0l-0.5,0.2l-0.3,0.3l-0.1,0.1
			c-0.3,0.3-1,0.8-1,1.7c0,0.5,0.2,1.1,0.7,1.5l1.1,0.2l0.6-0.2l0.1,0.1C657.6,430.5,657.9,430,658,429.6z"/>
		<path class="st1" d="M633.5,460.9l-0.1-0.2c-0.1-0.1-0.4-0.4-0.9-0.4c-0.2,0-0.9,0-1.3,1l0.1,0.4l0.5,0.7c0.1,0.1,0.4,0.3,0.8,0.3
			l0.2,0l0.4-0.2l0.4-0.4l0.1-0.3l0-0.4l0-0.2L633.5,460.9z"/>
		<path class="st1" d="M664.4,389.6l-0.3-0.1c-1,0-1.4,0.5-1.6,0.8l-0.1,0.3l0,0.5l0.1,0.3c0.3,0.3,0.7,0.5,1.1,0.5
			c0.4,0,0.8-0.1,1-0.4c0.3-0.3,0.4-0.7,0.4-1.2l-0.2-0.3L664.4,389.6z"/>
		<path class="st1" d="M641.4,388.7c-0.1-0.1-0.3-0.3-0.6-0.3l-0.4,0.1l-0.6,0.4c-0.1,0.1-0.2,0.3-0.3,0.5l0,0.4l0.5,0.7
			c0.1,0.1,0.3,0.2,0.5,0.3l0.4,0l0.7-0.4c0.1-0.1,0.3-0.3,0.3-0.6l-0.1-0.4L641.4,388.7z"/>
		<path class="st1" d="M645.8,459.1c-0.1-0.1-0.3-0.2-0.5-0.3l-0.4,0.1l-0.7,0.5c-0.1,0.1-0.4,0.5-0.3,1.1l0.2,0.3l0.4,0.4l0.3,0.1
			l0.6,0l0.4-0.1l0.5-0.4l0.2-0.4l0-0.4l-0.1-0.4L645.8,459.1z"/>
		<path class="st1" d="M678.1,461c0,0,0-0.1,0-0.1c0-0.2-0.1-0.6-0.5-0.7l-0.6,0.4c0,0.1,0,0.2-0.1,0.3l0.3,0.7c0,0,0.1,0.1,0.2,0.1
			c0.2,0.1,0.4,0.3,0.6,0.3c0.1,0,0.5,0,0.6-0.5l-0.6-0.6C678,460.9,678.1,460.9,678.1,461z"/>
		<path class="st1" d="M684.8,387.2c-0.5,0-0.9,0.3-1,0.8l0.4,0.5c0.1,0.1,0.2,0.3,0.5,0.3l0.6-0.4c0.1-0.1,0.3-0.2,0.3-0.5
			l-0.1-0.4C685.5,387.3,685.2,387.2,684.8,387.2z"/>
		<path class="st1" d="M680.9,439.3c0,0.5,0.3,0.8,0.7,0.9l0.5-0.3c0,0,0-0.1,0.1-0.1c0.1-0.2,0.3-0.4,0.2-0.8l-0.3-0.4
			C681.5,438.4,681,438.8,680.9,439.3z"/>
		<path class="st1" d="M669.3,425.1l0.3-0.4l0.1-0.5c0-0.8-0.2-1.3-0.9-1.5l-0.4,0.1l-0.2,0.1l0,0c-0.8,0.1-1.1,0.6-1.1,0.9v0.2
			l0.1,0.4c0.1,0.6,0.5,1,1.1,1c0.2,0,0.5,0,0.8-0.2L669.3,425.1z"/>
		<path class="st1" d="M669.8,435.4l-0.5,0l-0.6,0.4l-0.3,0.4c0,0.4-0.1,1.1,0.3,1.6c0.2,0.3,0.6,0.5,1,0.5c0.1,0,0.2,0,0.3,0
			l0.3-0.2l0.4-0.5l0.1-0.4C670.9,436.8,670.8,435.8,669.8,435.4z"/>
		<path class="st1" d="M695.3,422.6c-0.3,0.6-0.7,1.3-1.2,1.8l0.4,0.7c0.6-0.1,1.2-0.7,1.5-1.3c0.2-0.4,0.2-0.8,0.1-1.2L695.3,422.6
			z"/>
		<path class="st1" d="M680.6,407.8l-0.6,0.3c0,0,0,0.1-0.1,0.1c-0.1,0.2-0.3,0.4-0.2,0.8l0.4,0.4c0.1,0,0.2,0,0.3,0
			c0.6,0,1-0.3,1-0.7l-0.4-0.6C681,408.1,680.8,407.9,680.6,407.8z"/>
		<path class="st1" d="M608.8,440.5L608.8,440.5c-0.1-0.3-0.3-0.6-0.6-0.8l-0.1-0.4l-0.4-0.5l-0.1-0.1c-0.1-0.1-0.4-0.3-0.8-0.4
			l-0.8,0.1l-0.6,0.4l-0.2,0.2c-0.3,0.4-0.5,0.9-0.4,1.4l0.3,0.6l0.4,0.4l0.2,0.1l0.3,0.6l0.5,0.5l0.8,0.3c1.2,0,1.8-0.7,1.9-1.4
			l-0.2-0.8L608.8,440.5z"/>
		<path class="st1" d="M595.9,419.8c-0.4,0-0.8,0.1-1,0.4c-0.2,0.3-0.3,0.6-0.3,0.9l0.2,0.3l0.2,0.2l0.1,0l0.2,0.3l0.4,0.2l0.4,0
			l0.3,0l0.4-0.2l0.2-0.2c0.3-0.4,0.3-0.9,0.1-1.2C596.8,420,596.4,419.8,595.9,419.8z"/>
		<path class="st1" d="M610.6,403.4c-0.3,0-0.7,0-1,0.2l-0.4,0.4l-0.3,0.4l-0.2,0.5l0,1l0.3,0.7l0.4,0.5l0.7,0.3l1.2,0l0.8-0.3
			l0.5-0.4l0.3-0.7C612.8,404.5,611.9,403.4,610.6,403.4z"/>
		<path class="st1" d="M610.5,430.8l-0.4-0.4l-0.8-0.3c-1.5-0.1-2.1,1.1-2.4,1.5l-0.1,0.2l-0.1,0.7l0.1,0.5l0.3,0.6
			c0.4,0.4,0.9,0.6,1.4,0.6c0.7,0,1.3-0.2,1.7-0.7c0.5-0.6,0.7-1.3,0.5-2.1L610.5,430.8z"/>
		<path class="st1" d="M591.4,474.3l-0.7,0.4l-0.1,1.2l0.7,0.4c0.3-0.2,0.6-0.2,0.8-0.3c0.3-0.1,0.6-0.1,1-0.4l0.1-0.6
			c-0.3-0.4-0.7-0.5-1.2-0.5C591.8,474.4,591.6,474.4,591.4,474.3z"/>
		<path class="st1" d="M629.3,368l0.6-0.4l-1.3-0.4l0.3,0.6C629,367.9,629.1,368,629.3,368z"/>
		<path class="st1" d="M629.4,428.5l0.5-0.4l0.3-0.7l0-0.4l-0.2-0.7l-0.5-0.6c-0.1-0.1-0.3-0.3-0.8-0.4l-0.8,0.1l-0.6,0.4l-0.2,0.2
			c-0.1,0.2-0.5,0.6-0.4,1.5l0.3,0.6l0.4,0.4l0.7,0.3l0.6,0L629.4,428.5z"/>
		<path class="st1" d="M631.5,439.9l-0.1-0.5l-0.2-0.5c-0.3-0.4-0.8-0.6-1.4-0.6c-0.7,0-1.3,0.2-1.8,0.7l-0.3,0.7l0,0.6l0.3,0.7
			c0.5,0.5,1,0.8,1.5,0.8c0.4,0,1.3-0.1,1.9-1.3L631.5,439.9z"/>
		<path class="st1" d="M623.5,466.9c-0.1,0.1-0.2,0.3-0.2,0.5l0.5,0.5c0.1,0.1,0.3,0.4,0.7,0.4c0.1,0,0.2,0,0.3,0l0.3-0.3
			c0.1-0.3,0.1-0.6-0.1-0.9C624.7,466.7,623.9,466.6,623.5,466.9z"/>
		<path class="st1" d="M615.6,460.9c-0.5,0-0.9,0.2-1.1,0.5c-0.2,0.4-0.3,0.8-0.1,1.2l0.2,0.2l0.4,0.3l0.3,0.1l0.6,0l0.3-0.1
			l0.4-0.2l0.2-0.2c0.2-0.4,0.2-0.9,0-1.2C616.5,461.1,616.1,460.9,615.6,460.9z"/>
		<path class="st1" d="M572.4,434.1c-0.1,0-0.2,0-0.2,0c-0.1,0-0.4,0-0.7,0.2c-0.1,0.2-0.2,0.4-0.1,0.7l0.1,0.2
			c0.2,0.2,0.4,0.3,0.6,0.3c0.5,0,0.8-0.5,0.9-0.7l-0.5-0.7C572.5,434.1,572.5,434.1,572.4,434.1z"/>
		<path class="st1" d="M643.7,436.7l-0.4-0.2l-0.6-0.1c-1,0.2-1.5,0.8-1.8,1.2l-0.3,0.5l-0.1,0.5l0.1,0.6c0.3,0.7,1,1.1,1.7,1.1
			c0.8,0,1.6-0.4,2-1.2c0.4-0.7,0.3-1.6-0.2-2.2L643.7,436.7z"/>
		<path class="st1" d="M621.7,385.7l0-0.2l-0.3-0.5l-0.3-0.2c-0.1,0-0.2,0-0.3,0c-0.4,0-0.7,0.1-1,0.4c-0.5,0.5-0.5,1.2-0.5,1.5
			l0.1,0.3l0.4,0.4l0.3,0.2l0.1,0c0.5,0,1-0.1,1.3-0.4l0.1-0.1l0.2-0.3l0.1-0.2C622,386.3,621.8,385.9,621.7,385.7L621.7,385.7z"/>
		<path class="st1" d="M630.4,418.4c0.1,0.1,0.4,0.5,0.9,0.6l0.9-0.1l0.6-0.4l0.4-0.8l0-0.6l-0.3-0.8l-0.5-0.5l-0.8-0.3
			c-1.5,0-1.8,1-1.9,1.4l0.2,0.8L630.4,418.4z"/>
		<path class="st1" d="M710.1,448.2c-0.2-0.2-0.3-0.3-0.5-0.3l0,0.5c0,0-0.1,0-0.2,0c-0.2,0.2,0.1,0.6,0.2,0.6c0.1,0,0.1,0,0.2,0
			l0,0.5c0.3,0,0.6-0.2,0.6-0.6C710.4,448.7,710.3,448.4,710.1,448.2z"/>
		<path class="st1" d="M657.4,412.1l-0.3-0.6l-0.4-0.4l-0.6-0.3c-0.2,0-0.3,0-0.5-0.1c-1.4-0.1-2.3,0.8-2.5,1.5l0,0.6l0.1,0.5
			l0.3,0.5c0.4,0.4,0.9,0.6,1.5,0.6c0.7,0,1.3-0.2,1.8-0.7C657.2,413.3,657.4,412.7,657.4,412.1z"/>
		<path class="st1" d="M591.3,447.2c-0.1-0.1-0.3-0.3-0.6-0.3l-0.4,0.1l-0.6,0.4c-0.1,0.1-0.3,0.3-0.3,0.6l0.1,0.4l0.4,0.6
			c0.1,0.1,0.3,0.2,0.5,0.3l0.4-0.1l0.7-0.4c0.1-0.1,0.2-0.3,0.3-0.5l-0.1-0.4L591.3,447.2z"/>
		<path class="st1" d="M656.2,369.5l0.3-0.1c0.3-0.3,0.5-0.8,0.3-1.2c-0.1-0.3-0.4-0.5-0.7-0.6l-0.3,0.1c-0.3,0.3-0.5,0.8-0.3,1.2
			C655.6,369.2,655.9,369.4,656.2,369.5z"/>
		<path class="st1" d="M594.4,381.9L594,382c-0.3,0.3-0.4,0.8-0.3,1.3l0.4,0.4l0.1,0c0.6,0,0.9-0.5,1-0.9
			C595.2,382.3,594.9,381.9,594.4,381.9z"/>
		<path class="st1" d="M663.9,475.2c-0.1,0.1-0.2,0.3-0.2,0.5c0,0.3,0.2,0.5,0.4,0.6l0.3-0.4c0,0,0,0,0,0l-0.3,0.3
			c0.4,0.3,0.8,0.4,1.1,0l-0.3-0.3c0,0,0,0,0,0c-0.2-0.2-0.1-0.5-0.5-0.6c-0.1,0-0.1,0.1-0.1,0.1L663.9,475.2z"/>
		<path class="st1" d="M649.8,424.9l0.4,0.4c0,0,0,0,0,0c0.2,0.2,0,0.4,0.3,0.5c0.1,0,0.1-0.1,0.1-0.1l0.4,0.4
			c0.3-0.3,0.2-0.8-0.2-1.2l-0.3,0.4l0,0l0.3-0.4c-0.1-0.1-0.3-0.2-0.4-0.2C650.2,424.7,650,424.8,649.8,424.9z"/>
		<path class="st1" d="M542.7,468.1l-0.2,0.4c0,0.2,0.3,0.9,0.8,1.1c0.3,0.1,0.5,0,0.7-0.1l0.1-0.6c0,0,0,0.1,0,0.1l0-0.6
			C543.5,467.6,542.9,468,542.7,468.1z"/>
		<path class="st1" d="M567.8,450.7l-0.3,0c-0.4,0-0.7,0.2-0.9,0.5c-0.3,0.4-0.4,1-0.3,1.5l0.4,0.3l0.8,0.1l0.5-0.2l0.1-0.2
			c0.7-0.8,0.4-1.4,0.2-1.6l-0.2-0.2L567.8,450.7z"/>
		<path class="st1" d="M573.1,474.5l-0.7,0c-0.1,0.1-0.3,0.4-0.2,0.7c0,0.2,0.2,0.4,0.4,0.5l0.6-0.1c0,0,0-0.1,0.1-0.1
			c0.1-0.1,0.5-0.6,0.1-1L573.1,474.5C573,474.5,573.1,474.5,573.1,474.5z"/>
		<path class="st1" d="M541.4,430.5l-0.6-0.1c-0.1,0.1-0.2,0.1-0.3,0.1c-0.2,0-0.3,0.1-0.5,0.2l-0.1,0.7c0.2,0.3,0.6,0.4,0.9,0.4
			c0.3,0,0.5-0.1,0.6-0.3C541.5,431.5,541.8,431.1,541.4,430.5z"/>
		<path class="st1" d="M547.3,448.4c-0.3,0.3-0.3,0.8,0.1,1.1l0.6,0c0,0,0.1,0,0.1,0c0.1,0,0.3-0.1,0.5-0.3c0-0.1,0.1-0.1,0.2-0.2
			l0-0.5c-0.2-0.2-0.4-0.4-0.7-0.4S547.5,448.2,547.3,448.4z"/>
		<path class="st1" d="M666.4,442.8c-0.2,0-0.5,0-0.8,0.2l0,0.7c0.3,0.3,1.2,0.4,1.5,0c0.2-0.2,0.2-0.5,0-0.7l-0.7-0.1
			C666.5,442.8,666.4,442.8,666.4,442.8z"/>
		<path class="st1" d="M633.4,415.4L633.4,415.4c-0.2-0.5-0.4-1-1-1.3c-0.5-0.2-1.2-0.1-1.6,0.2l-0.4,0.6l-0.1,0.5l0,0.4l0,0.2
			c0,0.5,0,1.3,0.7,1.9c0.4,0.4,1,0.5,1.6,0.4l0.8-0.7l0.2-0.6l0.1,0C633.8,416.2,633.6,415.7,633.4,415.4z"/>
		<path class="st1" d="M643,453.9l-0.2,0c-0.1,0-0.5,0.1-0.8,0.5c-0.1,0.2-0.6,0.8,0,1.6l0.4,0.2l0.9,0c0.1,0,0.5-0.1,0.8-0.4
			l0.1-0.2l0.1-0.4l-0.1-0.6l-0.2-0.3l-0.3-0.3l-0.2-0.1L643,453.9z"/>
		<path class="st1" d="M605.7,385.7l-0.3,0.2c-0.6,0.8-0.5,1.4-0.3,1.8l0.2,0.2l0.4,0.3l0.3,0.1c0.4,0,0.8-0.2,1.1-0.5
			c0.3-0.3,0.4-0.7,0.3-1.1c-0.1-0.4-0.3-0.8-0.7-1l-0.4-0.1L605.7,385.7z"/>
		<path class="st1" d="M590.9,403.3c-0.2,0-0.4,0.1-0.6,0.2l-0.2,0.4l-0.1,0.8c0,0.1,0,0.3,0.2,0.6l0.4,0.2l0.8,0.1
			c0.1,0,0.3-0.1,0.5-0.2l0.2-0.4l0.1-0.8c0-0.1,0-0.4-0.2-0.6l-0.4-0.2L590.9,403.3z"/>
		<path class="st1" d="M649.2,443.1c-0.1,0-0.3,0.1-0.6,0.2l-0.2,0.4l0,0.8c0,0.1,0.1,0.6,0.7,0.9l0.3,0.1l0.6-0.1l0.3-0.2l0.4-0.4
			l0.1-0.4l0-0.6l-0.2-0.4l-0.3-0.3l-0.3-0.1L649.2,443.1z"/>
		<path class="st1" d="M670.4,418.8c0,0-0.1,0-0.1-0.1c-0.2-0.1-0.5-0.3-0.9-0.1l0,0.7c0.1,0.1,0.1,0.1,0.2,0.3l0.7,0.2
			c0,0,0.1,0,0.2-0.1c0.2-0.1,0.5-0.1,0.6-0.3c0.1-0.1,0.3-0.4,0-0.8l-0.8,0.1C670.3,418.8,670.4,418.8,670.4,418.8z"/>
		<path class="st1" d="M616.3,368.1c-0.3,0.4-0.3,0.9,0,1.2h0.7c0.1,0,0.3,0,0.5-0.2l0.1-0.7c0-0.1,0-0.3-0.2-0.5l-0.4-0.2
			C616.8,367.7,616.5,367.9,616.3,368.1z"/>
		<path class="st1" d="M655,403.2c0.3,0.3,0.8,0.3,1.2,0l0-0.6c0,0,0-0.1-0.1-0.1c-0.1-0.2-0.2-0.4-0.5-0.6l-0.5,0
			C654.7,402.3,654.7,402.9,655,403.2z"/>
		<path class="st1" d="M636.7,403.7l-0.2-0.5l-0.3-0.3c-0.6-0.5-1.2-0.6-1.7-0.3l-0.2,0.4l0,0.2l-0.1,0c-0.5,0.7-0.2,1.2,0,1.5
			l0.2,0.1l0.4,0.2c0.6,0.3,1.1,0.2,1.5-0.3c0.2-0.2,0.3-0.4,0.4-0.8L636.7,403.7z"/>
		<path class="st1" d="M645.1,409.6l-0.3,0.4l-0.1,0.7l0.2,0.4c0.3,0.3,0.8,0.8,1.5,0.7c0.4,0,0.7-0.2,1-0.5c0-0.1,0.1-0.1,0.2-0.2
			l0.1-0.4l-0.1-0.6l-0.2-0.3C647,409.6,646.1,409,645.1,409.6z"/>
		<path class="st1" d="M650.7,381.6c0.3,0.6,0.6,1.3,0.7,2l0.8,0.1c0.2-0.5,0.2-1.4-0.1-2c-0.2-0.4-0.5-0.7-0.9-0.8L650.7,381.6z"/>
		<path class="st1" d="M630,384.1l-0.1,0.6c0,0,0,0.1,0.1,0.1c0.1,0.2,0.2,0.4,0.5,0.7l0.5-0.1c0.1-0.1,0.1-0.1,0.2-0.2
			c0.4-0.4,0.4-0.9,0-1.3l-0.7,0C630.5,384,630.3,384,630,384.1z"/>
		<path class="st1" d="M611.7,460.9L611.7,460.9c-0.3-0.1-0.7-0.1-1,0l-0.4-0.1l-0.6,0l-0.2,0c-0.1,0-0.5,0.1-0.8,0.3l-0.4,0.8
			l0,0.7l0,0.3c0.1,0.5,0.4,0.9,0.9,1.2l0.7,0.1l0.6-0.1l0.2-0.1l0.7,0.2l0.7-0.1l0.7-0.5c0.8-0.9,0.5-1.8,0.1-2.4l-0.8-0.3H611.7z"
			/>
		<path class="st1" d="M587.4,458.3c-0.3,0.3-0.4,0.7-0.3,1c0.1,0.3,0.3,0.6,0.6,0.8l0.3,0.1l0.3,0l0-0.1l0.4,0l0.4-0.2l0.3-0.3
			l0.1-0.2l0.1-0.4l0-0.3c-0.1-0.5-0.5-0.8-0.9-0.9C588.2,457.8,587.7,457.9,587.4,458.3z"/>
		<path class="st1" d="M583.5,436.6c-0.2,0.3-0.4,0.6-0.5,1l0,0.6l0.1,0.4l0.3,0.5l0.7,0.6l0.8,0.3l0.6,0l0.7-0.4l0.8-0.9l0.3-0.8
			l0-0.6l-0.4-0.7C585.8,435.6,584.4,435.6,583.5,436.6z"/>
		<path class="st1" d="M605.1,453.6l-0.5,0.1l-0.7,0.5c-1,1.2-0.5,2.4-0.3,2.8l0.1,0.2l0.5,0.5l0.5,0.3l0.7,0.1
			c0.5-0.1,1-0.3,1.3-0.7c0.4-0.5,0.6-1.2,0.5-1.8c-0.1-0.7-0.6-1.4-1.3-1.7L605.1,453.6z"/>
		<path class="st1" d="M567.1,400.2l0.1-0.7l-1.1,0.7l0.7,0.1C566.8,400.3,567,400.3,567.1,400.2z"/>
		<path class="st1" d="M614.9,437.3l0-0.6l-0.4-0.7l-0.3-0.3l-0.7-0.3l-0.7,0c-0.1,0-0.5,0.1-0.8,0.3l-0.4,0.8l0,0.7l0,0.3
			c0,0.2,0.2,0.8,0.9,1.2l0.7,0.1l0.6-0.1l0.6-0.4l0.4-0.5L614.9,437.3z"/>
		<path class="st1" d="M625.2,442.6l-0.4-0.2l-0.6-0.1c-0.5,0-1,0.3-1.3,0.7c-0.4,0.5-0.6,1.2-0.5,1.9l0.4,0.6l0.5,0.4l0.7,0.2
			c0.7,0,1.2-0.3,1.6-0.7c0.3-0.3,0.8-1.1,0.1-2.3L625.2,442.6z"/>
		<path class="st1" d="M641.6,465.5c0,0.2,0.1,0.4,0.3,0.5l0.7-0.1c0.2,0,0.5,0,0.8-0.3c0-0.1,0.1-0.1,0.1-0.2l0-0.5
			c-0.2-0.3-0.5-0.4-0.8-0.4C642.1,464.5,641.5,465,641.6,465.5z"/>
		<path class="st1" d="M631.9,468c-0.3,0.4-0.4,0.8-0.3,1.2c0.1,0.4,0.5,0.7,0.9,0.8l0.3,0l0.4-0.1l0.2-0.2l0.4-0.4l0.1-0.3l0.1-0.5
			l0-0.3c-0.2-0.4-0.5-0.7-1-0.8C632.7,467.5,632.3,467.6,631.9,468z"/>
		<path class="st1" d="M584.3,485.7c-0.1,0-0.1,0.1-0.2,0.2c-0.1,0.1-0.3,0.3-0.2,0.7c0,0.2,0.2,0.4,0.5,0.5l0.2,0
			c0.3,0,0.5-0.1,0.6-0.3c0.3-0.4,0.1-1,0-1.2l-0.8,0C584.4,485.6,584.4,485.6,584.3,485.7z"/>
		<path class="st1" d="M630.1,431l-0.4,0.2l-0.4,0.4c-0.5,0.9-0.3,1.6-0.2,2.2l0.3,0.5l0.3,0.4l0.5,0.3c0.7,0.2,1.5-0.1,1.9-0.6
			c0.5-0.6,0.7-1.5,0.3-2.3c-0.3-0.7-1-1.2-1.8-1.2L630.1,431z"/>
		<path class="st1" d="M576.4,417l-0.2-0.1l-0.6,0l-0.4,0.1c-0.1,0.1-0.1,0.1-0.2,0.2c-0.3,0.3-0.4,0.6-0.3,1
			c0.1,0.7,0.6,1.1,0.9,1.3l0.4,0.1l0.6,0l0.3-0.2l0.1-0.1c0.3-0.4,0.5-0.8,0.5-1.3l0-0.2l-0.1-0.3l-0.1-0.2
			C577,417.1,576.6,417.1,576.4,417L576.4,417z"/>
		<path class="st1" d="M607.6,430.2c0.2,0,0.6,0,1.1-0.3l0.5-0.8l0-0.7l-0.4-0.8l-0.4-0.4l-0.8-0.2l-0.7,0.1l-0.8,0.5
			c-0.9,1.2-0.3,2.1-0.1,2.3l0.7,0.4L607.6,430.2z"/>
		<path class="st1" d="M680,385.7c-0.2,0-0.4,0.1-0.5,0.2l0.4,0.3c0,0-0.1,0.1-0.1,0.1c0,0.2,0.5,0.3,0.6,0.2c0.1,0,0.1-0.1,0.1-0.1
			l0.4,0.3c0.2-0.3,0.2-0.6-0.1-0.9C680.6,385.8,680.3,385.7,680,385.7z"/>
		<path class="st1" d="M619.1,405.1l-0.7-0.2l-0.5,0l-0.6,0.3c-0.1,0.1-0.2,0.2-0.3,0.4c-0.9,1.1-0.8,2.2-0.3,3l0.5,0.4l0.4,0.2
			l0.6,0.1c0.5-0.1,1-0.4,1.4-0.8c0.4-0.5,0.6-1.2,0.6-1.8C620,405.9,619.6,405.4,619.1,405.1z"/>
		<path class="st1" d="M606.3,478.8c-0.1,0-0.3,0-0.6,0.3l-0.2,0.4l0,0.8c0,0.1,0.1,0.4,0.2,0.6l0.4,0.2l0.8,0.1
			c0.1,0,0.3,0,0.6-0.2l0.2-0.4l0.1-0.8c0-0.1-0.1-0.4-0.2-0.6l-0.4-0.2L606.3,478.8z"/>
		<path class="st1" d="M584.8,379.8l0.1-0.3c0-0.4-0.3-0.8-0.7-1c-0.3-0.1-0.7,0-0.9,0.2l-0.1,0.3c0,0.4,0.3,0.8,0.7,1
			C584.2,380.1,584.5,380,584.8,379.8z"/>
		<path class="st1" d="M556.6,436.2l-0.1,0.4c0.1,0.4,0.4,0.8,0.8,1l0.5,0l0.1-0.1c0.4-0.4,0.2-1-0.1-1.3
			C557.4,435.9,556.9,435.9,556.6,436.2z"/>
		<path class="st1" d="M632.7,409c0.1,0.1,0.3,0.2,0.4,0.2c0.3,0,0.5-0.1,0.7-0.3l-0.3-0.3c0,0,0,0,0,0l0.3,0.3
			c0.4-0.3,0.5-0.8,0.2-1l-0.3,0.3c0,0,0,0,0,0c-0.2,0.1-0.5,0-0.7,0.4c0,0.1,0.1,0.1,0.1,0.1L632.7,409z"/>
		<path class="st1" d="M580.9,415.2l0.4-0.4c0,0,0,0,0,0c0.2-0.2,0.4,0,0.6-0.2c0-0.1-0.1-0.1-0.1-0.1l0.4-0.4
			c-0.3-0.3-0.8-0.3-1.2,0l0.3,0.4l0,0l-0.3-0.4c-0.1,0.1-0.2,0.3-0.3,0.4C580.7,414.8,580.7,415,580.9,415.2z"/>
		<path class="st1" d="M652,478.9l0.7,0c0.1-0.2,0.3-0.3,0.4-0.5c0.2-0.2,0.4-0.4,0.4-0.6l-0.6-0.5c-0.1,0-0.2,0-0.3,0.1
			c-0.3,0-0.6,0.1-1,0.5v0.6L652,478.9z"/>
		<path class="st1" d="M601.1,401.6c0,0.2-0.1,0.5,0.1,0.8l0.7,0.1c0.3-0.3,0.6-1.1,0.2-1.5c-0.2-0.2-0.4-0.3-0.7-0.2l-0.2,0.6
			C601.1,401.5,601.1,401.6,601.1,401.6z"/>
		<path class="st1" d="M568.9,430L568.9,430c-0.5,0.1-1.1,0.2-1.5,0.8c-0.3,0.5-0.3,1.1,0,1.7l0.5,0.5l0.5,0.2l0.4,0.1l0.2,0
			c0.5,0.1,1.3,0.2,2-0.4c0.4-0.4,0.6-0.9,0.6-1.5l-0.6-0.9l-0.5-0.3l0-0.1C569.8,429.7,569.2,429.8,568.9,430z"/>
		<path class="st1" d="M608.5,426.4l0,0.2c0,0.1,0,0.6,0.3,0.9c0.1,0.2,0.7,0.7,1.6,0.2l0.3-0.3l0.2-0.8c0-0.1,0-0.5-0.3-0.8
			l-0.2-0.1l-0.4-0.1l-0.6,0l-0.3,0.1l-0.3,0.3l-0.1,0.2L608.5,426.4z"/>
		<path class="st1" d="M535.3,452.9l0.2,0.4c0.7,0.7,1.3,0.7,1.7,0.6l0.3-0.2l0.3-0.4l0.1-0.3c0-0.4-0.1-0.8-0.3-1.1
			c-0.3-0.3-0.6-0.5-1-0.5c-0.4,0-0.8,0.2-1.1,0.5l-0.1,0.4L535.3,452.9z"/>
		<path class="st1" d="M550.4,470.2c0,0.1,0,0.4,0.1,0.6l0.3,0.3l0.7,0.2c0.1,0,0.3,0,0.6-0.1l0.3-0.3l0.2-0.8c0-0.1,0-0.3-0.1-0.6
			l-0.3-0.3l-0.8-0.2c-0.1,0-0.4,0-0.6,0.1l-0.3,0.3L550.4,470.2z"/>
		<path class="st1" d="M598.7,418.7c0,0.1,0,0.3,0.1,0.6l0.3,0.3l0.8,0.2c0.2,0,0.6,0,1-0.5l0.1-0.3v-0.6L601,418l-0.4-0.4l-0.4-0.2
			l-0.6,0l-0.4,0.1l-0.3,0.3l-0.2,0.3L598.7,418.7z"/>
		<path class="st1" d="M578,393.9c0,0-0.1,0.1-0.1,0.1c-0.1,0.2-0.4,0.5-0.2,0.9l0.7,0.1c0.1-0.1,0.1-0.1,0.3-0.1l0.3-0.7
			c0,0,0-0.1,0-0.2c0-0.2,0-0.5-0.2-0.7c-0.1-0.1-0.3-0.3-0.8-0.1l0,0.8C577.9,394,577.9,394,578,393.9z"/>
		<path class="st1" d="M519.6,439.6c0.3,0.4,0.8,0.5,1.2,0.2l0.1-0.7c0-0.1,0-0.3-0.1-0.6l-0.7-0.2c-0.1,0-0.3,0-0.6,0.1l-0.3,0.4
			C519.3,439,519.4,439.3,519.6,439.6z"/>
		<path class="st1" d="M560.2,406.7c0.4-0.3,0.4-0.8,0.2-1.1l-0.6-0.1c0,0-0.1,0-0.1,0c-0.2,0-0.5,0.1-0.7,0.4l0,0.5
			C559.2,406.9,559.8,407.1,560.2,406.7z"/>
		<path class="st1" d="M557.9,425l-0.5,0.1l-0.4,0.2c-0.6,0.5-0.8,1.1-0.5,1.7l0.4,0.3l0.2,0l0,0.1c0.6,0.5,1.2,0.4,1.5,0.2l0.2-0.1
			l0.2-0.3c0.4-0.5,0.4-1.1,0-1.5c-0.2-0.2-0.4-0.3-0.7-0.5L557.9,425z"/>
		<path class="st1" d="M565,417.5l0.3,0.3l0.7,0.2l0.5-0.1c0.3-0.2,0.9-0.6,1-1.3c0-0.4-0.1-0.8-0.3-1.1c0-0.1-0.1-0.1-0.2-0.2
			l-0.4-0.1l-0.6,0l-0.3,0.2C565.3,415.7,564.6,416.5,565,417.5z"/>
		<path class="st1" d="M538.2,407.7c0.7-0.2,1.4-0.4,2.1-0.4l0.3-0.8c-0.5-0.3-1.3-0.4-2-0.2c-0.5,0.1-0.8,0.4-0.9,0.8L538.2,407.7z
			"/>
		<path class="st1" d="M537.5,428.5l0.6,0.2c0,0,0.1,0,0.1,0c0.2,0,0.5-0.1,0.7-0.4l0-0.5c0-0.1-0.1-0.1-0.2-0.2
			c-0.4-0.4-0.8-0.5-1.3-0.2l-0.1,0.7C537.4,428.1,537.4,428.3,537.5,428.5z"/>
		<path class="st1" d="M610.5,458.4L610.5,458.4c-0.2,0.3-0.2,0.6-0.2,1l-0.2,0.4l-0.1,0.6l0,0.2c0,0.1,0,0.5,0.2,0.9l0.7,0.5
			l0.7,0.1l0.3,0c0.5,0,1-0.3,1.3-0.7l0.2-0.7l0-0.6l-0.1-0.2l0.3-0.6l0-0.7l-0.4-0.8c-0.8-0.9-1.7-0.8-2.3-0.4l-0.5,0.7
			L610.5,458.4z"/>
		<path class="st1" d="M604.3,482c0.3,0.3,0.6,0.5,1,0.5c0.3,0,0.7-0.2,0.9-0.4l0.1-0.3v-0.3l-0.1,0l0.1-0.4l-0.1-0.4l-0.3-0.3
			l-0.2-0.1l-0.4-0.1l-0.3,0c-0.5,0.1-0.8,0.4-1,0.8C603.8,481.1,604,481.7,604.3,482z"/>
		<path class="st1" d="M582.2,482.5c0.2,0.3,0.5,0.5,0.9,0.6l0.6,0.1l0.5-0.1l0.5-0.2l0.7-0.6l0.4-0.7l0-0.6l-0.3-0.8l-0.8-0.9
			l-0.7-0.4l-0.6,0l-0.8,0.3C581.6,480.1,581.4,481.6,582.2,482.5z"/>
		<path class="st1" d="M602.3,463.8v0.5l0.3,0.8c1,1.2,2.3,0.8,2.7,0.7l0.2,0l0.6-0.4l0.3-0.4l0.2-0.6c0-0.5-0.2-1-0.5-1.4
			c-0.4-0.5-1.1-0.8-1.7-0.8c-0.7,0-1.4,0.4-1.9,1L602.3,463.8z"/>
		<path class="st1" d="M647,447.9l0.7,0.2l0.9-0.8l-0.2-0.8c-0.4-0.1-0.6-0.3-0.8-0.4c-0.3-0.2-0.5-0.3-1-0.4l-0.5,0.3
			c-0.1,0.5,0.1,0.9,0.5,1.3C646.8,447.5,647,447.7,647,447.9z"/>
		<path class="st1" d="M587.7,451.6l-0.6,0l-0.8,0.2L586,452l-0.3,0.6l-0.1,0.7c0,0.1,0,0.5,0.2,0.9l0.7,0.5l0.7,0.1l0.3,0
			c0.2,0,0.8-0.1,1.3-0.7l0.2-0.7V453l-0.3-0.7l-0.4-0.5L587.7,451.6z"/>
		<path class="st1" d="M594.5,442.3l-0.3,0.4l-0.2,0.5c-0.1,0.5,0.1,1,0.5,1.4c0.4,0.5,1.1,0.8,1.8,0.8l0.7-0.3l0.4-0.4l0.3-0.7
			c0.1-0.7-0.1-1.2-0.5-1.7c-0.3-0.3-1-0.9-2.3-0.5L594.5,442.3z"/>
		<path class="st1" d="M619.7,429.6c0.2,0,0.4,0,0.5-0.2l0-0.7c0-0.2,0.1-0.5-0.1-0.8c0-0.1-0.1-0.1-0.2-0.2l-0.5,0
			c-0.3,0.1-0.5,0.4-0.5,0.7C618.8,428.9,619.2,429.5,619.7,429.6z"/>
		<path class="st1" d="M620.7,439.5c0.3,0.4,0.7,0.5,1.2,0.5s0.8-0.3,1-0.8l0-0.3l-0.1-0.5l-0.1-0.3l-0.4-0.4l-0.2-0.2l-0.4-0.1
			l-0.3,0c-0.5,0.1-0.8,0.4-0.9,0.8C620.3,438.7,620.4,439.1,620.7,439.5z"/>
		<path class="st1" d="M630.8,489.3c0,0.1,0.1,0.1,0.1,0.2c0.1,0.1,0.3,0.3,0.6,0.3c0.2,0,0.4-0.2,0.6-0.4l0.1-0.2
			c0-0.3-0.1-0.5-0.2-0.6c-0.3-0.4-0.9-0.3-1.2-0.2l-0.2,0.8C630.8,489.2,630.8,489.2,630.8,489.3z"/>
		<path class="st1" d="M583.8,435.6l0.2,0.4l0.3,0.5c0.8,0.6,1.6,0.5,2.1,0.5l0.6-0.2l0.4-0.3l0.4-0.5c0.3-0.7,0.2-1.5-0.3-2
			c-0.5-0.6-1.4-0.9-2.2-0.6c-0.8,0.2-1.4,0.8-1.5,1.6L583.8,435.6z"/>
		<path class="st1" d="M561.8,486.5l-0.1,0.2l-0.1,0.6l0.1,0.4c0,0.1,0.1,0.2,0.2,0.2c0.3,0.3,0.6,0.5,1,0.5c0.7,0,1.2-0.5,1.5-0.7
			l0.2-0.3l0-0.6l-0.1-0.4l-0.1-0.1c-0.3-0.4-0.7-0.6-1.2-0.7l-0.2,0l-0.3,0.1l-0.2,0.1C562,486,561.9,486.3,561.8,486.5
			L561.8,486.5z"/>
		<path class="st1" d="M579.6,457.8c0-0.2,0.1-0.6-0.2-1.1l-0.7-0.6L578,456l-0.9,0.2l-0.4,0.4l-0.4,0.8l0,0.7l0.4,0.8
			c1,1.1,2,0.6,2.3,0.5l0.5-0.7L579.6,457.8z"/>
		<path class="st1" d="M546.8,379.4c0,0.2,0,0.4,0.2,0.5l0.4-0.3c0,0,0,0.1,0.1,0.1c0.2,0,0.3-0.5,0.3-0.5c0-0.1-0.1-0.1-0.1-0.1
			l0.4-0.3c-0.2-0.3-0.6-0.3-0.9-0.1C546.9,378.8,546.8,379.1,546.8,379.4z"/>
		<path class="st1" d="M556.5,442.5l-0.3,0.6l0,0.5l0.2,0.7c0.1,0.1,0.2,0.3,0.3,0.4c0.9,1.1,2.1,1.1,2.9,0.8l0.5-0.4l0.3-0.4
			l0.2-0.5c0-0.5-0.2-1.1-0.6-1.5c-0.4-0.5-1.1-0.8-1.7-0.8C557.5,441.8,557,442.1,556.5,442.5z"/>
		<path class="st1" d="M627.4,466.5c0,0.1,0,0.4,0.2,0.6l0.3,0.3l0.8,0.2c0.2,0,0.4,0,0.6-0.1l0.3-0.3l0.2-0.7c0-0.1,0-0.3-0.1-0.6
			l-0.3-0.3l-0.8-0.2c-0.1,0-0.3,0-0.6,0.1l-0.3,0.3L627.4,466.5z"/>
		<path class="st1" d="M526.3,472.6l-0.3-0.2c-0.4,0-0.9,0.2-1.1,0.6c-0.2,0.3-0.1,0.6,0.1,0.9l0.3,0.2c0.4,0,0.9-0.2,1.1-0.6
			C526.5,473.2,526.5,472.8,526.3,472.6z"/>
	</g>
</g>
</svg>
